<svg xmlns="http://www.w3.org/2000/svg" width="279" height="48" viewBox="0 0 279 48">
  <g fill="none">
    <path fill="#F6891F" d="M269.227885,36.7745366 L269.227885,24.8555181 C269.227885,21.5241154 269.939657,19.1239469 271.359268,17.6472199 C272.778879,16.1704928 275.091154,15.4340775 278.284296,15.4340775 L279,15.4340775 L279,11.0545493 L277.780943,11.0545493 C275.413614,11.0545493 273.533907,11.3857414 272.137891,12.0442291 C270.741875,12.7066133 269.648656,13.7742207 268.854303,15.2509478 L268.854303,11.5182182 L264.56401,11.5182182 L264.56401,36.7745366 L269.227885,36.7745366 L269.227885,36.7745366 Z M255.110423,24.9022746 C254.740774,27.3725779 253.808785,29.3168703 252.314458,30.7351516 C250.824063,32.1495366 248.971883,32.8586773 246.765784,32.8586773 C244.453509,32.8586773 242.491221,32.0092671 240.886785,30.3104465 C239.278417,28.6116259 238.476199,26.527064 238.476199,24.0528644 C238.476199,21.5630792 239.274484,19.4746209 240.874988,17.7835931 C242.471559,16.0925653 244.437779,15.2470514 246.769716,15.2470514 C247.917989,15.2470514 248.975815,15.4613521 249.947128,15.8899537 C250.918441,16.3185552 251.791443,16.9536647 252.570066,17.7952822 L239.935134,24.6451137 L241.89349,28.0700295 L258.92489,18.9057498 C257.63505,16.3302443 255.951965,14.3703665 253.879569,13.0222199 C251.80324,11.6740733 249.451641,11 246.820838,11 C245.055172,11 243.372088,11.3272957 241.775517,11.9779907 C240.178946,12.6286858 238.75147,13.5832982 237.497021,14.8340354 C236.242573,16.1042544 235.28699,17.5303286 234.622407,19.1083614 C233.961757,20.6863943 233.6275,22.3540438 233.6275,24.1035173 C233.6275,26.4881003 234.201636,28.6778644 235.349909,30.6689132 C236.498181,32.6599621 238.114414,34.2730623 240.198608,35.508214 C241.185651,36.0926706 242.243477,36.5329612 243.364223,36.8329823 C244.484968,37.1330034 245.621444,37.2849621 246.769716,37.2849621 C250.14375,37.2849621 253.002635,36.2368366 255.350302,34.1444819 C257.697969,32.0521272 259.200161,29.1999789 259.852946,25.5958298 L255.110423,24.9022746 Z M208.971097,47.9961036 L208.971097,24.1814448 C208.971097,21.5397009 209.737922,19.3966933 211.275507,17.7563184 C212.813091,16.1159436 214.806839,15.2977043 217.260681,15.2977043 C219.714524,15.2977043 221.727934,16.1120472 223.30091,17.7446293 C224.873887,19.3772115 225.656442,21.4617734 225.656442,24.0022115 C225.656442,26.6127843 224.854224,28.7479992 223.245856,30.4117523 C221.637488,32.0755055 219.592619,32.9093302 217.099451,32.9093302 C215.970841,32.9093302 214.85796,32.7223041 213.760809,32.3443555 C212.667591,31.9664069 211.590102,31.3819503 210.528343,30.5948821 L210.528343,35.4614575 C211.58617,36.0459141 212.702983,36.478412 213.878783,36.7628475 C215.054582,37.0472831 216.285436,37.1875527 217.575277,37.1875527 C219.340943,37.1875527 221.035825,36.8407751 222.659923,36.1433235 C224.284021,35.4497683 225.680037,34.4639848 226.844039,33.1937658 C227.992312,31.9741997 228.869246,30.5831929 229.478775,29.024642 C230.088303,27.4621946 230.391101,25.8257161 230.391101,24.1074136 C230.391101,20.3318239 229.164179,17.2108256 226.710336,14.7483151 C224.256493,12.2858045 221.138068,11.0545493 217.358993,11.0545493 C214.814703,11.0545493 212.506361,11.6584878 210.433964,12.8702612 C208.357636,14.0820345 206.78466,15.7574768 205.707171,17.9043808 C205.195954,18.9018534 204.830237,19.9889427 204.61002,21.1734414 C204.389803,22.3579402 204.279695,24.0216933 204.279695,26.1685973 L204.279695,48 L208.971097,48 L208.971097,47.9961036 Z M195.223284,24.9022746 C194.853635,27.3725779 193.921646,29.3168703 192.427319,30.7351516 C190.936924,32.1495366 189.084744,32.8586773 186.878645,32.8586773 C184.56637,32.8586773 182.604082,32.0092671 180.999646,30.3104465 C179.391278,28.6116259 178.58906,26.527064 178.58906,24.0528644 C178.58906,21.5630792 179.387345,19.4746209 180.987849,17.7835931 C182.58442,16.0925653 184.55064,15.2470514 186.882577,15.2470514 C188.03085,15.2470514 189.088677,15.4613521 190.059989,15.8899537 C191.031302,16.3185552 191.904304,16.9536647 192.682927,17.7952822 L180.047995,24.6451137 L182.006351,28.0700295 L199.037751,18.9057498 C197.747911,16.3302443 196.068759,14.3703665 193.99243,13.0222199 C191.916101,11.6740733 189.564502,11 186.933699,11 C185.168033,11 183.484949,11.3272957 181.888378,11.9779907 C180.291807,12.6286858 178.864331,13.5832982 177.609882,14.8340354 C176.355434,16.1042544 175.399851,17.5303286 174.735268,19.1083614 C174.074618,20.6863943 173.740361,22.3540438 173.740361,24.1035173 C173.740361,26.4881003 174.314497,28.6778644 175.46277,30.6689132 C176.611042,32.6599621 178.227275,34.2730623 180.311469,35.508214 C181.298512,36.0926706 182.356338,36.5329612 183.477084,36.8329823 C184.597829,37.1330034 185.734305,37.2849621 186.882577,37.2849621 C190.256611,37.2849621 193.115496,36.2368366 195.463163,34.1444819 C197.81083,32.0521272 199.313022,29.1999789 199.965807,25.5958298 L195.223284,24.9022746 Z M165.824358,24.9022746 C165.454708,27.3725779 164.52272,29.3168703 163.028392,30.7351516 C161.534065,32.1495366 159.685818,32.8586773 157.479718,32.8586773 C155.167443,32.8586773 153.205155,32.0092671 151.60072,30.3104465 C149.992351,28.6116259 149.190134,26.527064 149.190134,24.0528644 C149.190134,21.5630792 149.988419,19.4746209 151.588922,17.7835931 C153.185493,16.0925653 155.151714,15.2470514 157.483651,15.2470514 C158.631924,15.2470514 159.68975,15.4613521 160.661063,15.8899537 C161.632376,16.3185552 162.505378,16.9536647 163.284001,17.7952822 L150.649069,24.6451137 L152.607424,28.0700295 L169.638825,18.9057498 C168.348984,16.3302443 166.669832,14.3703665 164.593504,13.0222199 C162.517175,11.6740733 160.165575,11 157.534773,11 C155.769107,11 154.086022,11.3272957 152.489451,11.9779907 C150.89288,12.6286858 149.465404,13.5832982 148.210956,14.8340354 C146.956507,16.1042544 146.000924,17.5303286 145.336342,19.1083614 C144.675692,20.6863943 144.341434,22.3540438 144.341434,24.1035173 C144.341434,26.4881003 144.91557,28.6778644 146.063843,30.6689132 C147.212116,32.6599621 148.828349,34.2730623 150.912543,35.508214 C151.899585,36.0926706 152.957412,36.5329612 154.078157,36.8329823 C155.198903,37.1330034 156.335378,37.2849621 157.483651,37.2849621 C160.857685,37.2849621 163.716569,36.2368366 166.064236,34.1444819 C168.411903,32.0521272 169.914096,29.1999789 170.566881,25.5958298 L165.824358,24.9022746 Z M135.257496,11.5182182 L135.257496,26.9128054 C135.257496,28.6817607 134.730549,30.1156276 133.680588,31.2105097 C132.630626,32.3092881 131.273934,32.8586773 129.614444,32.8586773 C127.919562,32.8586773 126.555005,32.3131845 125.520773,31.2221988 C124.486541,30.1312131 123.971391,28.6934499 123.971391,26.908909 L123.971391,11.5182182 L119.362571,11.5182182 L119.362571,26.9128054 C119.362571,28.6817607 118.831692,30.1156276 117.773865,31.2105097 C116.716038,32.3092881 115.347549,32.8586773 113.668397,32.8586773 C111.973515,32.8586773 110.608958,32.3131845 109.574726,31.2221988 C108.540494,30.1312131 108.025345,28.6934499 108.025345,26.908909 L108.025345,11.5182182 L103.392929,11.5182182 L103.392929,26.114048 C103.392929,29.531171 104.324918,32.2391533 106.188895,34.2379949 C108.052872,36.2368366 110.546039,37.2382056 113.672329,37.2382056 C115.261035,37.2382056 116.727836,36.9109099 118.068798,36.2602148 C119.40976,35.6095198 120.60129,34.6393218 121.643387,33.3496209 C122.614699,34.6198399 123.778702,35.5861415 125.139326,36.2446293 C126.499951,36.9031171 127.990346,37.2343092 129.614444,37.2343092 C132.740734,37.2343092 135.229969,36.2407329 137.082149,34.2457877 C138.934328,32.2547388 139.862384,29.5428602 139.862384,26.1101516 L139.862384,11.5182182 L135.257496,11.5182182 Z M79,36.7745366 L87.7654103,36.7745366 C91.4737018,36.7745366 94.2185454,36.2095619 96.0038735,35.0757161 C97.7852691,33.9418703 98.6779331,32.2079823 98.6779331,29.8740522 C98.6779331,28.2102991 98.1706483,26.8348778 97.1560786,25.7555813 C96.1415089,24.6723884 94.1752885,23.5502317 91.26135,22.3813184 L86.5738807,20.5266428 C85.5514462,20.1136268 84.8160797,19.7045072 84.3756464,19.2914912 C83.935213,18.8784751 83.7149964,18.4148062 83.7149964,17.9004844 C83.7149964,17.214722 83.9627401,16.6809183 84.4582276,16.3029697 C84.9537152,15.9250211 85.6418923,15.7379949 86.522759,15.7379949 L97.3841601,15.7379949 L97.3841601,11.5182182 L87.7693427,11.5182182 C84.9615801,11.5182182 82.8066026,12.0676074 81.3083427,13.1663858 C79.8061503,14.2651643 79.0550542,15.8431971 79.0550542,17.9043808 C79.0550542,19.568134 79.5505417,20.9396588 80.5375843,22.0111626 C81.5246269,23.0826664 83.3256847,24.1346883 85.9407578,25.1633319 L90.3922806,26.9128054 C91.7332429,27.4621946 92.6495016,27.9609309 93.1331918,28.4051179 C93.616882,28.8532013 93.8606933,29.3909014 93.8606933,30.026011 C93.8606933,30.7819082 93.5382332,31.3741575 92.8933129,31.8027591 C92.2483926,32.2313606 91.359661,32.4456613 90.2310506,32.4456613 L79,32.4456613 L79,36.7745366 L79,36.7745366 Z"/>
    <path fill="#555" d="M56.4977617,37.5750862 L56.4977617,22.6991326 C56.4977617,20.6698715 57.1050949,19.0178702 58.3158175,17.7391577 C59.5304839,16.4604452 61.0724792,15.8250601 62.9496909,15.8250601 C64.8426775,15.8250601 66.3886165,16.4644163 67.5835643,17.7391577 C68.778512,19.0178702 69.3779578,20.6698715 69.3779578,22.6991326 L69.3779578,37.5750862 L74,37.5750862 L74,23.5370467 C74,19.7922458 72.9982946,16.8297628 70.9988275,14.6416553 C68.9993605,12.4535479 66.3136858,11.3614798 62.9496909,11.3614798 C59.585696,11.3614798 56.8921339,12.4535479 54.8729482,14.6416553 C52.8537625,16.8297628 51.8441697,19.7922458 51.8441697,23.5370467 L51.8441697,37.5750862 L56.4977617,37.5750862 L56.4977617,37.5750862 Z M46.2716905,37.5750862 L46.2716905,26.7655972 C46.2716905,24.4583551 46.1612663,22.7189884 45.9404178,21.5554394 C45.7195694,20.3918905 45.3528032,19.3196781 44.8361757,18.3427735 C43.7201023,16.1745219 42.1268386,14.4669244 40.0563846,13.2279235 C37.9859305,11.9849514 35.6985717,11.3654509 33.2021957,11.3654509 C29.4122788,11.3654509 26.2849073,12.6203365 23.8240247,15.1301076 C21.3631422,17.6398788 20.1327009,20.8207754 20.1327009,24.6688264 C20.1327009,27.011809 20.6296099,29.1443202 21.6194841,31.0584178 C22.6093583,32.9725154 24.0448732,34.5689205 25.9220848,35.847633 C26.9119591,36.530672 28.020145,37.0588358 29.2426988,37.4360957 C30.4652526,37.8133556 31.6956939,38 32.9340226,38 C34.2275634,38 35.4619484,37.8570384 36.6411213,37.5671439 C37.8202942,37.2772495 38.9403112,36.836451 40.0011725,36.2407775 L40.0011725,31.2808026 C38.9205926,32.0869474 37.8439565,32.6786498 36.7752078,33.063852 C35.7025155,33.4490542 34.602217,33.6396698 33.4664251,33.6396698 C30.970049,33.6396698 28.9153699,32.7898422 27.3023876,31.0941582 C25.6894052,29.3984742 24.884886,27.2183091 24.884886,24.5616052 C24.884886,21.9565263 25.6696866,19.824015 27.2353443,18.1720138 C28.8010019,16.5200125 30.8083564,15.6940119 33.2534641,15.6940119 C35.7143466,15.6940119 37.7177574,16.5279549 39.255809,18.1998119 C40.7978043,19.8716689 41.5668301,22.051834 41.5668301,24.7482496 L41.5668301,37.5790574 L46.2716905,37.5790574 L46.2716905,37.5750862 Z M0,24.4543839 C0,28.8623681 1.11607333,32.1504859 3.34822,34.3187376 C5.58036666,36.4869892 8.96013643,37.5711151 13.4954168,37.5711151 L19.5253677,37.5711151 L19.5253677,32.9526596 L12.6159667,32.9526596 C10.1905777,32.9526596 8.32125346,32.2894764 7.01193775,30.9591389 C5.70262204,29.6288013 5.04796419,27.7305884 5.04796419,25.2644999 L5.04796419,0 L0,0 L0,24.4543839 L0,24.4543839 Z"/>
  </g>
</svg>
