<svg xmlns="http://www.w3.org/2000/svg" width="514" height="133" fill="none" viewBox="0 0 514 133">
    <path fill="#FF8A00" d="M506.995 42.814v-8.69c0-2.43.51-4.18 1.528-5.257 1.017-1.076 2.675-1.613 4.964-1.613H514V24.06h-.874c-1.697 0-3.044.242-4.045.722-1.001.483-1.784 1.261-2.354 2.338v-2.722h-3.075v18.416h3.343zm-10.12-8.656c-.265 1.8-.933 3.219-2.004 4.253-1.069 1.031-2.397 1.548-3.978 1.548-1.658 0-3.064-.62-4.214-1.858-1.153-1.239-1.728-2.759-1.728-4.563 0-1.815.572-3.338 1.719-4.571 1.145-1.233 2.554-1.85 4.226-1.85.823 0 1.581.157 2.278.47.696.312 1.322.775 1.88 1.388l-9.058 4.995 1.404 2.497 12.209-6.682c-.924-1.878-2.131-3.307-3.617-4.29-1.488-.983-3.174-1.475-5.06-1.475-1.265 0-2.472.24-3.616.714-1.145.474-2.168 1.17-3.067 2.082-.9.926-1.585 1.966-2.061 3.117-.474 1.15-.713 2.367-.713 3.642 0 1.739.411 3.336 1.235 4.787.823 1.452 1.981 2.628 3.475 3.53.708.425 1.466.746 2.27.965.803.219 1.618.33 2.441.33 2.418 0 4.468-.765 6.151-2.29 1.683-1.526 2.76-3.606 3.227-6.234l-3.399-.505zM463.8 50.997V33.632c0-1.926.55-3.489 1.652-4.685 1.102-1.196 2.531-1.793 4.29-1.793s3.203.594 4.33 1.785c1.128 1.19 1.689 2.71 1.689 4.562 0 1.904-.575 3.46-1.728 4.674-1.153 1.213-2.619 1.821-4.406 1.821-.809 0-1.607-.136-2.393-.412-.784-.276-1.557-.702-2.318-1.276v3.549c.759.426 1.559.742 2.402.949.843.207 1.725.31 2.65.31 1.266 0 2.481-.253 3.645-.762 1.164-.505 2.165-1.224 2.999-2.15.823-.89 1.452-1.904 1.889-3.04.437-1.14.654-2.333.654-3.586 0-2.753-.88-5.029-2.639-6.824-1.759-1.796-3.994-2.694-6.703-2.694-1.824 0-3.479.44-4.964 1.324-1.489.884-2.616 2.105-3.389 3.671-.366.727-.628 1.52-.786 2.384-.158.863-.237 2.077-.237 3.642V51h3.363v-.003zm-9.855-16.84c-.265 1.802-.933 3.22-2.004 4.254-1.069 1.031-2.396 1.548-3.978 1.548-1.657 0-3.064-.62-4.214-1.858-1.153-1.239-1.728-2.759-1.728-4.563 0-1.815.572-3.338 1.719-4.571 1.145-1.233 2.554-1.85 4.226-1.85.823 0 1.581.157 2.278.47.696.312 1.322.775 1.88 1.388l-9.057 4.995 1.403 2.497 12.209-6.682c-.924-1.878-2.128-3.307-3.616-4.29-1.489-.983-3.174-1.475-5.06-1.475-1.266 0-2.473.24-3.617.714-1.145.474-2.168 1.17-3.067 2.082-.899.926-1.584 1.966-2.061 3.117-.473 1.15-.713 2.367-.713 3.642 0 1.739.412 3.336 1.235 4.787.823 1.452 1.981 2.628 3.476 3.53.707.425 1.465.746 2.269.965.803.219 1.618.33 2.441.33 2.419 0 4.468-.765 6.151-2.29 1.683-1.526 2.76-3.606 3.228-6.234l-3.4-.505zm-21.075 0c-.265 1.802-.933 3.22-2.004 4.254-1.071 1.031-2.396 1.548-3.977 1.548-1.658 0-3.065-.62-4.215-1.858-1.153-1.239-1.728-2.759-1.728-4.563 0-1.815.573-3.338 1.72-4.571 1.144-1.233 2.554-1.85 4.225-1.85.824 0 1.582.157 2.278.47.696.312 1.322.775 1.88 1.388l-9.057 4.995 1.404 2.497 12.209-6.682c-.925-1.878-2.128-3.307-3.617-4.29-1.488-.983-3.174-1.475-5.06-1.475-1.266 0-2.472.24-3.617.714-1.144.474-2.167 1.17-3.067 2.082-.899.926-1.584 1.966-2.06 3.117-.474 1.15-.713 2.367-.713 3.642 0 1.739.411 3.336 1.234 4.787.823 1.452 1.982 2.628 3.476 3.53.708.425 1.466.746 2.269.965.804.219 1.618.33 2.441.33 2.419 0 4.469-.765 6.151-2.29 1.683-1.526 2.76-3.606 3.228-6.234l-3.4-.505zm-21.911-9.759v11.226c0 1.29-.378 2.335-1.131 3.133-.752.802-1.725 1.202-2.914 1.202-1.215 0-2.194-.398-2.935-1.193-.741-.796-1.111-1.844-1.111-3.145V24.398h-3.303v11.226c0 1.29-.381 2.335-1.139 3.133-.759.802-1.74 1.202-2.943 1.202-1.215 0-2.193-.398-2.935-1.193-.741-.796-1.111-1.844-1.111-3.145V24.398h-3.32v10.643c0 2.492.668 4.466 2.004 5.924 1.336 1.457 3.123 2.188 5.365 2.188 1.138 0 2.19-.24 3.151-.714.961-.474 1.816-1.181 2.563-2.122.696.926 1.53 1.63 2.506 2.111.975.48 2.043.722 3.208.722 2.241 0 4.025-.725 5.353-2.18 1.327-1.451 1.993-3.429 1.993-5.932v-10.64h-3.301zm-40.328 18.416h6.283c2.659 0 4.626-.411 5.906-1.238 1.277-.827 1.917-2.091 1.917-3.793 0-1.213-.364-2.216-1.091-3.003-.727-.79-2.137-1.608-4.226-2.46l-3.36-1.353c-.733-.301-1.26-.6-1.576-.9-.315-.302-.473-.64-.473-1.015 0-.5.177-.89.533-1.165.355-.275.848-.412 1.479-.412h7.786v-3.077h-6.892c-2.013 0-3.557.401-4.631 1.202-1.077.801-1.616 1.952-1.616 3.455 0 1.213.355 2.213 1.063 2.995.708.78 1.999 1.548 3.873 2.298l3.191 1.276c.962.4 1.618.764 1.965 1.088.347.326.522.718.522 1.182 0 .55-.232.983-.694 1.295-.462.313-1.099.469-1.908.469h-8.051v3.156z"/>
    <path fill="#555" d="M354.5 43.398V32.551c0-1.48.436-2.684 1.303-3.616.871-.933 1.977-1.396 3.322-1.396 1.357 0 2.465.466 3.322 1.396.857.932 1.286 2.137 1.286 3.616v10.847h3.314V33.162c0-2.73-.718-4.89-2.152-6.486-1.433-1.595-3.358-2.392-5.77-2.392-2.411 0-4.342.797-5.79 2.392-1.447 1.596-2.171 3.756-2.171 6.486v10.236h3.336zm-7.33 0v-7.881c0-1.683-.079-2.951-.238-3.8-.158-.848-.421-1.63-.791-2.342-.8-1.581-1.943-2.826-3.427-3.73-1.484-.906-3.124-1.358-4.913-1.358-2.717 0-4.959.915-6.723 2.745-1.764 1.83-2.646 4.15-2.646 6.956 0 1.708.356 3.263 1.066 4.659.709 1.395 1.738 2.56 3.084 3.492.71.498 1.504.883 2.381 1.158.876.275 1.758.411 2.646.411.927 0 1.812-.104 2.657-.315.845-.212 1.648-.533 2.409-.967v-3.617c-.775.588-1.547 1.02-2.313 1.3-.769.28-1.558.42-2.372.42-1.789 0-3.262-.62-4.418-1.856-1.157-1.237-1.733-2.826-1.733-4.764 0-1.899.562-3.454 1.685-4.659 1.122-1.204 2.561-1.806 4.314-1.806 1.764 0 3.2.608 4.302 1.827 1.106 1.219 1.657 2.809 1.657 4.775V43.4h3.373v-.003zM314 33.831c0 3.214.8 5.612 2.4 7.193 1.6 1.581 4.023 2.372 7.274 2.372h4.323v-3.368h-4.953c-1.739 0-3.079-.484-4.018-1.454-.938-.97-1.407-2.354-1.407-4.152V16H314v17.831z"/>
    <path fill="#000" d="M77.847 25c.253 0 .46.087.62.26.16.16.24.367.24.62v12.14c0 .28-.094.513-.28.7-.174.187-.4.28-.68.28-.147 0-.294-.02-.44-.06-.134-.053-.24-.127-.32-.22l-7.86-10.24v9.64c0 .254-.087.467-.26.64-.16.16-.367.24-.62.24-.254 0-.46-.08-.62-.24-.16-.173-.24-.386-.24-.64V25.96c0-.28.086-.507.26-.68.186-.187.413-.28.68-.28.16 0 .313.034.46.1.146.053.26.133.34.24l7.84 10.26v-9.72c0-.253.08-.46.24-.62.173-.173.386-.26.64-.26zM90.295 28.38c.28 0 .507.094.68.28.187.174.28.407.28.7v8.68c0 .267-.093.493-.28.68-.173.187-.4.28-.68.28s-.507-.087-.68-.26c-.173-.187-.26-.42-.26-.7v-.52c-.347.467-.82.867-1.42 1.2-.6.32-1.247.48-1.94.48-.907 0-1.733-.233-2.48-.7-.733-.467-1.313-1.113-1.74-1.94-.413-.84-.62-1.78-.62-2.82 0-1.04.207-1.973.62-2.8.427-.84 1.007-1.493 1.74-1.96.733-.466 1.54-.7 2.42-.7.707 0 1.36.147 1.96.44.613.294 1.1.667 1.46 1.12v-.48c0-.28.087-.513.26-.7.173-.186.4-.28.68-.28zm-4.08 9.06c.627 0 1.18-.16 1.66-.48.493-.32.873-.76 1.14-1.32.28-.56.42-1.193.42-1.9 0-.693-.14-1.32-.42-1.88-.267-.56-.647-1-1.14-1.32-.48-.333-1.033-.5-1.66-.5s-1.187.16-1.68.48c-.48.32-.86.76-1.14 1.32-.267.56-.4 1.193-.4 1.9 0 .707.133 1.34.4 1.9.28.56.66 1 1.14 1.32.493.32 1.053.48 1.68.48zM106.1 28.34c2.334 0 3.5 1.454 3.5 4.36v5.34c0 .28-.086.514-.26.7-.173.173-.4.26-.68.26s-.513-.093-.7-.28c-.173-.187-.26-.413-.26-.68v-5.32c0-1.746-.733-2.62-2.2-2.62-.52 0-.993.12-1.42.36-.413.227-.74.54-.98.94-.226.4-.34.84-.34 1.32v5.32c0 .267-.093.493-.28.68-.173.187-.4.28-.68.28s-.506-.087-.68-.26c-.173-.187-.26-.42-.26-.7V32.7c0-.787-.166-1.413-.5-1.88-.333-.48-.886-.72-1.66-.72-.787 0-1.44.253-1.96.76-.506.494-.76 1.107-.76 1.84v5.34c0 .267-.093.493-.28.68-.173.187-.4.28-.68.28s-.507-.087-.68-.26c-.173-.187-.26-.42-.26-.7v-8.56c0-.267.087-.493.26-.68.187-.187.413-.28.68-.28.28 0 .507.093.68.28.187.187.28.413.28.68v.7c.347-.52.807-.953 1.38-1.3.587-.36 1.22-.54 1.9-.54 1.654 0 2.727.733 3.22 2.2.294-.56.78-1.066 1.46-1.52.68-.453 1.4-.68 2.16-.68zM121.64 33.36c-.014.24-.114.447-.3.62-.187.16-.407.24-.66.24h-7.04c.093.974.46 1.754 1.1 2.34.653.587 1.446.88 2.38.88.64 0 1.16-.093 1.56-.28.4-.186.753-.426 1.06-.72.2-.12.393-.18.58-.18.226 0 .413.08.56.24.16.16.24.347.24.56 0 .28-.134.533-.4.76-.387.387-.9.713-1.54.98s-1.294.4-1.96.4c-1.08 0-2.034-.227-2.86-.68-.814-.453-1.447-1.087-1.9-1.9-.44-.813-.66-1.733-.66-2.76 0-1.12.226-2.1.68-2.94.466-.853 1.073-1.507 1.82-1.96.76-.453 1.573-.68 2.44-.68.853 0 1.653.22 2.4.66.746.44 1.346 1.047 1.8 1.82.453.773.686 1.64.7 2.6zm-4.9-3.32c-.747 0-1.394.213-1.94.64-.547.413-.907 1.06-1.08 1.94h5.9v-.16c-.067-.707-.387-1.287-.96-1.74-.56-.453-1.2-.68-1.92-.68zM128.406 28.28c1.053 0 1.926.167 2.62.5.706.333 1.06.76 1.06 1.28 0 .227-.074.434-.22.62-.147.174-.334.26-.56.26-.174 0-.314-.027-.42-.08-.094-.053-.227-.14-.4-.26-.08-.08-.207-.173-.38-.28-.16-.08-.387-.146-.68-.2-.294-.053-.56-.08-.8-.08-.694 0-1.307.16-1.84.48-.534.32-.947.767-1.24 1.34-.294.56-.44 1.187-.44 1.88 0 .707.14 1.34.42 1.9.293.56.7 1 1.22 1.32.52.32 1.113.48 1.78.48.693 0 1.253-.106 1.68-.32.093-.053.22-.14.38-.26.133-.106.246-.187.34-.24.106-.053.233-.08.38-.08.266 0 .473.087.62.26.16.16.24.373.24.64 0 .28-.18.56-.54.84-.347.267-.82.487-1.42.66-.587.174-1.22.26-1.9.26-1.014 0-1.907-.233-2.68-.7-.774-.48-1.374-1.133-1.8-1.96-.414-.84-.62-1.773-.62-2.8 0-1.026.22-1.953.66-2.78.44-.84 1.053-1.493 1.84-1.96.786-.48 1.686-.72 2.7-.72zM139.339 28.34c2.347 0 3.52 1.454 3.52 4.36v5.34c0 .267-.093.493-.28.68-.173.187-.4.28-.68.28-.266 0-.493-.093-.68-.28-.173-.187-.26-.413-.26-.68V32.7c0-1.733-.733-2.6-2.2-2.6-.786 0-1.44.253-1.96.76-.52.494-.78 1.107-.78 1.84v5.34c0 .267-.093.493-.28.68-.173.187-.4.28-.68.28s-.506-.087-.68-.26c-.173-.187-.26-.42-.26-.7V25.16c0-.267.087-.493.26-.68.187-.186.414-.28.68-.28.28 0 .507.094.68.28.187.187.28.413.28.68v5.06c.334-.52.8-.96 1.4-1.32.6-.373 1.24-.56 1.92-.56zM154.901 33.36c-.013.24-.113.447-.3.62-.186.16-.406.24-.66.24h-7.04c.094.974.46 1.754 1.1 2.34.654.587 1.447.88 2.38.88.64 0 1.16-.093 1.56-.28.4-.186.754-.426 1.06-.72.2-.12.394-.18.58-.18.227 0 .414.08.56.24.16.16.24.347.24.56 0 .28-.133.533-.4.76-.386.387-.9.713-1.54.98s-1.293.4-1.96.4c-1.08 0-2.033-.227-2.86-.68-.813-.453-1.446-1.087-1.9-1.9-.44-.813-.66-1.733-.66-2.76 0-1.12.227-2.1.68-2.94.467-.853 1.074-1.507 1.82-1.96.76-.453 1.574-.68 2.44-.68.854 0 1.654.22 2.4.66.747.44 1.347 1.047 1.8 1.82.454.773.687 1.64.7 2.6zm-4.9-3.32c-.746 0-1.393.213-1.94.64-.546.413-.906 1.06-1.08 1.94h5.9v-.16c-.066-.707-.386-1.287-.96-1.74-.56-.453-1.2-.68-1.92-.68zM161.668 28.28c1.053 0 1.926.167 2.62.5.706.333 1.06.76 1.06 1.28 0 .227-.074.434-.22.62-.147.174-.334.26-.56.26-.174 0-.314-.027-.42-.08-.094-.053-.227-.14-.4-.26-.08-.08-.207-.173-.38-.28-.16-.08-.387-.146-.68-.2-.294-.053-.56-.08-.8-.08-.694 0-1.307.16-1.84.48-.534.32-.947.767-1.24 1.34-.294.56-.44 1.187-.44 1.88 0 .707.14 1.34.42 1.9.293.56.7 1 1.22 1.32.52.32 1.113.48 1.78.48.693 0 1.253-.106 1.68-.32.093-.053.22-.14.38-.26.133-.106.246-.187.34-.24.106-.053.233-.08.38-.08.266 0 .473.087.62.26.16.16.24.373.24.64 0 .28-.18.56-.54.84-.347.267-.82.487-1.42.66-.587.174-1.22.26-1.9.26-1.014 0-1.907-.233-2.68-.7-.774-.48-1.374-1.133-1.8-1.96-.414-.84-.62-1.773-.62-2.8 0-1.026.22-1.953.66-2.78.44-.84 1.053-1.493 1.84-1.96.786-.48 1.686-.72 2.7-.72zM175.941 37.34c.2.213.3.447.3.7 0 .267-.107.493-.32.68-.2.174-.413.26-.64.26-.293 0-.527-.106-.7-.32l-3.94-4.18-1.2 1.08v2.48c0 .267-.093.493-.28.68-.173.187-.393.28-.66.28-.28 0-.513-.093-.7-.28-.173-.187-.26-.413-.26-.68V25.16c0-.267.087-.493.26-.68.187-.186.42-.28.7-.28.267 0 .487.094.66.28.187.187.28.413.28.68v8.12l4.9-4.5c.227-.2.46-.3.7-.3.227 0 .433.1.62.3.187.187.28.387.28.6 0 .267-.127.507-.38.72l-3.46 3.08 3.84 4.16zM187.225 33.36c-.013.24-.113.447-.299.62-.187.16-.407.24-.66.24h-7.041c.094.974.461 1.754 1.101 2.34.653.587 1.446.88 2.38.88.64 0 1.16-.093 1.56-.28.4-.186.753-.426 1.06-.72.199-.12.393-.18.58-.18.226 0 .413.08.559.24.16.16.241.347.241.56 0 .28-.134.533-.401.76-.386.387-.899.713-1.539.98-.64.267-1.294.4-1.961.4-1.08 0-2.033-.227-2.86-.68-.813-.453-1.446-1.087-1.899-1.9-.441-.813-.661-1.733-.661-2.76 0-1.12.227-2.1.681-2.94.466-.853 1.073-1.507 1.819-1.96.761-.453 1.574-.68 2.441-.68.853 0 1.653.22 2.399.66.747.44 1.347 1.047 1.8 1.82.454.773.687 1.64.7 2.6zm-4.899-3.32c-.747 0-1.394.213-1.941.64-.546.413-.906 1.06-1.08 1.94h5.901v-.16c-.067-.707-.387-1.287-.961-1.74-.559-.453-1.199-.68-1.919-.68zM194.652 28.28c.346 0 .646.093.9.28.253.174.38.393.38.66 0 .32-.087.567-.26.74-.16.16-.36.24-.6.24-.12 0-.3-.04-.54-.12-.28-.093-.5-.14-.66-.14-.414 0-.82.147-1.22.44-.387.28-.707.674-.96 1.18-.24.494-.36 1.047-.36 1.66v4.82c0 .267-.094.493-.28.68-.174.187-.4.28-.68.28s-.507-.087-.68-.26c-.174-.187-.26-.42-.26-.7v-8.56c0-.267.086-.493.26-.68.186-.187.413-.28.68-.28.28 0 .506.093.68.28.186.187.28.413.28.68v1.02c.293-.653.733-1.18 1.32-1.58.586-.413 1.253-.627 2-.64z"/>
    <path fill="url(#paint0_linear)" d="M14.28 14.28c1.39-1.391 2.841-2.722 4.353-3.992l.181-.153.182-.15c5.242-4.347 12.835-4.347 18.077 0 1.643 1.36 3.215 2.793 4.717 4.295 1.39 1.39 2.721 2.842 3.992 4.353l.153.182.15.182c4.347 5.242 4.347 12.835 0 18.077-1.361 1.642-2.793 3.214-4.295 4.717-1.39 1.39-2.842 2.721-4.353 3.992l-.182.152-.182.151c-5.242 4.346-12.835 4.346-18.077 0-1.642-1.361-3.214-2.793-4.717-4.295-1.39-1.391-2.721-2.842-3.992-4.354l-.152-.182-.151-.181c-4.347-5.242-4.347-12.835 0-18.077 1.361-1.643 2.793-3.215 4.295-4.717z"/>
    <path fill="url(#paint1_linear)" d="M37.905 8.321c1.794 1.488 3.51 3.051 5.151 4.692 1.519 1.518 2.972 3.103 4.36 4.754l.166.198.165.198c4.746 5.725 4.746 14.017 0 19.742-1.487 1.793-3.05 3.51-4.69 5.15-1.52 1.52-3.104 2.973-4.755 4.36l-.198.167-.199.165c-5.724 4.746-14.016 4.746-19.741 0-1.794-1.487-3.51-3.051-5.15-4.691-1.52-1.52-2.973-3.104-4.36-4.755l-.167-.198-.165-.198c-4.746-5.725-4.746-14.017 0-19.742 1.487-1.793 3.05-3.51 4.691-5.15 1.519-1.52 3.103-2.972 4.754-4.36l.199-.166.198-.166c5.725-4.746 14.017-4.746 19.741 0zM21.91 12.618l-.109.089-.191.16-.184.153-.19.161c-1.455 1.232-2.852 2.518-4.194 3.86-1.515 1.515-2.96 3.102-4.334 4.76-2.968 3.578-2.997 8.747-.09 12.358l.09.11.159.19.153.183.162.192c1.232 1.453 2.518 2.85 3.86 4.193 1.515 1.515 3.101 2.96 4.758 4.334 3.58 2.967 8.749 2.997 12.36.089l.108-.089.192-.16.183-.153.191-.161c.23-.194.496-.426.8-.696 1.07-.945 1.169-2.578.224-3.646-.035-.04-.071-.078-.108-.115l-.671-.67c-.342-.342-.87-.409-1.286-.164-.673.397-1.237.687-1.693.87l-.042.017-.081.031c-1.25.469-2.58.712-3.942.712-6.204 0-11.233-5.03-11.233-11.233s5.03-11.232 11.233-11.232c1.062 0 1.922.864 1.922 1.929 0 1.042-.825 1.894-1.861 1.928h-.032l-.155.002c-4.02.065-7.26 3.342-7.26 7.373 0 4.073 3.306 7.375 7.386 7.375s7.386-3.302 7.386-7.375c0-.74-.11-1.468-.323-2.165l-.026-.084-5.97 5.938c-.69.683-1.78.727-2.527.106l-.026-.021-.024-.021-3.553-3.17c-.78-.696-.851-1.896-.16-2.681.675-.768 1.832-.856 2.619-.202l.025.02.024.022 2.233 1.992 8.344-8.305c.727-.72 1.889-.725 2.623-.022l.023.023.024.023c.713.731.72 1.897.02 2.641l-.024.024-.02.022-.695.69.032.062c.78 1.526 1.2 3.21 1.226 4.938v.17c0 1.37-.244 2.705-.717 3.96-.173.46-.467 1.043-.882 1.752-.238.408-.177.923.147 1.264l.018.019.671.67c1.009 1.01 2.644 1.01 3.653 0 .038-.038.076-.077.111-.118.44-.497.804-.922 1.094-1.272 2.968-3.58 2.998-8.748.09-12.359l-.09-.109-.159-.19-.153-.184-.162-.191c-1.231-1.454-2.518-2.852-3.86-4.194-1.515-1.515-3.1-2.96-4.758-4.334-3.58-2.967-8.748-2.997-12.36-.089z"/>
    <path fill="#FFA133" d="M195 61c0 1.105-.895 2-2 2s-2-.895-2-2 .895-2 2-2 2 .895 2 2zM202 72c0 1.105-.895 2-2 2s-2-.895-2-2 .895-2 2-2 2 .895 2 2zM215 82c0 1.105-.895 2-2 2s-2-.895-2-2 .895-2 2-2 2 .895 2 2zM233 89c0 1.105-.895 2-2 2s-2-.895-2-2 .895-2 2-2 2 .895 2 2zM250 93c0 1.105-.895 2-2 2s-2-.895-2-2 .895-2 2-2 2 .895 2 2zM269 93c0 1.105-.895 2-2 2s-2-.895-2-2 .895-2 2-2 2 .895 2 2zM284 89c0 1.105-.895 2-2 2s-2-.895-2-2 .895-2 2-2 2 .895 2 2zM299 82c0 1.105-.895 2-2 2s-2-.895-2-2 .895-2 2-2 2 .895 2 2zM313 72c0 1.105-.895 2-2 2s-2-.895-2-2 .895-2 2-2 2 .895 2 2zM324 62c0 1.105-.895 2-2 2s-2-.895-2-2 .895-2 2-2 2 .895 2 2z"/>
    <path fill="#C4C4C4" fill-opacity=".51" d="M204.824 129.209c1.41-1.107 3.15-1.709 4.943-1.709h90.748c1.619 0 3.199.491 4.533 1.408L311 133H200l4.824-3.791z"/>
    <defs>
        <linearGradient id="paint0_linear" x1="28.035" x2="27.428" y1=".525" y2="43.58" gradientUnits="userSpaceOnUse">
            <stop stop-color="#FAD961"/>
            <stop offset="1" stop-color="#FF8A00"/>
        </linearGradient>
        <linearGradient id="paint1_linear" x1="28.035" x2="28.035" y1="4.762" y2="51.306" gradientUnits="userSpaceOnUse">
            <stop stop-color="#FDFDFD"/>
            <stop offset="1" stop-color="#F8F6F6"/>
        </linearGradient>
    </defs>
</svg>
