<svg xmlns="http://www.w3.org/2000/svg" width="192" height="160" viewBox="0 0 192 160">
  <g fill="none" fill-rule="evenodd">
    <path fill="#E4E4E4" fill-rule="nonzero" d="M52.1299391 82.5070558C51.4557345 83.6970466 50.8356204 84.910626 50.270258 86.1452365 50.0403143 86.6473763 50.2609728 87.2408472 50.7631125 87.4707909 51.2652523 87.7007346 51.8587232 87.4800761 52.0886669 86.9779364 52.6301584 85.7954539 53.2241556 84.632986 53.8700609 83.4929442 54.1423065 83.0124228 53.9734656 82.4021847 53.4929442 82.1299391 53.0124228 81.8576935 52.4021847 82.0265344 52.1299391 82.5070558zM48.0815798 91.8878344C47.6800212 93.1919914 47.3361076 94.5111941 47.0502109 95.8421318 46.9342214 96.3820993 47.2779234 96.9138575 47.8178908 97.0298471 48.3578583 97.1458366 48.8896165 96.8021346 49.0056061 96.2621672 49.2793226 94.9879318 49.6085786 93.7249539 49.9930227 92.4763804 50.1555451 91.94855 49.8594046 91.3889084 49.3315742 91.226386 48.8037438 91.0638635 48.2441023 91.3600041 48.0815798 91.8878344zM46.1548427 101.922006C46.0446214 103.280497 45.9932923 104.642936 46.0007008 106.005438 46.0037037 106.557714 46.4538467 107.002988 47.0061233 107.000001 47.5583998 106.996983 48.0036741 106.54684 48.0006712 105.994563 47.9935756 104.689597 48.042735 103.384749 48.1482921 102.083745 48.1929551 101.533269 47.7829126 101.050814 47.2324368 101.006151 46.6819609 100.961488 46.1995056 101.37153 46.1548427 101.922006zM46.4277595 112.106827C46.6101438 113.457358 46.8504265 114.799329 47.1477863 116.128632 47.2683506 116.667596 47.8030043 117.006776 48.3419688 116.886212 48.8809333 116.765648 49.2201136 116.230994 49.0995493 115.69203 48.8146808 114.418568 48.5844904 113.132962 48.4097677 111.839164 48.3358547 111.291848 47.8322486 110.908079 47.2849322 110.981992 46.7376157 111.055905 46.3538465 111.559511 46.4277595 112.106827zM51.5465631 124.883021C51.8307066 125.494508 52.12806 126.099673 52.4384254 126.698054 52.5655687 126.943185 52.8673567 127.038833 53.1124876 126.911689 53.3576186 126.784546 53.4532664 126.482758 53.3261231 126.237627 53.0224351 125.65212 52.7314749 125.059967 52.4534369 124.461619 52.3370698 124.211193 52.039725 124.102516 51.7892987 124.218883 51.5388725 124.33525 51.4301961 124.632595 51.5465631 124.883021zM53.4080137 128.471786C53.7442289 129.056202 54.0931388 129.633163 54.4545247 130.202237 54.6025595 130.435347 54.9115384 130.504314 55.1446485 130.356279 55.3777586 130.208244 55.4467258 129.899265 55.298691 129.666155 54.9451244 129.109394 54.6037584 128.544909 54.2748073 127.973119 54.1371042 127.733761 53.8314354 127.651353 53.592077 127.789056 53.3527185 127.926759 53.2703106 128.232428 53.4080137 128.471786zM55.5805943 131.892099C55.9665376 132.444507 56.3645848 132.988415 56.774503 133.523428 56.9424501 133.742628 57.2562943 133.784176 57.4754938 133.616229 57.6946932 133.448282 57.7362414 133.134437 57.5682944 132.915238 57.167294 132.391864 56.7779011 131.859782 56.4003434 131.319376 56.2421904 131.093009 55.930475 131.03771 55.7041075 131.195863 55.47774 131.354016 55.4224413 131.665732 55.5805943 131.892099zM58.0557617 135.120601C58.4890521 135.636691 58.9338092 136.143331 59.3897919 136.640163 59.5765111 136.84361 59.8928031 136.85717 60.0962497 136.670451 60.2996964 136.483732 60.3132566 136.16744 60.1265374 135.963993 59.6805129 135.478011 59.2454657 134.982432 58.8216311 134.477605 58.6440726 134.266116 58.3286873 134.23861 58.1171983 134.416168 57.9057094 134.593727 57.8782033 134.909112 58.0557617 135.120601zM60.7792448 138.088979C61.2559755 138.564732 61.7434832 139.030228 62.2415254 139.485151 62.4454142 139.671387 62.7616731 139.657077 62.9479094 139.453188 63.1341457 139.249299 63.1198356 138.93304 62.9159467 138.746804 62.4287883 138.301823 61.9519359 137.846501 61.4856255 137.381147 61.2901631 137.186085 60.9735808 137.18641 60.7785191 137.381873 60.5834575 137.577335 60.5837824 137.893918 60.7792448 138.088979zM63.7799261 140.828661C64.2967427 141.260083 64.8236063 141.680574 65.3602786 142.08986 65.5798537 142.257315 65.8936041 142.215064 66.0610598 141.995489 66.2285156 141.775914 66.1862645 141.462164 65.9666895 141.294708 65.4416975 140.89433 64.9263107 140.482999 64.4207595 140.060981 64.2087705 139.88402 63.893464 139.912416 63.7165028 140.124405 63.5395415 140.336394 63.5679371 140.6517 63.7799261 140.828661zM67.0181512 143.296793C67.5707635 143.680595 68.1326636 144.052954 68.7036228 144.413633 68.9370846 144.561113 69.2458985 144.49141 69.393378 144.257948 69.5408576 144.024487 69.4711552 143.715673 69.2376934 143.568193 68.6790344 143.215284 68.1292601 142.85096 67.5885906 142.475453 67.361784 142.31793 67.0502236 142.374096 66.8927011 142.600903 66.7351786 142.82771 66.7913445 143.13927 67.0181512 143.296793zM70.3980137 145.434348C70.9844616 145.770919 71.5766674 146.093877 72.1743253 146.403138 72.4195784 146.530046 72.7212742 146.434108 72.8481819 146.188855 72.9750896 145.943602 72.8791518 145.641906 72.6338988 145.514999 72.0491196 145.212401 71.4696467 144.896387 70.8957766 144.567035 70.6562746 144.429582 70.350692 144.512308 70.2132385 144.75181 70.0757851 144.991312 70.1585118 145.296895 70.3980137 145.434348zM73.9878586 147.291838C74.6004751 147.575561 75.2181203 147.845215 75.8404498 148.100728 76.0958996 148.205609 76.3880054 148.083548 76.4928863 147.828099 76.5977673 147.572649 76.4757072 147.280543 76.2202574 147.175662 75.6115333 146.925736 75.0073723 146.661968 74.4081091 146.38443 74.1575352 146.268381 73.8603287 146.377435 73.7442797 146.628009 73.6282308 146.878582 73.7372847 147.175789 73.9878586 147.291838zM77.7385843 148.83103C78.3739475 149.05933 79.0134891 149.273157 79.6568244 149.472449 79.9206003 149.554162 80.2006738 149.40657 80.2823862 149.142794 80.3640986 148.879018 80.216507 148.598945 79.9527311 148.517232 79.3235753 148.322333 78.6981202 148.113216 78.0767398 147.889939 77.8168649 147.79656 77.530496 147.931532 77.4371169 148.191407 77.3437378 148.451282 77.4787094 148.737651 77.7385843 148.83103zM81.629138 150.034838C82.2823478 150.205199 82.9387554 150.360787 83.5979388 150.50156 83.8679917 150.559232 84.133665 150.387063 84.1913367 150.11701 84.2490083 149.846957 84.0768393 149.581283 83.8067864 149.523612 83.1621752 149.385951 82.5202768 149.233802 81.8815023 149.067206 81.6142981 148.997518 81.3411925 149.157636 81.271504 149.42484 81.2018156 149.692044 81.3619338 149.96515 81.629138 150.034838zM85.5665908 150.876582C86.2319927 150.988124 86.8995158 151.084719 87.5687058 151.166351 87.8428163 151.199789 88.0921333 151.004685 88.1255709 150.730574 88.1590086 150.456464 87.9639048 150.207147 87.6897943 150.173709 87.0353865 150.093881 86.3826126 149.99942 85.731916 149.890342 85.4595736 149.844689 85.2017871 150.028457 85.1561338 150.300799 85.1104806 150.573142 85.2942484 150.830928 85.5665908 150.876582zM89.6021441 151.367976C90.2740812 151.419336 90.9469684 151.455702 91.6203258 151.477091 91.8963289 151.485857 92.1271806 151.269219 92.1359474 150.993216 92.1447141 150.717213 91.9280762 150.486361 91.652073 150.477595 90.9935449 150.456678 90.3354835 150.421112 89.6783575 150.370884 89.4030183 150.349838 89.1627508 150.555984 89.141705 150.831323 89.1206593 151.106662 89.3268049 151.34693 89.6021441 151.367976zM93.6737766 151.495908C94.3480379 151.486865 95.0220172 151.46284 95.6952143 151.42388 95.9708955 151.407926 96.1814456 151.171508 96.1654912 150.895827 96.1495368 150.620146 95.9131196 150.409596 95.6374385 150.42555 94.979009 150.463655 94.3198218 150.487153 93.6603661 150.495998 93.3842485 150.499701 93.1634131 150.72654 93.1671163 151.002658 93.1708195 151.278775 93.3976591 151.499611 93.6737766 151.495908zM97.6624675 151.267289C98.3331379 151.199292 99.0022794 151.116455 99.6693822 151.018861 99.9426162 150.978888 100.131711 150.724983 100.091738 150.45175 100.051765 150.178516 99.7978611 149.98942 99.5246272 150.029393 98.872106 150.124854 98.2175965 150.20588 97.561598 150.272389 97.286864 150.300244 97.0867286 150.54554 97.1145829 150.820274 97.1424373 151.095008 97.3877336 151.295143 97.6624675 151.267289zM101.677657 150.679277C102.339334 150.552202 102.998203 150.410537 103.653754 150.254399 103.922382 150.190417 104.08828 149.920784 104.024299 149.652156 103.960317 149.383528 103.690684 149.217629 103.422056 149.281611 102.780798 149.434345 102.136297 149.572921 101.489053 149.697224 101.217867 149.749305 101.040247 150.011366 101.092328 150.282552 101.14441 150.553739 101.40647 150.731359 101.677657 150.679277zM105.629554 149.73708C106.277805 149.551844 106.921969 149.352328 107.561543 149.138684 107.823459 149.051193 107.964858 148.767943 107.877367 148.506027 107.789876 148.244111 107.506626 148.102711 107.24471 148.190202 106.619067 148.399193 105.988933 148.594363 105.354803 148.775565 105.089288 148.851435 104.93555 149.128183 105.011421 149.393698 105.087291 149.659213 105.364039 149.81295 105.629554 149.73708zM109.48495 148.448234C110.113987 148.206492 110.737696 147.950899 111.355593 147.681638 111.608743 147.571323 111.724534 147.276676 111.614218 147.023525 111.503903 146.770375 111.209255 146.654584 110.956105 146.7649 110.351674 147.028293 109.741555 147.278316 109.126223 147.514792 108.86846 147.613851 108.739806 147.903113 108.838866 148.160876 108.937925 148.418639 109.227187 148.547294 109.48495 148.448234zM113.215331 146.821292C113.820593 146.524695 114.419331 146.21474 115.011088 145.891634 115.253456 145.759298 115.342654 145.455542 115.210319 145.213174 115.077983 144.970807 114.774227 144.881608 114.531859 145.013944 113.95302 145.329997 113.367349 145.633187 112.775293 145.923313 112.527323 146.044826 112.424809 146.344352 112.546322 146.592322 112.667835 146.840292 112.967361 146.942805 113.215331 146.821292zM116.792824 144.866198C117.3692 144.517016 117.937936 144.155052 118.498607 143.780533 118.728231 143.627147 118.790036 143.316656 118.63665 143.087032 118.483265 142.857407 118.172773 142.795603 117.943149 142.948988 117.394742 143.315315 116.838444 143.669363 116.27467 144.010911 116.038489 144.153995 115.963019 144.46145 116.106104 144.697631 116.249188 144.933812 116.556643 145.009282 116.792824 144.866198zM120.155199 142.620124C120.698336 142.221456 121.232825 141.810643 121.758278 141.387922 121.973437 141.214829 122.007539 140.900089 121.834446 140.68493 121.661353 140.469771 121.346612 140.435669 121.131453 140.608762 120.617509 141.022225 120.094725 141.424041 119.563481 141.813978 119.34087 141.977377 119.292869 142.290299 119.456267 142.51291 119.619666 142.735521 119.932588 142.783522 120.155199 142.620124zM123.236623 140.146223C123.743226 139.702113 124.240304 139.246526 124.72751 138.779706 124.926899 138.58866 124.933662 138.27215 124.742615 138.072761 124.551569 137.873372 124.235059 137.866609 124.03567 138.057655 123.559127 138.514259 123.07293 138.959872 122.577419 139.394258 122.36977 139.576293 122.349004 139.892193 122.531039 140.099843 122.713073 140.307492 123.028973 140.328257 123.236623 140.146223zM126.165844 137.338788C126.630728 136.851871 127.085334 136.354221 127.529355 135.84608 127.711057 135.63814 127.689786 135.322273 127.481846 135.140571 127.273906 134.95887 126.958039 134.98014 126.776337 135.188081 126.341992 135.685148 125.8973 136.171945 125.442563 136.648235 125.251872 136.847964 125.259198 137.164462 125.458927 137.355153 125.658656 137.545844 125.975154 137.538517 126.165844 137.338788zM128.836318 134.28172C129.256252 133.75585 129.665298 133.220012 130.063187 132.674442 130.225903 132.451332 130.176945 132.138558 129.953835 131.975842 129.730725 131.813126 129.417951 131.862084 129.255235 132.085194 128.865937 132.618983 128.465738 133.143233 128.054898 133.657715 127.882583 133.873498 127.917822 134.188114 128.133605 134.360428 128.349389 134.532742 128.664004 134.497503 128.836318 134.28172zM131.227117 131.002762C131.599185 130.44266 131.959919 129.87338 132.309092 129.295145 132.451837 129.058759 132.375925 128.751412 132.139539 128.608667 131.903152 128.465923 131.595806 128.541834 131.453061 128.778221 131.111315 129.344156 130.758272 129.9013 130.394153 130.449435 130.241356 130.679452 130.303955 130.989783 130.533972 131.14258 130.763989 131.295377 131.07432 131.232778 131.227117 131.002762zM133.326799 127.543524L134.320705 125.807969C134.457935 125.568339 134.374923 125.262834 134.135293 125.125604 133.895663 124.988374 133.590157 125.071386 133.452927 125.311016L132.459022 127.046572C132.321792 127.286202 132.404804 127.591707 132.644434 127.728937 132.884064 127.866166 133.18957 127.783155 133.326799 127.543524zM135.314611 124.072414L136.308516 122.336859C136.445746 122.097229 136.362734 121.791724 136.123104 121.654494 135.883474 121.517264 135.577968 121.600276 135.440739 121.839906L134.446833 123.575461C134.309603 123.815091 134.392615 124.120597 134.632246 124.257826 134.871876 124.395056 135.177381 124.312044 135.314611 124.072414zM137.302422 120.601304L138.296328 118.865749C138.433557 118.626119 138.350545 118.320613 138.110915 118.183384 137.871285 118.046154 137.56578 118.129166 137.42855 118.368796L136.434644 120.104351C136.297415 120.343981 136.380427 120.649487 136.620057 120.786716 136.859687 120.923946 137.165192 120.840934 137.302422 120.601304zM139.290233 117.130194L140.284139 115.394638C140.421369 115.155008 140.338357 114.849503 140.098726 114.712273 139.859096 114.575044 139.553591 114.658056 139.416361 114.897686L138.422456 116.633241C138.285226 116.872871 138.368238 117.178376 138.607868 117.315606 138.847498 117.452836 139.153003 117.369824 139.290233 117.130194zM141.278044 113.659083L142.27195 111.923528C142.40918 111.683898 142.326168 111.378393 142.086538 111.241163 141.846908 111.103933 141.541402 111.186945 141.404173 111.426575L140.410267 113.162131C140.273037 113.401761 140.356049 113.707266 140.595679 113.844496 140.835309 113.981725 141.140815 113.898714 141.278044 113.659083zM143.265856 110.187973L144.259761 108.452418C144.396991 108.212788 144.313979 107.907283 144.074349 107.770053 143.834719 107.632823 143.529214 107.715835 143.391984 107.955465L142.398078 109.69102C142.260848 109.93065 142.34386 110.236156 142.583491 110.373385 142.823121 110.510615 143.128626 110.427603 143.265856 110.187973zM145.253667 106.716863L146.247573 104.981308C146.384802 104.741678 146.30179 104.436172 146.06216 104.298943 145.82253 104.161713 145.517025 104.244725 145.379795 104.484355L144.385889 106.21991C144.24866 106.45954 144.331672 106.765046 144.571302 106.902275 144.810932 107.039505 145.116437 106.956493 145.253667 106.716863zM147.241478 103.245753L148.235384 101.510197C148.372614 101.270567 148.289602 100.965062 148.049972 100.827832 147.810341 100.690603 147.504836 100.773615 147.367606 101.013245L146.373701 102.7488C146.236471 102.98843 146.319483 103.293935 146.559113 103.431165 146.798743 103.568395 147.104249 103.485383 147.241478 103.245753zM149.22929 99.7746424L150.223195 98.0390872C150.360425 97.7994571 150.277413 97.4939518 150.037783 97.356722 149.798153 97.2194923 149.492647 97.3025043 149.355418 97.5421344L148.361512 99.2776895C148.224282 99.5173197 148.307294 99.822825 148.546924 99.9600547 148.786555 100.097284 149.09206 100.014273 149.22929 99.7746424zM151.217101 96.3035321L152.211006 94.567977C152.348236 94.3283468 152.265224 94.0228415 152.025594 93.8856118 151.785964 93.7483821 151.480459 93.831394 151.343229 94.0710242L150.349323 95.8065793C150.212094 96.0462095 150.295105 96.3517148 150.534736 96.4889445 150.774366 96.6261742 151.079871 96.5431623 151.217101 96.3035321zM153.204912 92.8324219L154.198818 91.0968667C154.336047 90.8572366 154.253035 90.5517313 154.013405 90.4145015 153.773775 90.2772718 153.46827 90.3602838 153.33104 90.5999139L152.337135 92.335469C152.199905 92.5750992 152.282917 92.8806045 152.522547 93.0178342 152.762177 93.155064 153.067682 93.072052 153.204912 92.8324219zM155.20969 89.4143758C155.573072 88.8765905 155.969059 88.3663928 156.39534 87.8857885 156.578577 87.6792002 156.559647 87.3631842 156.353059 87.1799469 156.146471 86.9967095 155.830455 87.0156392 155.647218 87.2222274 155.191903 87.7355648 154.769036 88.2803967 154.381111 88.8545039 154.226506 89.0833098 154.286659 89.3941251 154.515464 89.5487295 154.74427 89.7033338 155.055086 89.6431817 155.20969 89.4143758zM157.787525 86.5134814C158.276971 86.0918783 158.793158 85.7040096 159.33271 85.3519129 159.563968 85.2010006 159.629101 84.8911906 159.478188 84.659933 159.327276 84.4286754 159.017466 84.3635426 158.786209 84.5144549 158.209609 84.890728 157.657958 85.3052448 157.134881 85.7558162 156.925658 85.9360386 156.902148 86.251747 157.08237 86.4609705 157.262593 86.670194 157.578301 86.6937039 157.787525 86.5134814zM161.025332 84.4015823C161.607992 84.1236533 162.208375 83.8846504 162.822275 83.6861103 163.085018 83.6011371 163.229129 83.3192569 163.144156 83.0565134 163.059183 82.7937699 162.777303 82.6496586 162.514559 82.7346319 161.858713 82.9467376 161.217301 83.2020735 160.594803 83.499006 160.345563 83.6178935 160.239892 83.9163195 160.358779 84.1655591 160.477667 84.4147987 160.776093 84.5204699 161.025332 84.4015823zM164.761717 83.2023782C165.397068 83.089375 166.039146 83.0186184 166.683558 82.9907624 166.959442 82.9788367 167.173423 82.7455202 167.161498 82.4696355 167.149572 82.1937507 166.916255 81.9797697 166.640371 81.9916954 165.951663 82.0214662 165.265514 82.0970795 164.586606 82.2178295 164.31473 82.2661851 164.133532 82.5257838 164.181887 82.7976594 164.230243 83.069535 164.489841 83.2507338 164.761717 83.2023782zM168.566737 83.0318422C169.208601 83.0877915 169.846584 83.1866748 170.476825 83.3283332 170.746245 83.3888904 171.013745 83.2195733 171.074302 82.9501527 171.13486 82.6807322 170.965542 82.4132323 170.696122 82.3526751 170.022155 82.2011886 169.339919 82.0954462 168.653575 82.0356198 168.378475 82.0116402 168.136024 82.215213 168.112045 82.4903122 168.088065 82.7654115 168.291638 83.0078627 168.566737 83.0318422zM172.374574 83.8941609C172.975648 84.1192295 173.564014 84.3850093 174.136794 84.6908844 174.38038 84.8209636 174.683295 84.7289485 174.813374 84.4853628 174.943453 84.241777 174.851438 83.9388617 174.607852 83.8087825 173.996156 83.4821252 173.36757 83.1981769 172.725241 82.9576606 172.466633 82.8608267 172.178491 82.9919699 172.081657 83.2505773 171.984823 83.5091848 172.115967 83.7973269 172.374574 83.8941609zM175.814081 85.7355616C176.339861 86.1140048 176.837699 86.5250834 177.305572 86.9663734 177.506458 87.1558452 177.822905 87.1465924 178.012377 86.9457068 178.201849 86.7448211 178.192596 86.4283738 177.99171 86.238902 177.491797 85.7673926 176.959907 85.3281959 176.398266 84.9239407 176.174143 84.7626226 175.861681 84.813536 175.700363 85.0376589 175.539045 85.2617819 175.589958 85.5742435 175.814081 85.7355616zM178.637758 88.4038322C179.043748 88.9056292 179.415968 89.4336195 179.752427 89.9843392 179.896393 90.219984 180.204128 90.2943044 180.439773 90.1503385 180.675418 90.0063727 180.749738 89.6986375 180.605772 89.4629927 180.246446 88.8748431 179.848872 88.3108883 179.415174 87.7748457 179.241484 87.5601681 178.92665 87.526941 178.711973 87.7006309 178.497295 87.8743207 178.464068 88.1891547 178.637758 88.4038322zM180.653069 91.7025633C180.914707 92.2926376 181.137847 92.8995622 181.321047 93.5191254 181.399349 93.7839338 181.677494 93.9351273 181.942303 93.8568257 182.207111 93.778524 182.358305 93.5003784 182.280003 93.2355701 182.084536 92.5745193 181.846438 91.9269126 181.567234 91.2972229 181.455303 91.0447829 181.159921 90.9308785 180.907481 91.0428102 180.655041 91.1547419 180.541137 91.4501234 180.653069 91.7025633zM181.759243 95.4744905C181.857919 96.1126275 181.915168 96.7566213 181.930421 97.4021557 181.936944 97.678221 182.166027 97.8967282 182.442092 97.8902053 182.718158 97.8836823 182.936665 97.6545992 182.930142 97.3785339 182.913866 96.6896843 182.85278 96.0025361 182.747498 95.3216759 182.705299 95.0487768 182.449862 94.8617572 182.176963 94.9039558 181.904064 94.9461544 181.717045 95.2015915 181.759243 95.4744905zM181.85565 99.2821592C181.789183 99.9236116 181.680798 100.560537 181.530694 101.189178 181.466561 101.457769 181.632307 101.727496 181.900899 101.791629 182.169491 101.855762 182.439218 101.690016 182.503351 101.421424 182.663631 100.750165 182.779359 100.070087 182.850325 99.3852282 182.878786 99.1105565 182.679194 98.8648183 182.404522 98.8363566 182.12985 98.8078949 181.884112 99.0074875 181.85565 99.2821592zM180.941753 103.082094C180.710124 103.681439 180.438732 104.267652 180.128197 104.837935 179.996138 105.080454 180.085684 105.384108 180.328203 105.516167 180.570721 105.648225 180.874376 105.558679 181.006434 105.316161 181.337696 104.707813 181.627297 104.082269 181.874518 103.442581 181.974063 103.185005 181.845954 102.895501 181.588378 102.795955 181.330803 102.69641 181.041299 102.824519 180.941753 103.082094zM179.073821 106.503811C178.691517 107.027662 178.277187 107.523048 177.833286 107.98793 177.642583 108.187647 177.649889 108.504145 177.849606 108.694848 178.049323 108.885551 178.365821 108.878245 178.556525 108.678528 179.030758 108.18188 179.47333 107.652727 179.881587 107.093314 180.044374 106.870256 179.995514 106.557466 179.772456 106.39468 179.549398 106.231893 179.236608 106.280752 179.073821 106.503811zM176.384945 109.313236C175.880039 109.716208 175.34948 110.084617 174.796786 110.416462 174.56004 110.558608 174.483351 110.865762 174.625497 111.102509 174.767643 111.339256 175.074797 111.415945 175.311543 111.273798 175.90216 110.919184 176.469151 110.525477 177.008741 110.094823 177.22457 109.922567 177.259893 109.607961 177.087637 109.392132 176.915381 109.176302 176.600775 109.140979 176.384945 109.313236zM173.073048 111.301447C172.48057 111.557533 171.871819 111.774111 171.25107 111.949752 170.98536 112.024935 170.830906 112.301284 170.906089 112.566994 170.981272 112.832705 171.257621 112.987158 171.523331 112.911975 172.186492 112.724334 172.836833 112.49296 173.469802 112.219372 173.72328 112.109811 173.839948 111.81551 173.730387 111.562032 173.620827 111.308554 173.326526 111.191886 173.073048 111.301447zM169.286679 112.3624C168.647558 112.45135 168.003289 112.497783 167.35823 112.501174 167.082091 112.502626 166.859414 112.727658 166.860858 113.003796 166.862317 113.279935 167.087349 113.502612 167.363487 113.501168 168.052964 113.497535 168.741527 113.44791 169.424527 113.352853 169.698033 113.314788 169.888895 113.062209 169.85083 112.788703 169.812764 112.515197 169.560186 112.324334 169.286679 112.3624zM165.485159 112.389383C164.846174 112.309353 164.21246 112.186529 163.587757 112.02116 163.32081 111.950494 163.04712 112.109612 162.976455 112.37656 162.90579 112.643507 163.064908 112.917197 163.331855 112.987862 163.999893 113.164703 164.677583 113.29605 165.360885 113.381631 165.634886 113.415948 165.884828 113.221645 165.919146 112.947644 165.953463 112.673642 165.759161 112.4237 165.485159 112.389383zM161.709758 111.38327C161.128461 111.140332 160.560356 110.858624 160.008034 110.538756 159.964369 110.513378 159.964369 110.513378 159.949727 110.504836 159.711228 110.365649 159.405054 110.446157 159.265867 110.684656 159.12668 110.923154 159.207188 111.229329 159.445686 111.368516 159.461509 111.377746 159.461509 111.377746 159.506281 111.403767 160.096461 111.74556 160.703165 112.046408 161.324154 112.305934 161.578941 112.412416 161.871807 112.29219 161.978288 112.037404 162.08477 111.782617 161.964545 111.489751 161.709758 111.38327zM158.283309 109.458189C157.738317 109.090535 157.207002 108.706061 156.689865 108.305323 156.471589 108.136177 156.157522 108.176005 155.988376 108.394281 155.819231 108.612557 155.859059 108.926624 156.077334 109.09577 156.611794 109.509932 157.16088 109.907264 157.724061 110.287189 157.952984 110.441621 158.263754 110.381235 158.418186 110.152313 158.572618 109.923391 158.512231 109.612621 158.283309 109.458189zM155.169092 107.043864C154.677642 106.607839 154.201464 106.156213 153.741086 105.689672 153.547126 105.493116 153.23055 105.491012 153.033995 105.684972 152.837439 105.878932 152.835334 106.195507 153.029294 106.392063 153.50519 106.874329 153.997418 107.341177 154.505425 107.791892 154.711988 107.975159 155.028006 107.956274 155.211273 107.749711 155.394539 107.543149 155.375654 107.22713 155.169092 107.043864zM152.384217 104.21857C151.955862 103.721537 151.544259 103.210649 151.14993 102.686727 150.98387 102.466094 150.670394 102.421853 150.449761 102.587913 150.229128 102.753972 150.184888 103.067448 150.350947 103.288081 150.758518 103.829595 151.183954 104.357653 151.626716 104.871403 151.806991 105.080582 152.122705 105.104013 152.331883 104.923738 152.541062 104.743463 152.564492 104.427749 152.384217 104.21857zM150.028002 101.089995C149.668861 100.541638 149.327786 99.9815585 149.005256 99.4106939 148.86942 99.1702707 148.564402 99.0854857 148.323979 99.2213212 148.083556 99.3571567 147.998771 99.6621747 148.134606 99.9025979 148.467877 100.492474 148.820324 101.071226 149.191452 101.637886 149.342748 101.868893 149.652666 101.933511 149.883673 101.782215 150.11468 101.630919 150.179298 101.321002 150.028002 101.089995zM148.079405 97.6367903C147.79534 97.0454789 147.530536 96.4448845 147.285403 95.8360424 147.182267 95.5798829 146.891001 95.4558324 146.634842 95.5589679 146.378682 95.6621034 146.254632 95.9533695 146.357767 96.209529 146.610998 96.8384834 146.884557 97.4589342 147.178023 98.0698135 147.297599 98.3187235 147.596316 98.4235694 147.845226 98.3039933 148.094136 98.1844173 148.198981 97.8857003 148.079405 97.6367903zM146.608647 93.9834416C146.403652 93.3601371 146.218857 92.7302025 146.054578 92.0947305 145.985463 91.8273774 145.712701 91.6666737 145.445348 91.7357888 145.177995 91.8049039 145.017291 92.0776653 145.086406 92.3450185 145.256089 93.0013899 145.446962 93.6520469 145.658704 94.295864 145.744977 94.5581836 146.027567 94.7008975 146.289887 94.6146244 146.552207 94.5283514 146.694921 94.2457612 146.608647 93.9834416zM145.628449 90.1982205C145.505149 89.5538421 145.402717 88.9055769 145.321359 88.2545306 145.287117 87.9805195 145.037229 87.7861481 144.763218 87.82039 144.489207 87.8546319 144.294835 88.1045204 144.329077 88.3785315 144.413112 89.0510008 144.518913 89.7205895 144.646269 90.386159 144.698166 90.6573807 144.960107 90.8351779 145.231328 90.7832802 145.50255 90.7313824 145.680347 90.4694423 145.628449 90.1982205zM145.139323 86.2707433C145.100858 85.6158512 145.083662 84.9598484 145.087825 84.3038091 145.089578 84.0276723 144.867145 83.8023985 144.591008 83.8006358 144.314872 83.7988936 144.089598 84.0213261 144.087845 84.2974629 144.083544 84.9751907 144.101309 85.6528645 144.141043 86.3293762 144.157234 86.6050435 144.393832 86.8153906 144.669499 86.7991996 144.945167 86.7830085 145.155514 86.5464106 145.139323 86.2707433zM145.1669 82.3032615C145.214524 81.6493334 145.283492 80.9969691 145.373794 80.34717 145.411804 80.0736561 145.220891 79.8211161 144.947377 79.7831061 144.673863 79.7450961 144.421323 79.9360097 144.383313 80.2095236 144.290008 80.8809332 144.218748 81.5549793 144.169541 82.2306253 144.149483 82.5060383 144.35649 82.7455647 144.631903 82.7656227 144.907315 82.7856806 145.146842 82.5786744 145.1669 82.3032615zM145.717136 78.3657411C145.850601 77.7241203 146.005167 77.0865252 146.180744 76.4538543 146.254587 76.1877683 146.098743 75.9122011 145.832657 75.8383577 145.566571 75.7645143 145.291004 75.9203577 145.217161 76.1864437 145.035729 76.8402131 144.876008 77.4990723 144.738093 78.1620879 144.681855 78.4324432 144.855432 78.6971988 145.125788 78.7534361 145.396143 78.8096733 145.660898 78.6360964 145.717136 78.3657411zM146.77199 74.5670168C146.988225 73.9490504 147.224975 73.3372297 147.482099 72.732332 147.590124 72.478196 147.471678 72.1846061 147.217542 72.0765807 146.963406 71.9685552 146.669816 72.0870013 146.561791 72.3411373 146.296141 72.9660935 146.051528 73.5982313 145.828106 74.23674 145.736903 74.4973864 145.874264 74.782617 146.13491 74.8738204 146.395556 74.9650239 146.680787 74.8276632 146.77199 74.5670168zM148.266125 71.0354062C148.521686 70.5242381 148.792259 70.0190357 149.07773 69.5202374 149.144103 69.4046761 149.144103 69.4046761 149.206828 69.2968466 149.346002 69.0583401 149.265477 68.75217 149.02697 68.6129964 148.788464 68.4738228 148.482294 68.554348 148.34312 68.7928545 148.278284 68.9043133 148.278284 68.9043133 148.209883 69.0234058 147.915039 69.5385803 147.635619 70.0603026 147.371681 70.588225 147.248196 70.8352187 147.348319 71.1355516 147.595312 71.2590373 147.842306 71.382523 148.142639 71.2823999 148.266125 71.0354062zM150.251907 67.6314395C150.619279 67.0860145 151.00319 66.5543937 151.403085 66.0370813 151.571973 65.8186055 151.531773 65.5045856 151.313297 65.3356983 151.094822 65.1668109 150.780802 65.2070103 150.611914 65.4254861 150.198706 65.9600205 149.802043 66.5092997 149.422502 67.0727921 149.268236 67.301826 149.328847 67.6125522 149.557881 67.7668184 149.786915 67.9210847 150.097641 67.8604735 150.251907 67.6314395zM152.663195 64.5138558C153.09872 64.0215622 153.549627 63.5447358 154.015227 63.0839081 154.211493 62.8896544 154.213124 62.5730761 154.01887 62.3768107 153.824616 62.1805453 153.508038 62.1789144 153.311773 62.3731681 152.830484 62.849523 152.364396 63.3424028 151.914224 63.8512521 151.731251 64.0580745 151.750585 64.374066 151.957408 64.557039 152.16423 64.740012 152.480222 64.7206782 152.663195 64.5138558zM155.485921 61.7235656C155.982746 61.2942683 156.493263 60.8820071 157.016645 60.4873084 157.237121 60.3210407 157.281066 60.007523 157.114798 59.787047 156.94853 59.566571 156.635013 59.5226265 156.414537 59.6888942 155.873477 60.0969243 155.345715 60.5231114 154.832109 60.9669093 154.623164 61.1474548 154.600141 61.463199 154.780687 61.6721439 154.961232 61.8810888 155.276977 61.9041111 155.485921 61.7235656zM158.612223 59.3645175C159.160936 59.0048081 159.721247 58.6635423 160.292209 58.3412066 160.532677 58.2054506 160.617563 57.9004607 160.481807 57.6599926 160.346052 57.4195244 160.041062 57.3346384 159.800593 57.4703943 159.210392 57.8035917 158.631192 58.1563618 158.063975 58.5282018 157.833033 58.6795963 157.768547 58.9895415 157.919941 59.2204837 158.071336 59.4514259 158.381281 59.5159121 158.612223 59.3645175zM162.066754 57.4167786C162.658279 57.1335244 163.258949 56.8699497 163.867718 56.6264679 164.124113 56.5239204 164.248831 56.2329397 164.146284 55.9765442 164.043737 55.7201488 163.752756 55.5954303 163.49636 55.6979778 162.867136 55.9496414 162.246276 56.2220751 161.634863 56.5148527 161.385803 56.634116 161.280582 56.932701 161.399846 57.181761 161.519109 57.430821 161.817694 57.5360419 162.066754 57.4167786zM165.681273 55.9684458C166.304954 55.7647644 166.935149 55.5817681 167.570751 55.4197728 167.838339 55.3515729 167.999975 55.0793629 167.931775 54.8117748 167.863575 54.5441868 167.591365 54.3825508 167.323777 54.4507507 166.666821 54.6181885 166.015458 54.8073316 165.370829 55.0178541 165.108331 55.1035808 164.965029 55.3858732 165.050755 55.6483719 165.136482 55.9108705 165.418775 56.0541725 165.681273 55.9684458zM169.50985 54.9939249C170.154988 54.8746714 170.80384 54.7768275 171.455285 54.7005948 171.729555 54.6684994 171.925877 54.4201405 171.893782 54.1458696 171.861686 53.8715988 171.613328 53.6752768 171.339057 53.7073723 170.665652 53.7861747 169.994941 53.8873149 169.32808 54.0105838 169.056538 54.0607782 168.8771 54.3215972 168.927294 54.5931393 168.977489 54.8646815 169.238308 55.0441193 169.50985 54.9939249zM173.44008 54.5357496C174.095071 54.5034954 174.750964 54.4930454 175.406671 54.5044858 175.682771 54.509303 175.9105 54.2893846 175.915317 54.0132843 175.920134 53.7371839 175.700216 53.5094552 175.424116 53.504638 174.746176 53.4928097 174.068062 53.5036137 173.390896 53.5369599 173.115088 53.5505417 172.902511 53.7851386 172.916093 54.0609468 172.929675 54.336755 173.164272 54.5493314 173.44008 54.5357496zM177.406515 54.6074884C178.059592 54.6634668 178.710869 54.7413002 179.359336 54.8409714 179.632274 54.8829226 179.887541 54.6956715 179.929492 54.4227343 179.971444 54.1497971 179.784192 53.8945296 179.511255 53.8525784 178.84069 53.7495107 178.167228 53.669026 177.491917 53.6111418 177.216783 53.5875588 176.974626 53.7914807 176.951043 54.0666143 176.92746 54.3417478 177.131382 54.5839054 177.406515 54.6074884zM181.335946 55.2145862C181.974864 55.3582142 182.609517 55.5233682 183.239007 55.7099497 183.503764 55.788424 183.782009 55.6374119 183.860483 55.3726546 183.938957 55.1078974 183.787945 54.8296533 183.523188 54.751179 182.872255 54.558242 182.215971 54.3874592 181.555271 54.2389345 181.285852 54.1783694 181.018348 54.3476788 180.957783 54.6170976 180.897218 54.8865164 181.066527 55.1540211 181.335946 55.2145862zM185.114364 56.3350919C185.727675 56.5626732 186.334631 56.8110962 186.934459 57.0802099 187.186406 57.1932463 187.482284 57.0806368 187.59532 56.8286896 187.708357 56.5767424 187.595747 56.2808648 187.3438 56.1678284 186.723762 55.8896477 186.096312 55.6328362 185.462254 55.3975568 185.203361 55.3014894 184.915609 55.4334858 184.819542 55.6923789 184.723474 55.9512721 184.85547 56.2390245 185.114364 56.3350919zM188.612475 57.8970034C188.993095 58.0971732 189.370274 58.3059546 189.743826 58.5232977 189.982508 58.6621698 190.288576 58.5812578 190.427448 58.3425757 190.56632 58.1038936 190.485408 57.7978254 190.246726 57.6589533 189.860844 57.4344358 189.471182 57.2187449 189.077936 57.011935 188.833531 56.8834015 188.531204 56.9773338 188.402671 57.2217387 188.274137 57.4661435 188.36807 57.7684698 188.612475 57.8970034z"/>
    <g transform="translate(2 4)">
      <path fill="#F2F2F2" d="M116.283103,100.348357 L147.229962,131.295655 L147.225906,131.299711 C149.54914,133.483833 151,136.585318 151,140.025674 C151,146.638912 145.638988,152 139.025844,152 C135.585536,152 132.484095,150.54912 130.300005,148.225852 L130.295948,148.229909 L99.1595536,117.093073 C89.0480227,123.811768 76.912214,127.726144 63.8621669,127.726144 C28.592066,127.726144 0,99.1336724 0,63.8630718 C0,28.5924712 28.592066,0 63.8621669,0 C99.1322678,0 127.724334,28.5924712 127.724334,63.8630718 C127.724334,77.4282233 123.495028,90.0055534 116.283103,100.348357 L116.283103,100.348357 Z M63.8621669,111.760376 C90.3147426,111.760376 111.758792,90.3160222 111.758792,63.8630718 C111.758792,37.4101213 90.3147426,15.9657679 63.8621669,15.9657679 C37.4095913,15.9657679 15.9655417,37.4101213 15.9655417,63.8630718 C15.9655417,90.3160222 37.4095913,111.760376 63.8621669,111.760376 Z"/>
      <path fill="#E4E4E4" fill-rule="nonzero" d="M147.229962,131.295655 C149.54914,133.483833 151,136.585318 151,140.025674 C151,146.638912 145.638988,152 139.025844,152 C135.585536,152 132.484095,150.54912 130.300005,148.225852 L99.1595536,117.093073 C89.0480227,123.811768 76.912214,127.726144 63.8621669,127.726144 C28.592066,127.726144 0,99.1336724 0,63.8630718 C0,28.5924712 28.592066,0 63.8621669,0 C99.1322678,0 127.724334,28.5924712 127.724334,63.8630718 C127.724334,77.4282233 123.495028,90.0055534 116.283103,100.348357 L147.229962,131.295655 Z M113.684591,100.578255 L114.642553,99.2044189 C121.81804,88.9138705 125.724334,76.6837232 125.724334,63.8630718 C125.724334,29.6970343 98.0276919,2 63.8621669,2 C29.6966419,2 2,29.6970343 2,63.8630718 C2,98.0291092 29.6966419,125.726144 63.8621669,125.726144 C76.2016631,125.726144 87.9977917,122.108349 98.0527008,115.427277 L99.4162073,114.521283 L130.295948,145.401462 L130.344337,145.353072 L131.757192,146.855959 C133.632017,148.850254 136.234561,150 139.025844,150 C144.534412,150 149,145.534349 149,140.025674 C149,137.234331 147.850264,134.631735 145.855992,132.756879 L144.353168,131.344043 L144.401555,131.295655 L113.684591,100.578255 Z M63.8621669,111.760376 C37.4095913,111.760376 15.9655417,90.3160222 15.9655417,63.8630718 C15.9655417,37.4101213 37.4095913,15.9657679 63.8621669,15.9657679 C90.3147426,15.9657679 111.758792,37.4101213 111.758792,63.8630718 C111.758792,90.3160222 90.3147426,111.760376 63.8621669,111.760376 Z M63.8621669,109.760376 C89.2101667,109.760376 109.758792,89.2114591 109.758792,63.8630718 C109.758792,38.5146845 89.2101667,17.9657679 63.8621669,17.9657679 C38.5141671,17.9657679 17.9655417,38.5146845 17.9655417,63.8630718 C17.9655417,89.2114591 38.5141671,109.760376 63.8621669,109.760376 Z"/>
      <path fill="#F2F2F2" fill-rule="nonzero" d="M56.5466359,42.0018179 C34.454277,42.0018179 16.5448815,59.9112031 16.5448815,82.0035493 C16.5448815,84.2127839 18.335821,86.0037225 20.5450569,86.0037225 C22.7542928,86.0037225 24.5452324,84.2127839 24.5452324,82.0035493 C24.5452324,64.3296724 38.8727488,50.0021642 56.5466359,50.0021642 C58.7558718,50.0021642 60.5468113,48.2112257 60.5468113,46.0019911 C60.5468113,43.7927565 58.7558718,42.0018179 56.5466359,42.0018179 Z" transform="rotate(-45 38.546 64.003)"/>
      <path fill="#F2F2F2" fill-rule="nonzero" d="M66.0047602,30.9219179 C61.9996773,26.8640129 57.1707528,23.6958926 51.8377285,21.6532815 C49.7746416,20.863095 47.461606,21.8949836 46.671419,23.9580694 C45.881232,26.0211551 46.9131212,28.3341893 48.9762082,29.1243759 C53.239328,30.757201 57.1036607,33.29248 60.3107177,36.5418341 C61.8626156,38.1141996 64.3953322,38.1307926 65.9676987,36.5788956 C67.5400651,35.0269986 67.5566581,32.4942834 66.0047602,30.9219179 Z" transform="rotate(-45 56.782 29.56)"/>
    </g>
    <g transform="rotate(45 -20.644 95.359)">
      <path fill="#E4E4E4" fill-rule="nonzero" d="M16.1274018,-0.706658568 C15.737125,-1.09743024 15.1039602,-1.09783146 14.7131885,-0.707554711 C14.3224168,-0.31727796 14.3220156,0.315886891 14.7122924,0.706658568 L21.1069519,7.10942742 L27.5016114,0.706658568 C27.8918881,0.315886891 27.8914869,-0.31727796 27.5007152,-0.707554711 C27.1099436,-1.09783146 26.4767787,-1.09743024 26.086502,-0.706658568 L21.1069519,4.2792063 L16.1274018,-0.706658568 Z"/>
      <path fill="#F2F2F2" d="M17.0855615,5.36865342 C17.0855615,3.14488436 18.8859993,1.34216336 21.1069519,1.34216336 C23.3279044,1.34216336 25.1283422,3.14488436 25.1283422,5.36865342 L25.1283422,24.1589404 C25.1283422,26.3827095 23.3279044,28.1854305 21.1069519,28.1854305 C18.8859993,28.1854305 17.0855615,26.3827095 17.0855615,24.1589404 L17.0855615,5.36865342 Z"/>
      <path fill="#E4E4E4" fill-rule="nonzero" d="M21.1069519,0.342163355 C23.8804731,0.342163355 26.1283422,2.59288312 26.1283422,5.36865342 L26.1283422,24.1589404 C26.1283422,26.9347107 23.8804731,29.1854305 21.1069519,29.1854305 C18.3334306,29.1854305 16.0855615,26.9347107 16.0855615,24.1589404 L16.0855615,5.36865342 C16.0855615,2.59288312 18.3334306,0.342163355 21.1069519,0.342163355 Z M18.0855615,24.1589404 C18.0855615,25.8307082 19.4385679,27.1854305 21.1069519,27.1854305 C22.7753358,27.1854305 24.1283422,25.8307082 24.1283422,24.1589404 L24.1283422,5.36865342 C24.1283422,3.69688561 22.7753358,2.34216336 21.1069519,2.34216336 C19.4385679,2.34216336 18.0855615,3.69688561 18.0855615,5.36865342 L18.0855615,24.1589404 Z"/>
      <path fill="#E4E4E4" fill-rule="nonzero" d="M33.171123 23.816777C38.1655968 23.816777 42.2139037 19.7633363 42.2139037 14.7637969 42.2139037 9.76425755 38.1655968 5.71081678 33.171123 5.71081678 28.1766492 5.71081678 24.1283422 9.76425755 24.1283422 14.7637969 24.1283422 19.7633363 28.1766492 23.816777 33.171123 23.816777zM33.171123 21.816777C29.2817865 21.816777 26.1283422 18.6593338 26.1283422 14.7637969 26.1283422 10.86826 29.2817865 7.71081678 33.171123 7.71081678 37.0604595 7.71081678 40.2139037 10.86826 40.2139037 14.7637969 40.2139037 18.6593338 37.0604595 21.816777 33.171123 21.816777zM9.04278075 23.816777C14.0372546 23.816777 18.0855615 19.7633363 18.0855615 14.7637969 18.0855615 9.76425755 14.0372546 5.71081678 9.04278075 5.71081678 4.04830694 5.71081678 0 9.76425755 0 14.7637969 0 19.7633363 4.04830694 23.816777 9.04278075 23.816777zM9.04278075 21.816777C5.15344425 21.816777 2 18.6593338 2 14.7637969 2 10.86826 5.15344425 7.71081678 9.04278075 7.71081678 12.9321173 7.71081678 16.0855615 10.86826 16.0855615 14.7637969 16.0855615 18.6593338 12.9321173 21.816777 9.04278075 21.816777z"/>
    </g>
  </g>
</svg>
