<?xml version="1.0" encoding="UTF-8"?>
<svg width="16px" height="16px" viewBox="0 0 16 16" version="1.1" xmlns="http://www.w3.org/2000/svg" xmlns:xlink="http://www.w3.org/1999/xlink">
    <!-- Generator: Sketch 63.1 (92452) - https://sketch.com -->
    <title>icon/asset/unknown</title>
    <desc>Created with Sketch.</desc>
    <g id="icon/asset/unknown" stroke="none" stroke-width="1" fill="none" fill-rule="evenodd">
        <g id="Help" fill="#393E46" fill-rule="nonzero">
            <path d="M8,14.2 C11.4241654,14.2 14.2,11.4241654 14.2,8 C14.2,4.57583455 11.4241654,1.8 8,1.8 C4.57583455,1.8 1.8,4.57583455 1.8,8 C1.8,11.4241654 4.57583455,14.2 8,14.2 Z M8,16 C3.581722,16 0,12.418278 0,8 C0,3.581722 3.581722,0 8,0 C12.418278,0 16,3.581722 16,8 C16,12.418278 12.418278,16 8,16 Z" id="Oval"></path>
            <path d="M7.81950611,10.0647268 C7.15276896,10.0737695 6.61209345,10.6075817 6.59451891,11.2741489 C6.59119449,11.9478196 7.13460509,12.496645 7.80827576,12.5 C8.48194643,12.5033244 9.0307718,11.9599138 9.03411152,11.2862431 C9.02313533,10.6188935 8.48678275,10.0794891 7.81950611,10.0647268 Z M10.4284025,4.70871426 C9.16714796,3.11918797 6.76903656,3.08981629 5.38511204,4.66552061 C4.82186686,5.30478662 4.8909767,5.37044096 5.49741553,5.81101618 C6.10385437,6.25159141 6.1314983,6.45892092 6.7552146,5.72462889 C7.20296029,5.16517134 8.00401384,5.04066301 8.60044729,5.43782306 C9.13777628,5.78337225 9.15678149,6.30169604 8.63154671,6.64724523 C8.31364146,6.86148573 7.96982001,7.03771582 7.64673151,7.24504533 C7.08124728,7.57727812 6.75263188,8.20104502 6.79840824,8.85530457 C6.81050247,9.1421104 6.93317243,9.31142951 7.2441667,9.29933529 C7.43076327,9.29933529 7.61908758,9.29933529 7.80568414,9.29933529 L8.43285593,9.29933529 C8.53449375,9.31228687 8.63663821,9.27946564 8.71170812,9.20973403 C8.78677804,9.14000242 8.82703134,9.04055196 8.82159877,8.93823638 C8.79913807,8.5443103 9.04620575,8.3715357 9.32610059,8.20394435 C9.54206884,8.0743634 9.75976483,7.9465102 9.97227758,7.81174601 C11.200705,7.02907709 11.0935847,5.53457683 10.4284025,4.70871426 Z" id="Shape"></path>
        </g>
    </g>
</svg>