<svg xmlns="http://www.w3.org/2000/svg" width="749" height="121" fill="none" viewBox="0 0 749 121">
    <path fill="#EFEFEF" d="M0.17 0.088H748.718V120.333H0.17z"/>
    <path fill="#fff" d="M10.127 38.717c0-1.105.895-2 2-2h214.976c1.104 0 2 .895 2 2v29.532c0 1.105-.896 2-2 2H12.127c-1.105 0-2-.895-2-2V38.717z"/>
    <path fill="#393E46" d="M32.903 53.369c.513.177.933.471 1.26.882.336.401.504.928.504 1.582 0 1.036-.303 1.778-.91 2.226-.597.439-1.33.658-2.198.658h-3.598c-.187 0-.345-.066-.476-.196-.13-.13-.196-.29-.196-.476v-8.456c0-.187.065-.346.196-.476.13-.13.29-.196.476-.196h3.598c.85 0 1.493.21 1.932.63.448.42.672 1.027.672 1.82 0 .448-.107.85-.322 1.204-.215.345-.527.611-.938.798zm-.182-1.792c0-.439-.121-.77-.364-.994-.233-.233-.565-.35-.994-.35h-2.646v2.73h2.674c.383-.01.7-.13.952-.364.252-.243.378-.583.378-1.022zm-1.176 5.852c.513 0 .924-.13 1.232-.392.308-.27.462-.672.462-1.204 0-1.036-.588-1.554-1.764-1.554h-2.758v3.15h2.828zm11.149-2.66c-.01.168-.08.313-.21.434-.13.112-.285.168-.462.168h-4.928c.065.681.322 1.227.77 1.638.457.41 1.012.616 1.666.616.448 0 .812-.066 1.092-.196s.527-.299.742-.504c.14-.084.275-.126.406-.126.158 0 .29.056.392.168.112.112.168.242.168.392 0 .196-.094.373-.28.532-.27.27-.63.5-1.078.686-.448.187-.906.28-1.372.28-.756 0-1.424-.159-2.002-.476-.57-.318-1.013-.76-1.33-1.33-.308-.57-.462-1.214-.462-1.932 0-.784.158-1.47.476-2.058.326-.597.751-1.055 1.274-1.372.532-.318 1.101-.476 1.708-.476.597 0 1.157.154 1.68.462.522.308.942.733 1.26 1.274.317.541.48 1.148.49 1.82zm-3.43-2.324c-.523 0-.976.15-1.358.448-.383.29-.635.742-.756 1.358h4.13v-.112c-.047-.495-.27-.9-.672-1.218-.392-.318-.84-.476-1.344-.476zm11.038-1.162c.196 0 .354.065.476.196.13.121.196.285.196.49v6.16c0 .756-.164 1.386-.49 1.89-.318.513-.752.891-1.302 1.134-.55.242-1.172.364-1.862.364-.374 0-.812-.066-1.316-.196-.495-.13-.812-.266-.952-.406-.29-.15-.434-.336-.434-.56 0-.056.018-.13.056-.224.102-.233.275-.35.518-.35.121 0 .252.028.392.084.746.29 1.33.434 1.75.434.746 0 1.316-.182 1.708-.546.401-.355.602-.845.602-1.47v-.756c-.196.364-.528.676-.994.938-.458.261-.943.392-1.456.392-.644 0-1.232-.163-1.764-.49-.532-.327-.952-.78-1.26-1.358-.299-.588-.448-1.246-.448-1.974s.15-1.381.448-1.96c.308-.588.723-1.046 1.246-1.372.532-.327 1.115-.49 1.75-.49.513 0 .99.117 1.428.35.448.233.798.518 1.05.854v-.448c0-.196.06-.36.182-.49.121-.13.28-.196.476-.196zm-2.954 6.342c.457 0 .863-.108 1.218-.322.354-.224.63-.532.826-.924.205-.401.308-.85.308-1.344 0-.495-.103-.938-.308-1.33-.196-.392-.472-.7-.826-.924-.355-.224-.76-.336-1.218-.336-.448 0-.85.112-1.204.336-.355.224-.635.537-.84.938-.196.392-.294.83-.294 1.316 0 .485.098.929.294 1.33.205.392.485.7.84.924.354.224.756.336 1.204.336zm6.86.42c0 .186-.066.345-.197.476-.121.13-.28.196-.476.196-.186 0-.345-.066-.476-.196-.121-.13-.182-.29-.182-.476v-6.062c0-.187.06-.345.182-.476.13-.13.29-.196.476-.196.196 0 .355.065.476.196.13.13.196.29.196.476v6.062zm-.673-7.658c-.27 0-.466-.047-.588-.14-.112-.103-.168-.261-.168-.476v-.224c0-.224.06-.383.182-.476.13-.093.327-.14.588-.14.261 0 .448.051.56.154.121.093.182.247.182.462v.224c0 .224-.06.383-.182.476-.121.093-.313.14-.574.14zm6.322.826c1.68 0 2.52 1.008 2.52 3.024v3.808c0 .186-.065.345-.196.476-.121.13-.28.196-.476.196-.187 0-.345-.066-.476-.196-.121-.13-.182-.29-.182-.476V54.25c0-.55-.126-.99-.378-1.316-.252-.327-.663-.49-1.232-.49-.373 0-.714.084-1.022.252-.299.158-.537.378-.714.658-.168.27-.252.57-.252.896v3.794c0 .186-.065.345-.196.476-.121.13-.28.196-.476.196-.196 0-.355-.06-.476-.182-.121-.13-.182-.294-.182-.49v-5.992c0-.187.06-.345.182-.476.13-.13.29-.196.476-.196.196 0 .355.065.476.196.13.13.196.29.196.476v.49c.243-.373.579-.686 1.008-.938.439-.261.905-.392 1.4-.392zm4.086 6.356c-.084-.13-.126-.257-.126-.378 0-.187.098-.346.294-.476.093-.066.2-.098.322-.098.168 0 .322.07.462.21.28.317.579.555.896.714.327.159.714.238 1.162.238.355-.01.668-.089.938-.238.27-.159.406-.41.406-.756 0-.317-.14-.56-.42-.728-.27-.168-.672-.322-1.204-.462-.523-.14-.957-.285-1.302-.434-.345-.159-.64-.383-.882-.672-.233-.299-.35-.686-.35-1.162 0-.42.117-.789.35-1.106.243-.317.56-.565.952-.742.401-.178.835-.266 1.302-.266.448 0 .892.084 1.33.252.448.168.812.424 1.092.77.112.13.168.266.168.406 0 .15-.075.294-.224.434-.093.084-.21.126-.35.126-.168 0-.303-.056-.406-.168-.196-.224-.438-.397-.728-.518-.28-.121-.593-.182-.938-.182-.355 0-.658.075-.91.224-.243.14-.364.383-.364.728.01.327.15.57.42.728.28.159.705.313 1.274.462.495.13.906.27 1.232.42.327.15.602.373.826.672.224.29.336.672.336 1.148 0 .438-.126.821-.378 1.148-.252.317-.583.565-.994.742-.401.168-.83.252-1.288.252-.588 0-1.134-.103-1.638-.308-.495-.206-.915-.532-1.26-.98zm19.543-6.258c.177 0 .326.065.448.196.13.121.196.28.196.476 0 .065-.019.154-.056.266l-2.142 6.048c-.056.15-.15.261-.28.336-.13.075-.27.102-.42.084-.252-.019-.444-.159-.574-.42l-1.456-3.808-1.344 3.808c-.056.13-.136.233-.238.308-.103.065-.215.103-.336.112-.14.019-.28-.01-.42-.084-.13-.084-.22-.196-.266-.336l-2.17-6.048c-.028-.084-.042-.173-.042-.266 0-.187.06-.345.182-.476.121-.13.28-.196.476-.196.317 0 .523.14.616.42l1.666 4.718 1.33-3.486c.112-.28.317-.42.616-.42.28 0 .471.14.574.42l1.358 3.43 1.638-4.662c.103-.28.317-.42.644-.42zm3.342 6.734c0 .186-.065.345-.196.476-.121.13-.28.196-.476.196-.186 0-.345-.066-.476-.196-.121-.13-.182-.29-.182-.476v-6.062c0-.187.06-.345.182-.476.13-.13.29-.196.476-.196.196 0 .355.065.476.196.13.13.196.29.196.476v6.062zm-.672-7.658c-.27 0-.466-.047-.588-.14-.112-.103-.168-.261-.168-.476v-.224c0-.224.06-.383.182-.476.13-.093.327-.14.588-.14.262 0 .448.051.56.154.122.093.182.247.182.462v.224c0 .224-.06.383-.182.476-.121.093-.312.14-.574.14zm4.572 2.296v4.172c0 .467.21.7.63.7.065 0 .154-.014.266-.042.112-.038.2-.056.266-.056.121 0 .224.051.308.154.084.103.126.233.126.392 0 .196-.112.364-.336.504-.224.14-.476.21-.756.21-.308 0-.593-.033-.854-.098-.252-.066-.48-.229-.686-.49-.196-.27-.294-.677-.294-1.218v-4.228h-.812c-.177 0-.327-.056-.448-.168-.112-.121-.168-.27-.168-.448s.056-.322.168-.434c.121-.112.27-.168.448-.168h.812v-1.176c0-.187.06-.346.182-.476.13-.13.294-.196.49-.196.187 0 .34.065.462.196.13.13.196.29.196.476v1.176h1.162c.177 0 .322.06.434.182.121.112.182.257.182.434s-.06.322-.182.434c-.112.112-.257.168-.434.168h-1.162zm6.985-1.428c1.642 0 2.463 1.017 2.463 3.052v3.738c0 .186-.065.345-.195.476-.122.13-.28.196-.477.196-.186 0-.345-.066-.476-.196-.12-.13-.181-.29-.181-.476v-3.738c0-1.214-.514-1.82-1.54-1.82-.551 0-1.008.177-1.373.532-.364.345-.546.775-.546 1.288v3.738c0 .186-.065.345-.196.476-.12.13-.28.196-.475.196-.197 0-.355-.06-.477-.182-.12-.13-.181-.294-.181-.49v-9.016c0-.187.06-.346.181-.476.131-.13.29-.196.477-.196.195 0 .354.065.475.196.131.13.197.29.197.476v3.542c.233-.364.56-.672.98-.924.42-.261.868-.392 1.344-.392z"/>
    <mask id="ove096udna" width="17" height="17" x="197" y="45" maskUnits="userSpaceOnUse">
        <path fill="#000" fill-rule="evenodd" d="M203.259 56.31l-.713-.698-3.108-3.056c-.415-.408-.415-1.07 0-1.478l1.074-1.055c.415-.408 1.087-.408 1.503 0l3.114 3.058 3.111-3.058c.415-.408 1.087-.408 1.502 0l1.074 1.055c.415.408.415 1.07 0 1.478l-4.938 4.855c-.415.408-1.087.408-1.502 0l-1.074-1.056c-.015-.014-.029-.03-.043-.045z" clip-rule="evenodd"/>
    </mask>
    <g mask="url(#ove096udna)">
        <path fill="#888B90" d="M197.127 45.717H213.127V61.717H197.127z"/>
    </g>
    <path fill="#E4E4E4" d="M12.127 37.717h214.976v-2H12.127v2zm215.976 1v29.532h2V38.717h-2zm-1 30.532H12.127v2h214.976v-2zm-215.976-1V38.717h-2v29.532h2zm1 1c-.552 0-1-.447-1-1h-2c0 1.657 1.343 3 3 3v-2zm215.976-1c0 .553-.448 1-1 1v2c1.657 0 3-1.343 3-3h-2zm-1-30.532c.552 0 1 .447 1 1h2c0-1.657-1.343-3-3-3v2zm-214.976-2c-1.657 0-3 1.343-3 3h2c0-.553.448-1 1-1v-2z"/>
    <path fill="#fff" d="M237.775 38.717c0-1.105.896-2 2-2h214.976c1.104 0 2 .895 2 2v29.532c0 1.105-.896 2-2 2H239.775c-1.104 0-2-.895-2-2V38.717z"/>
    <path fill="#393E46" d="M260.481 58.429c.196 0 .355.065.476.196.131.13.196.285.196.462 0 .186-.065.34-.196.462-.121.112-.28.168-.476.168h-4.872c-.187 0-.345-.066-.476-.196s-.196-.29-.196-.476v-8.456c0-.187.065-.346.196-.476s.289-.196.476-.196h4.872c.196 0 .355.06.476.182.131.121.196.28.196.476 0 .186-.065.34-.196.462-.121.112-.28.168-.476.168h-4.158v2.856h3.528c.196 0 .355.06.476.182.131.121.196.275.196.462 0 .196-.065.35-.196.462-.121.112-.28.168-.476.168h-3.528v3.094h4.158zm8.154-6.076c.196 0 .355.065.476.196.131.121.196.285.196.49v8.806c0 .187-.065.345-.196.476-.121.13-.28.196-.476.196-.196 0-.355-.066-.476-.196-.121-.121-.182-.28-.182-.476v-3.192c-.233.336-.565.62-.994.854-.42.233-.873.35-1.358.35-.635 0-1.209-.163-1.722-.49-.513-.327-.919-.78-1.218-1.358-.299-.588-.448-1.246-.448-1.974s.145-1.381.434-1.96c.299-.588.705-1.046 1.218-1.372.513-.327 1.078-.49 1.694-.49.495 0 .952.102 1.372.308.42.205.761.471 1.022.798v-.28c0-.196.061-.36.182-.49s.28-.196.476-.196zm-2.856 6.272c.439 0 .826-.112 1.162-.336.345-.224.611-.532.798-.924.196-.392.294-.836.294-1.33 0-.485-.098-.924-.294-1.316-.187-.401-.453-.714-.798-.938-.336-.224-.723-.336-1.162-.336-.439 0-.831.112-1.176.336-.336.224-.602.537-.798.938-.187.392-.28.83-.28 1.316 0 .495.093.938.28 1.33.196.392.462.7.798.924.345.224.737.336 1.176.336zm10.966-6.244c.196 0 .354.065.476.196.13.13.196.29.196.476v3.724c0 .97-.271 1.727-.812 2.268-.532.532-1.288.798-2.268.798-.971 0-1.722-.266-2.254-.798-.532-.541-.798-1.297-.798-2.268v-3.724c0-.187.06-.345.182-.476.13-.13.289-.196.476-.196.196 0 .354.065.476.196.13.13.196.29.196.476v3.724c0 1.222.574 1.834 1.722 1.834.569 0 1.003-.154 1.302-.462.298-.308.448-.766.448-1.372v-3.724c0-.187.06-.345.182-.476.13-.13.289-.196.476-.196zm8.611-.098c.196 0 .355.065.476.196.131.121.196.285.196.49v6.076c0 .186-.065.345-.196.476-.121.13-.28.196-.476.196-.196 0-.355-.06-.476-.182-.121-.13-.182-.294-.182-.49v-.364c-.243.327-.574.607-.994.84-.42.224-.873.336-1.358.336-.635 0-1.213-.163-1.736-.49-.513-.327-.919-.78-1.218-1.358-.289-.588-.434-1.246-.434-1.974s.145-1.381.434-1.96c.299-.588.705-1.046 1.218-1.372.513-.327 1.078-.49 1.694-.49.495 0 .952.102 1.372.308.429.205.77.466 1.022.784v-.336c0-.196.061-.36.182-.49s.28-.196.476-.196zm-2.856 6.342c.439 0 .826-.112 1.162-.336.345-.224.611-.532.798-.924.196-.392.294-.836.294-1.33 0-.485-.098-.924-.294-1.316-.187-.392-.453-.7-.798-.924-.336-.233-.723-.35-1.162-.35-.439 0-.831.112-1.176.336-.336.224-.602.532-.798.924-.187.392-.28.835-.28 1.33 0 .495.093.938.28 1.33.196.392.462.7.798.924.345.224.737.336 1.176.336zm6.947.42c0 .186-.065.345-.196.476-.13.13-.289.196-.476.196-.186 0-.345-.066-.476-.196-.121-.13-.182-.29-.182-.476v-9.016c0-.187.066-.346.196-.476.131-.13.29-.196.476-.196.187 0 .341.065.462.196.131.13.196.29.196.476v9.016zm7.97-5.362v4.172c0 .467.21.7.63.7.066 0 .154-.014.266-.042.112-.038.201-.056.266-.056.122 0 .224.051.308.154.084.103.126.233.126.392 0 .196-.112.364-.336.504-.224.14-.476.21-.756.21-.308 0-.592-.033-.854-.098-.252-.066-.48-.229-.686-.49-.196-.27-.294-.677-.294-1.218v-4.228h-.812c-.177 0-.326-.056-.448-.168-.112-.121-.168-.27-.168-.448s.056-.322.168-.434c.122-.112.271-.168.448-.168h.812v-1.176c0-.187.061-.346.182-.476.131-.13.294-.196.49-.196.187 0 .341.065.462.196.131.13.196.29.196.476v1.176h1.162c.178 0 .322.06.434.182.122.112.182.257.182.434s-.06.322-.182.434c-.112.112-.256.168-.434.168h-1.162zm10.206 2.366c0 .728-.163 1.381-.49 1.96-.326.578-.774 1.031-1.344 1.358-.56.327-1.18.49-1.862.49-.681 0-1.306-.163-1.876-.49-.56-.327-1.003-.78-1.33-1.358-.326-.579-.49-1.232-.49-1.96s.164-1.386.49-1.974c.327-.588.77-1.046 1.33-1.372.57-.327 1.195-.49 1.876-.49.682 0 1.302.163 1.862.49.57.326 1.018.784 1.344 1.372.327.588.49 1.246.49 1.974zm-1.33 0c0-.504-.107-.952-.322-1.344-.205-.401-.49-.71-.854-.924-.354-.224-.751-.336-1.19-.336-.438 0-.84.112-1.204.336-.354.215-.639.523-.854.924-.205.392-.308.84-.308 1.344 0 .495.103.938.308 1.33.215.392.5.7.854.924.364.215.766.322 1.204.322.439 0 .836-.108 1.19-.322.364-.224.649-.532.854-.924.215-.392.322-.835.322-1.33z"/>
    <mask id="cej3detsfb" width="17" height="17" x="424" y="45" maskUnits="userSpaceOnUse">
        <path fill="#000" fill-rule="evenodd" d="M430.907 56.31l-.713-.698-3.108-3.056c-.415-.408-.415-1.07 0-1.478l1.074-1.055c.415-.408 1.087-.408 1.503 0l3.114 3.058 3.111-3.058c.415-.408 1.088-.408 1.503 0l1.073 1.055c.415.408.415 1.07 0 1.478l-4.938 4.855c-.414.408-1.087.408-1.502 0l-1.074-1.056c-.015-.014-.029-.03-.043-.045z" clip-rule="evenodd"/>
    </mask>
    <g mask="url(#cej3detsfb)">
        <path fill="#888B90" d="M424.775 45.717H440.775V61.717H424.775z"/>
    </g>
    <path fill="#E4E4E4" d="M239.775 37.717h214.976v-2H239.775v2zm215.976 1v29.532h2V38.717h-2zm-1 30.532H239.775v2h214.976v-2zm-215.976-1V38.717h-2v29.532h2zm1 1c-.552 0-1-.447-1-1h-2c0 1.657 1.343 3 3 3v-2zm215.976-1c0 .553-.448 1-1 1v2c1.657 0 3-1.343 3-3h-2zm-1-30.532c.552 0 1 .447 1 1h2c0-1.657-1.343-3-3-3v2zm-214.976-2c-1.657 0-3 1.343-3 3h2c0-.553.448-1 1-1v-2z"/>
    <rect width="275.791" height="32.532" x="465.923" y="37.217" fill="#fff" stroke="#E4E4E4" rx="1.5"/>
    <path fill="#fff" d="M10.127 78.955c0-1.105.895-2 2-2h214.976c1.104 0 2 .895 2 2v29.533c0 1.104-.896 2-2 2H12.127c-1.105 0-2-.896-2-2V78.955z"/>
    <path fill="#393E46" d="M32.903 93.607c.513.177.933.471 1.26.882.336.401.504.929.504 1.582 0 1.036-.303 1.778-.91 2.226-.597.439-1.33.658-2.198.658h-3.598c-.187 0-.345-.065-.476-.196-.13-.13-.196-.29-.196-.476v-8.456c0-.187.065-.345.196-.476.13-.13.29-.196.476-.196h3.598c.85 0 1.493.21 1.932.63.448.42.672 1.027.672 1.82 0 .448-.107.85-.322 1.204-.215.345-.527.611-.938.798zm-.182-1.792c0-.439-.121-.77-.364-.994-.233-.233-.565-.35-.994-.35h-2.646v2.73h2.674c.383-.01.7-.13.952-.364.252-.243.378-.583.378-1.022zm-1.176 5.852c.513 0 .924-.13 1.232-.392.308-.27.462-.672.462-1.204 0-1.036-.588-1.554-1.764-1.554h-2.758v3.15h2.828zm11.149-2.66c-.01.168-.08.313-.21.434-.13.112-.285.168-.462.168h-4.928c.065.681.322 1.227.77 1.638.457.41 1.012.616 1.666.616.448 0 .812-.065 1.092-.196.28-.13.527-.299.742-.504.14-.084.275-.126.406-.126.158 0 .29.056.392.168.112.112.168.243.168.392 0 .196-.094.373-.28.532-.27.27-.63.5-1.078.686-.448.187-.906.28-1.372.28-.756 0-1.424-.159-2.002-.476-.57-.317-1.013-.76-1.33-1.33-.308-.57-.462-1.213-.462-1.932 0-.784.158-1.47.476-2.058.326-.597.751-1.055 1.274-1.372.532-.317 1.101-.476 1.708-.476.597 0 1.157.154 1.68.462.522.308.942.733 1.26 1.274.317.541.48 1.148.49 1.82zm-3.43-2.324c-.523 0-.976.15-1.358.448-.383.29-.635.742-.756 1.358h4.13v-.112c-.047-.495-.27-.9-.672-1.218-.392-.317-.84-.476-1.344-.476zm11.038-1.162c.196 0 .354.065.476.196.13.121.196.285.196.49v6.16c0 .756-.164 1.386-.49 1.89-.318.513-.752.891-1.302 1.134-.55.243-1.172.364-1.862.364-.374 0-.812-.065-1.316-.196-.495-.131-.812-.266-.952-.406-.29-.149-.434-.336-.434-.56 0-.056.018-.131.056-.224.102-.233.275-.35.518-.35.121 0 .252.028.392.084.746.289 1.33.434 1.75.434.746 0 1.316-.182 1.708-.546.401-.355.602-.845.602-1.47v-.756c-.196.364-.528.677-.994.938-.458.261-.943.392-1.456.392-.644 0-1.232-.163-1.764-.49-.532-.327-.952-.78-1.26-1.358-.299-.588-.448-1.246-.448-1.974s.15-1.381.448-1.96c.308-.588.723-1.045 1.246-1.372.532-.327 1.115-.49 1.75-.49.513 0 .99.117 1.428.35.448.233.798.518 1.05.854v-.448c0-.196.06-.36.182-.49.121-.13.28-.196.476-.196zm-2.954 6.342c.457 0 .863-.107 1.218-.322.354-.224.63-.532.826-.924.205-.401.308-.85.308-1.344 0-.495-.103-.938-.308-1.33-.196-.392-.472-.7-.826-.924-.355-.224-.76-.336-1.218-.336-.448 0-.85.112-1.204.336-.355.224-.635.537-.84.938-.196.392-.294.83-.294 1.316 0 .485.098.929.294 1.33.205.392.485.7.84.924.354.224.756.336 1.204.336zm6.86.42c0 .187-.066.345-.197.476-.121.13-.28.196-.476.196-.186 0-.345-.065-.476-.196-.121-.13-.182-.29-.182-.476v-6.062c0-.187.06-.345.182-.476.13-.13.29-.196.476-.196.196 0 .355.065.476.196.13.13.196.29.196.476v6.062zm-.673-7.658c-.27 0-.466-.047-.588-.14-.112-.103-.168-.261-.168-.476v-.224c0-.224.06-.383.182-.476.13-.093.327-.14.588-.14.261 0 .448.051.56.154.121.093.182.247.182.462v.224c0 .224-.06.383-.182.476-.121.093-.313.14-.574.14zm6.322.826c1.68 0 2.52 1.008 2.52 3.024v3.808c0 .187-.065.345-.196.476-.121.13-.28.196-.476.196-.187 0-.345-.065-.476-.196-.121-.13-.182-.29-.182-.476V94.49c0-.55-.126-.99-.378-1.316-.252-.327-.663-.49-1.232-.49-.373 0-.714.084-1.022.252-.299.159-.537.378-.714.658-.168.27-.252.57-.252.896v3.794c0 .187-.065.345-.196.476-.121.13-.28.196-.476.196-.196 0-.355-.06-.476-.182-.121-.13-.182-.294-.182-.49v-5.992c0-.187.06-.345.182-.476.13-.13.29-.196.476-.196.196 0 .355.065.476.196.13.13.196.29.196.476v.49c.243-.373.579-.686 1.008-.938.439-.261.905-.392 1.4-.392zm4.086 6.356c-.084-.13-.126-.257-.126-.378 0-.187.098-.345.294-.476.093-.065.2-.098.322-.098.168 0 .322.07.462.21.28.317.579.555.896.714.327.159.714.238 1.162.238.355-.01.668-.089.938-.238.27-.159.406-.41.406-.756 0-.317-.14-.56-.42-.728-.27-.168-.672-.322-1.204-.462-.523-.14-.957-.285-1.302-.434-.345-.159-.64-.383-.882-.672-.233-.299-.35-.686-.35-1.162 0-.42.117-.789.35-1.106.243-.317.56-.565.952-.742.401-.177.835-.266 1.302-.266.448 0 .892.084 1.33.252.448.168.812.425 1.092.77.112.13.168.266.168.406 0 .15-.075.294-.224.434-.093.084-.21.126-.35.126-.168 0-.303-.056-.406-.168-.196-.224-.438-.397-.728-.518-.28-.121-.593-.182-.938-.182-.355 0-.658.075-.91.224-.243.14-.364.383-.364.728.01.327.15.57.42.728.28.159.705.313 1.274.462.495.13.906.27 1.232.42.327.15.602.373.826.672.224.29.336.672.336 1.148 0 .439-.126.821-.378 1.148-.252.317-.583.565-.994.742-.401.168-.83.252-1.288.252-.588 0-1.134-.103-1.638-.308-.495-.205-.915-.532-1.26-.98zm19.543-6.258c.177 0 .326.065.448.196.13.121.196.28.196.476 0 .065-.019.154-.056.266l-2.142 6.048c-.056.15-.15.261-.28.336-.13.075-.27.103-.42.084-.252-.019-.444-.159-.574-.42l-1.456-3.808-1.344 3.808c-.056.13-.136.233-.238.308-.103.065-.215.103-.336.112-.14.019-.28-.01-.42-.084-.13-.084-.22-.196-.266-.336l-2.17-6.048c-.028-.084-.042-.173-.042-.266 0-.187.06-.345.182-.476.121-.13.28-.196.476-.196.317 0 .523.14.616.42l1.666 4.718 1.33-3.486c.112-.28.317-.42.616-.42.28 0 .471.14.574.42l1.358 3.43 1.638-4.662c.103-.28.317-.42.644-.42zm3.342 6.734c0 .187-.065.345-.196.476-.121.13-.28.196-.476.196-.186 0-.345-.065-.476-.196-.121-.13-.182-.29-.182-.476v-6.062c0-.187.06-.345.182-.476.13-.13.29-.196.476-.196.196 0 .355.065.476.196.13.13.196.29.196.476v6.062zm-.672-7.658c-.27 0-.466-.047-.588-.14-.112-.103-.168-.261-.168-.476v-.224c0-.224.06-.383.182-.476.13-.093.327-.14.588-.14.262 0 .448.051.56.154.122.093.182.247.182.462v.224c0 .224-.06.383-.182.476-.121.093-.312.14-.574.14zm4.572 2.296v4.172c0 .467.21.7.63.7.065 0 .154-.014.266-.042.112-.037.2-.056.266-.056.121 0 .224.051.308.154.084.103.126.233.126.392 0 .196-.112.364-.336.504-.224.14-.476.21-.756.21-.308 0-.593-.033-.854-.098-.252-.065-.48-.229-.686-.49-.196-.27-.294-.677-.294-1.218v-4.228h-.812c-.177 0-.327-.056-.448-.168-.112-.121-.168-.27-.168-.448 0-.177.056-.322.168-.434.121-.112.27-.168.448-.168h.812v-1.176c0-.187.06-.345.182-.476.13-.13.294-.196.49-.196.187 0 .34.065.462.196.13.13.196.29.196.476v1.176h1.162c.177 0 .322.06.434.182.121.112.182.257.182.434s-.06.322-.182.434c-.112.112-.257.168-.434.168h-1.162zm6.985-1.428c1.642 0 2.463 1.017 2.463 3.052v3.738c0 .187-.065.345-.195.476-.122.13-.28.196-.477.196-.186 0-.345-.065-.476-.196-.12-.13-.181-.29-.181-.476v-3.738c0-1.213-.514-1.82-1.54-1.82-.551 0-1.008.177-1.373.532-.364.345-.546.775-.546 1.288v3.738c0 .187-.065.345-.196.476-.12.13-.28.196-.475.196-.197 0-.355-.06-.477-.182-.12-.13-.181-.294-.181-.49v-9.016c0-.187.06-.345.181-.476.131-.13.29-.196.477-.196.195 0 .354.065.475.196.131.13.197.29.197.476v3.542c.233-.364.56-.672.98-.924.42-.261.868-.392 1.344-.392z"/>
    <mask id="uanui2hmpc" width="17" height="17" x="197" y="85" maskUnits="userSpaceOnUse">
        <path fill="#000" fill-rule="evenodd" d="M203.259 96.548l-.713-.698-3.108-3.056c-.415-.408-.415-1.07 0-1.477l1.074-1.056c.415-.407 1.087-.408 1.503 0l3.114 3.059 3.111-3.059c.415-.408 1.087-.408 1.502 0l1.074 1.056c.415.408.415 1.07 0 1.477l-4.938 4.855c-.415.408-1.087.408-1.502 0l-1.074-1.055-.043-.046z" clip-rule="evenodd"/>
    </mask>
    <g mask="url(#uanui2hmpc)">
        <path fill="#888B90" d="M197.127 85.955H213.127V101.955H197.127z"/>
    </g>
    <path fill="#E4E4E4" d="M12.127 77.955h214.976v-2H12.127v2zm215.976 1v29.533h2V78.955h-2zm-1 30.533H12.127v2h214.976v-2zm-215.976-1V78.955h-2v29.533h2zm1 1c-.552 0-1-.448-1-1h-2c0 1.656 1.343 3 3 3v-2zm215.976-1c0 .552-.448 1-1 1v2c1.657 0 3-1.344 3-3h-2zm-1-30.533c.552 0 1 .448 1 1h2c0-1.657-1.343-3-3-3v2zm-214.976-2c-1.657 0-3 1.343-3 3h2c0-.552.448-1 1-1v-2z"/>
    <path fill="#fff" d="M237.775 78.955c0-1.105.896-2 2-2h214.976c1.104 0 2 .895 2 2v29.533c0 1.104-.896 2-2 2H239.775c-1.104 0-2-.896-2-2V78.955z"/>
    <path fill="#393E46" d="M260.481 98.667c.196 0 .355.065.476.196.131.13.196.285.196.462 0 .187-.065.34-.196.462-.121.112-.28.168-.476.168h-4.872c-.187 0-.345-.065-.476-.196-.131-.13-.196-.29-.196-.476v-8.456c0-.187.065-.345.196-.476.131-.13.289-.196.476-.196h4.872c.196 0 .355.06.476.182.131.121.196.28.196.476 0 .187-.065.34-.196.462-.121.112-.28.168-.476.168h-4.158V94.3h3.528c.196 0 .355.06.476.182.131.121.196.275.196.462 0 .196-.065.35-.196.462-.121.112-.28.168-.476.168h-3.528v3.094h4.158zm8.154-6.076c.196 0 .355.065.476.196.131.121.196.285.196.49v8.806c0 .187-.065.345-.196.476-.121.131-.28.196-.476.196-.196 0-.355-.065-.476-.196-.121-.121-.182-.28-.182-.476v-3.192c-.233.336-.565.62-.994.854-.42.233-.873.35-1.358.35-.635 0-1.209-.163-1.722-.49-.513-.327-.919-.78-1.218-1.358-.299-.588-.448-1.246-.448-1.974s.145-1.381.434-1.96c.299-.588.705-1.045 1.218-1.372.513-.327 1.078-.49 1.694-.49.495 0 .952.103 1.372.308.42.205.761.471 1.022.798v-.28c0-.196.061-.36.182-.49s.28-.196.476-.196zm-2.856 6.272c.439 0 .826-.112 1.162-.336.345-.224.611-.532.798-.924.196-.392.294-.835.294-1.33 0-.485-.098-.924-.294-1.316-.187-.401-.453-.714-.798-.938-.336-.224-.723-.336-1.162-.336-.439 0-.831.112-1.176.336-.336.224-.602.537-.798.938-.187.392-.28.83-.28 1.316 0 .495.093.938.28 1.33.196.392.462.7.798.924.345.224.737.336 1.176.336zm10.966-6.244c.196 0 .354.065.476.196.13.13.196.29.196.476v3.724c0 .97-.271 1.727-.812 2.268-.532.532-1.288.798-2.268.798-.971 0-1.722-.266-2.254-.798-.532-.541-.798-1.297-.798-2.268v-3.724c0-.187.06-.345.182-.476.13-.13.289-.196.476-.196.196 0 .354.065.476.196.13.13.196.29.196.476v3.724c0 1.223.574 1.834 1.722 1.834.569 0 1.003-.154 1.302-.462.298-.308.448-.765.448-1.372v-3.724c0-.187.06-.345.182-.476.13-.13.289-.196.476-.196zm8.611-.098c.196 0 .355.065.476.196.131.121.196.285.196.49v6.076c0 .187-.065.345-.196.476-.121.13-.28.196-.476.196-.196 0-.355-.06-.476-.182-.121-.13-.182-.294-.182-.49v-.364c-.243.327-.574.607-.994.84-.42.224-.873.336-1.358.336-.635 0-1.213-.163-1.736-.49-.513-.327-.919-.78-1.218-1.358-.289-.588-.434-1.246-.434-1.974s.145-1.381.434-1.96c.299-.588.705-1.045 1.218-1.372.513-.327 1.078-.49 1.694-.49.495 0 .952.103 1.372.308.429.205.77.467 1.022.784v-.336c0-.196.061-.36.182-.49s.28-.196.476-.196zm-2.856 6.342c.439 0 .826-.112 1.162-.336.345-.224.611-.532.798-.924.196-.392.294-.835.294-1.33 0-.485-.098-.924-.294-1.316-.187-.392-.453-.7-.798-.924-.336-.233-.723-.35-1.162-.35-.439 0-.831.112-1.176.336-.336.224-.602.532-.798.924-.187.392-.28.835-.28 1.33 0 .495.093.938.28 1.33.196.392.462.7.798.924.345.224.737.336 1.176.336zm6.947.42c0 .187-.065.345-.196.476-.13.13-.289.196-.476.196-.186 0-.345-.065-.476-.196-.121-.13-.182-.29-.182-.476v-9.016c0-.187.066-.345.196-.476.131-.13.29-.196.476-.196.187 0 .341.065.462.196.131.13.196.29.196.476v9.016zm7.97-5.362v4.172c0 .467.21.7.63.7.066 0 .154-.014.266-.042.112-.037.201-.056.266-.056.122 0 .224.051.308.154.084.103.126.233.126.392 0 .196-.112.364-.336.504-.224.14-.476.21-.756.21-.308 0-.592-.033-.854-.098-.252-.065-.48-.229-.686-.49-.196-.27-.294-.677-.294-1.218v-4.228h-.812c-.177 0-.326-.056-.448-.168-.112-.121-.168-.27-.168-.448 0-.177.056-.322.168-.434.122-.112.271-.168.448-.168h.812v-1.176c0-.187.061-.345.182-.476.131-.13.294-.196.49-.196.187 0 .341.065.462.196.131.13.196.29.196.476v1.176h1.162c.178 0 .322.06.434.182.122.112.182.257.182.434s-.06.322-.182.434c-.112.112-.256.168-.434.168h-1.162zm10.206 2.366c0 .728-.163 1.381-.49 1.96-.326.579-.774 1.031-1.344 1.358-.56.327-1.18.49-1.862.49-.681 0-1.306-.163-1.876-.49-.56-.327-1.003-.78-1.33-1.358-.326-.579-.49-1.232-.49-1.96s.164-1.386.49-1.974c.327-.588.77-1.045 1.33-1.372.57-.327 1.195-.49 1.876-.49.682 0 1.302.163 1.862.49.57.327 1.018.784 1.344 1.372.327.588.49 1.246.49 1.974zm-1.33 0c0-.504-.107-.952-.322-1.344-.205-.401-.49-.71-.854-.924-.354-.224-.751-.336-1.19-.336-.438 0-.84.112-1.204.336-.354.215-.639.523-.854.924-.205.392-.308.84-.308 1.344 0 .495.103.938.308 1.33.215.392.5.7.854.924.364.215.766.322 1.204.322.439 0 .836-.107 1.19-.322.364-.224.649-.532.854-.924.215-.392.322-.835.322-1.33z"/>
    <mask id="4a9o7n8ynd" width="17" height="17" x="424" y="85" maskUnits="userSpaceOnUse">
        <path fill="#000" fill-rule="evenodd" d="M430.907 96.548l-.713-.698-3.108-3.056c-.415-.408-.415-1.07 0-1.477l1.074-1.056c.415-.407 1.087-.408 1.503 0l3.114 3.059 3.111-3.059c.415-.408 1.088-.408 1.503 0l1.073 1.056c.415.408.415 1.07 0 1.477l-4.938 4.855c-.414.408-1.087.408-1.502 0l-1.074-1.055-.043-.046z" clip-rule="evenodd"/>
    </mask>
    <g mask="url(#4a9o7n8ynd)">
        <path fill="#888B90" d="M424.775 85.955H440.775V101.955H424.775z"/>
    </g>
    <path fill="#E4E4E4" d="M239.775 77.955h214.976v-2H239.775v2zm215.976 1v29.533h2V78.955h-2zm-1 30.533H239.775v2h214.976v-2zm-215.976-1V78.955h-2v29.533h2zm1 1c-.552 0-1-.448-1-1h-2c0 1.656 1.343 3 3 3v-2zm215.976-1c0 .552-.448 1-1 1v2c1.657 0 3-1.344 3-3h-2zm-1-30.533c.552 0 1 .448 1 1h2c0-1.657-1.343-3-3-3v2zm-214.976-2c-1.657 0-3 1.343-3 3h2c0-.552.448-1 1-1v-2z"/>
    <rect width="275.791" height="32.532" x="465.923" y="77.455" fill="#fff" stroke="#E4E4E4" rx="1.5"/>
    <path fill="#000" d="M17.87 24.03c-.68 0-1.283-.093-1.806-.28-.522-.195-1.022-.508-1.498-.937-.196-.168-.294-.36-.294-.574 0-.168.066-.318.196-.448.131-.14.285-.21.462-.21.16 0 .294.051.406.154.374.345.756.602 1.148.77.402.158.854.238 1.358.238.588 0 1.083-.136 1.484-.406.411-.271.616-.612.616-1.022-.009-.486-.214-.859-.616-1.12-.392-.271-.994-.495-1.806-.672-.96-.196-1.703-.518-2.226-.966-.513-.448-.77-1.069-.77-1.862 0-.551.145-1.032.434-1.442.29-.42.691-.742 1.204-.966.514-.224 1.092-.336 1.736-.336.58 0 1.125.093 1.638.28.514.186.93.434 1.246.742.215.186.322.387.322.602 0 .168-.065.317-.196.448-.12.13-.27.196-.448.196-.13 0-.238-.038-.322-.112-.242-.243-.578-.448-1.008-.616-.429-.168-.84-.252-1.232-.252-.625 0-1.124.13-1.498.392-.364.252-.546.588-.546 1.008 0 .457.182.807.546 1.05.374.242.924.448 1.652.616.728.158 1.321.345 1.778.56.467.214.826.513 1.078.896.252.382.378.882.378 1.498 0 .541-.154 1.022-.462 1.442-.298.42-.709.746-1.232.98-.522.233-1.096.35-1.722.35zm11.453-4.087c-.01.168-.08.312-.21.434-.13.112-.285.168-.462.168h-4.928c.065.681.322 1.227.77 1.638.457.41 1.013.616 1.666.616.448 0 .812-.066 1.092-.196.28-.131.527-.299.742-.504.14-.084.275-.126.406-.126.159 0 .29.056.392.168.112.112.168.242.168.392 0 .196-.093.373-.28.532-.27.27-.63.499-1.078.686-.448.186-.905.28-1.372.28-.756 0-1.424-.159-2.002-.476-.57-.318-1.013-.761-1.33-1.33-.308-.57-.462-1.214-.462-1.932 0-.784.159-1.47.476-2.058.326-.598.751-1.055 1.274-1.372.532-.318 1.101-.476 1.708-.476.597 0 1.157.154 1.68.462.523.308.942.732 1.26 1.274.317.541.48 1.148.49 1.82zm-3.43-2.324c-.523 0-.976.149-1.358.448-.383.289-.635.742-.756 1.358h4.13v-.112c-.047-.495-.27-.901-.672-1.218-.392-.318-.84-.476-1.344-.476zm6.416 5.6c0 .186-.065.345-.196.476-.13.13-.29.196-.476.196s-.345-.066-.476-.196c-.121-.131-.182-.29-.182-.476v-9.016c0-.187.066-.346.196-.476.13-.131.29-.196.476-.196.187 0 .34.065.462.196.13.13.196.289.196.476v9.016zm8.403-3.276c-.01.168-.08.312-.21.434-.131.112-.285.168-.463.168h-4.928c.066.681.323 1.227.77 1.638.458.41 1.013.616 1.666.616.449 0 .813-.066 1.093-.196.28-.131.527-.299.742-.504.14-.084.275-.126.406-.126.158 0 .289.056.392.168.111.112.167.242.167.392 0 .196-.093.373-.28.532-.27.27-.63.499-1.078.686-.447.186-.905.28-1.371.28-.757 0-1.424-.159-2.003-.476-.569-.318-1.012-.761-1.33-1.33-.307-.57-.461-1.214-.461-1.932 0-.784.158-1.47.476-2.058.326-.598.75-1.055 1.274-1.372.532-.318 1.1-.476 1.708-.476.597 0 1.157.154 1.68.462.522.308.942.732 1.26 1.274.317.541.48 1.148.49 1.82zm-3.43-2.324c-.523 0-.976.149-1.358.448-.383.289-.635.742-.757 1.358h4.13v-.112c-.046-.495-.27-.901-.671-1.218-.392-.318-.84-.476-1.344-.476zm8.166-1.232c.737 0 1.349.116 1.834.35.495.233.742.532.742.896 0 .158-.051.303-.154.434-.103.121-.233.182-.392.182-.121 0-.22-.019-.294-.056-.065-.038-.159-.098-.28-.182-.056-.056-.145-.122-.266-.196-.112-.056-.27-.103-.476-.14-.205-.038-.392-.056-.56-.056-.485 0-.915.112-1.288.336-.373.224-.663.536-.868.938-.205.392-.308.83-.308 1.316 0 .494.098.938.294 1.33.205.392.49.7.854.924.364.224.78.336 1.246.336.485 0 .877-.075 1.176-.224.065-.038.154-.098.266-.182.093-.075.173-.131.238-.168.075-.038.163-.056.266-.056.187 0 .331.06.434.182.112.112.168.261.168.448 0 .196-.126.392-.378.588-.243.186-.574.34-.994.462-.41.121-.854.182-1.33.182-.71 0-1.335-.164-1.876-.49-.541-.336-.961-.794-1.26-1.372-.29-.588-.434-1.242-.434-1.96 0-.719.154-1.368.462-1.946.308-.588.737-1.046 1.288-1.372.55-.336 1.18-.504 1.89-.504zm5.987 1.47v4.172c0 .466.21.7.63.7.066 0 .154-.014.266-.042.112-.038.201-.056.266-.056.122 0 .224.051.308.154.084.102.126.233.126.392 0 .196-.112.364-.336.504-.224.14-.476.21-.756.21-.308 0-.592-.033-.854-.098-.252-.066-.48-.229-.686-.49-.196-.271-.294-.677-.294-1.218v-4.228h-.812c-.177 0-.326-.056-.448-.168-.112-.122-.168-.271-.168-.448 0-.178.056-.322.168-.434.122-.112.271-.168.448-.168h.812v-1.176c0-.187.061-.346.182-.476.131-.131.294-.196.49-.196.187 0 .341.065.462.196.131.13.196.289.196.476v1.176h1.162c.178 0 .322.06.434.182.122.112.182.256.182.434 0 .177-.06.322-.182.434-.112.112-.256.168-.434.168h-1.162zm14.157 2.366c0 .728-.163 1.381-.49 1.96-.326.578-.774 1.031-1.344 1.358-.56.326-1.18.49-1.861.49-.682 0-1.307-.164-1.877-.49-.56-.327-1.003-.78-1.33-1.358-.326-.579-.49-1.232-.49-1.96s.164-1.386.49-1.974c.327-.588.77-1.046 1.33-1.372.57-.327 1.195-.49 1.877-.49.68 0 1.302.163 1.861.49.57.326 1.018.784 1.345 1.372.326.588.49 1.246.49 1.974zm-1.33 0c0-.504-.107-.952-.322-1.344-.205-.402-.49-.71-.853-.924-.355-.224-.752-.336-1.19-.336-.44 0-.84.112-1.204.336-.355.214-.64.522-.854.924-.206.392-.308.84-.308 1.344 0 .494.102.938.308 1.33.214.392.499.7.854.924.364.214.765.322 1.204.322.438 0 .835-.108 1.19-.322.363-.224.648-.532.853-.924.215-.392.323-.836.323-1.33zm6.559-3.794c.634 0 1.208.163 1.722.49.513.317.914.765 1.204 1.344.298.578.448 1.232.448 1.96s-.15 1.381-.448 1.96c-.29.569-.691 1.017-1.204 1.344-.514.326-1.078.49-1.694.49-.486 0-.938-.108-1.358-.322-.42-.215-.761-.476-1.022-.784v3.108c0 .186-.066.345-.196.476-.122.13-.28.196-.476.196-.187 0-.346-.066-.476-.196-.122-.122-.182-.28-.182-.476v-8.806c0-.196.06-.36.182-.49.121-.131.28-.196.476-.196.196 0 .354.065.476.196.13.13.196.294.196.49v.406c.224-.327.55-.607.98-.84.429-.234.886-.35 1.372-.35zm-.154 6.356c.429 0 .816-.112 1.162-.336.345-.224.611-.528.798-.91.196-.392.294-.831.294-1.316 0-.486-.098-.92-.294-1.302-.187-.392-.453-.7-.798-.924-.346-.224-.733-.336-1.162-.336-.439 0-.831.112-1.176.336-.346.214-.616.518-.812.91-.187.392-.28.83-.28 1.316 0 .485.093.924.28 1.316.196.392.466.7.812.924.345.214.737.322 1.176.322zm7.06-4.928v4.172c0 .466.21.7.63.7.065 0 .153-.014.265-.042.112-.038.201-.056.266-.056.122 0 .224.051.308.154.084.102.126.233.126.392 0 .196-.112.364-.336.504-.224.14-.476.21-.756.21-.308 0-.592-.033-.854-.098-.252-.066-.48-.229-.686-.49-.196-.271-.294-.677-.294-1.218v-4.228h-.812c-.177 0-.326-.056-.448-.168-.112-.122-.168-.271-.168-.448 0-.178.056-.322.168-.434.122-.112.271-.168.448-.168h.812v-1.176c0-.187.061-.346.182-.476.131-.131.294-.196.49-.196.187 0 .341.065.462.196.131.13.196.289.196.476v1.176h1.162c.178 0 .322.06.434.182.122.112.182.256.182.434 0 .177-.06.322-.182.434-.112.112-.256.168-.434.168h-1.162zm4.59 5.362c0 .186-.066.345-.196.476-.122.13-.28.196-.476.196-.187 0-.346-.066-.476-.196-.122-.131-.182-.29-.182-.476v-6.062c0-.187.06-.346.182-.476.13-.131.289-.196.476-.196.196 0 .354.065.476.196.13.13.196.289.196.476v6.062zm-.672-7.658c-.271 0-.467-.047-.588-.14-.112-.103-.168-.262-.168-.476v-.224c0-.224.06-.383.182-.476.13-.094.326-.14.588-.14.261 0 .448.051.56.154.121.093.182.247.182.462v.224c0 .224-.061.382-.182.476-.122.093-.313.14-.574.14zm9.528 4.662c0 .728-.164 1.381-.49 1.96-.327.578-.775 1.031-1.344 1.358-.56.326-1.181.49-1.862.49-.682 0-1.307-.164-1.876-.49-.56-.327-1.004-.78-1.33-1.358-.327-.579-.49-1.232-.49-1.96s.163-1.386.49-1.974c.326-.588.77-1.046 1.33-1.372.569-.327 1.194-.49 1.876-.49.68 0 1.302.163 1.862.49.569.326 1.017.784 1.344 1.372.326.588.49 1.246.49 1.974zm-1.33 0c0-.504-.108-.952-.322-1.344-.206-.402-.49-.71-.854-.924-.355-.224-.752-.336-1.19-.336-.44 0-.84.112-1.204.336-.355.214-.64.522-.854.924-.206.392-.308.84-.308 1.344 0 .494.102.938.308 1.33.214.392.499.7.854.924.364.214.765.322 1.204.322.438 0 .835-.108 1.19-.322.364-.224.648-.532.854-.924.214-.392.322-.836.322-1.33zm6.614-3.836c1.68 0 2.52 1.008 2.52 3.024v3.808c0 .186-.066.345-.196.476-.122.13-.28.196-.476.196-.187 0-.346-.066-.476-.196-.121-.131-.182-.29-.182-.476v-3.794c0-.551-.126-.99-.378-1.316-.252-.327-.663-.49-1.232-.49-.374 0-.714.084-1.022.252-.299.158-.537.378-.714.658-.168.27-.252.569-.252.896v3.794c0 .186-.066.345-.196.476-.121.13-.28.196-.476.196-.196 0-.355-.061-.476-.182-.121-.131-.182-.294-.182-.49v-5.992c0-.187.06-.346.182-.476.13-.131.29-.196.476-.196.196 0 .355.065.476.196.13.13.196.289.196.476v.49c.242-.374.578-.686 1.008-.938.439-.262.905-.392 1.4-.392zM250.577 24.03c-.681 0-1.283-.093-1.806-.28-.522-.195-1.022-.508-1.498-.937-.196-.168-.294-.36-.294-.574 0-.168.066-.318.196-.448.131-.14.285-.21.462-.21.159 0 .294.051.406.154.374.345.756.602 1.148.77.402.158.854.238 1.358.238.588 0 1.083-.136 1.484-.406.411-.271.616-.612.616-1.022-.009-.486-.214-.859-.616-1.12-.392-.271-.994-.495-1.806-.672-.961-.196-1.703-.518-2.226-.966-.513-.448-.77-1.069-.77-1.862 0-.551.145-1.032.434-1.442.29-.42.691-.742 1.204-.966.514-.224 1.092-.336 1.736-.336.579 0 1.125.093 1.638.28.514.186.929.434 1.246.742.215.186.322.387.322.602 0 .168-.065.317-.196.448-.121.13-.27.196-.448.196-.13 0-.238-.038-.322-.112-.242-.243-.578-.448-1.008-.616-.429-.168-.84-.252-1.232-.252-.625 0-1.124.13-1.498.392-.364.252-.546.588-.546 1.008 0 .457.182.807.546 1.05.374.242.924.448 1.652.616.728.158 1.321.345 1.778.56.467.214.826.513 1.078.896.252.382.378.882.378 1.498 0 .541-.154 1.022-.462 1.442-.298.42-.709.746-1.232.98-.522.233-1.096.35-1.722.35zm11.453-4.087c-.01.168-.08.312-.21.434-.131.112-.285.168-.462.168h-4.928c.065.681.322 1.227.77 1.638.457.41 1.012.616 1.666.616.448 0 .812-.066 1.092-.196.28-.131.527-.299.742-.504.14-.084.275-.126.406-.126.158 0 .289.056.392.168.112.112.168.242.168.392 0 .196-.094.373-.28.532-.271.27-.63.499-1.078.686-.448.186-.906.28-1.372.28-.756 0-1.424-.159-2.002-.476-.57-.318-1.013-.761-1.33-1.33-.308-.57-.462-1.214-.462-1.932 0-.784.158-1.47.476-2.058.326-.598.751-1.055 1.274-1.372.532-.318 1.101-.476 1.708-.476.597 0 1.157.154 1.68.462.522.308.942.732 1.26 1.274.317.541.48 1.148.49 1.82zm-3.43-2.324c-.523 0-.976.149-1.358.448-.383.289-.635.742-.756 1.358h4.13v-.112c-.047-.495-.271-.901-.672-1.218-.392-.318-.84-.476-1.344-.476zm6.416 5.6c0 .186-.065.345-.196.476-.131.13-.289.196-.476.196s-.345-.066-.476-.196c-.121-.131-.182-.29-.182-.476v-9.016c0-.187.065-.346.196-.476.131-.131.289-.196.476-.196s.341.065.462.196c.131.13.196.289.196.476v9.016zm8.402-3.276c-.009.168-.079.312-.21.434-.13.112-.284.168-.462.168h-4.928c.066.681.322 1.227.77 1.638.458.41 1.013.616 1.666.616.448 0 .812-.066 1.092-.196.28-.131.528-.299.742-.504.14-.084.276-.126.406-.126.159 0 .29.056.392.168.112.112.168.242.168.392 0 .196-.093.373-.28.532-.27.27-.63.499-1.078.686-.448.186-.905.28-1.372.28-.756 0-1.423-.159-2.002-.476-.569-.318-1.012-.761-1.33-1.33-.308-.57-.462-1.214-.462-1.932 0-.784.159-1.47.476-2.058.327-.598.752-1.055 1.274-1.372.532-.318 1.102-.476 1.708-.476.598 0 1.158.154 1.68.462.523.308.943.732 1.26 1.274.318.541.481 1.148.49 1.82zm-3.43-2.324c-.522 0-.975.149-1.358.448-.382.289-.634.742-.756 1.358h4.13v-.112c-.046-.495-.27-.901-.672-1.218-.392-.318-.84-.476-1.344-.476zm8.167-1.232c.737 0 1.348.116 1.834.35.494.233.742.532.742.896 0 .158-.052.303-.154.434-.103.121-.234.182-.392.182-.122 0-.22-.019-.294-.056-.066-.038-.159-.098-.28-.182-.056-.056-.145-.122-.266-.196-.112-.056-.271-.103-.476-.14-.206-.038-.392-.056-.56-.056-.486 0-.915.112-1.288.336-.374.224-.663.536-.868.938-.206.392-.308.83-.308 1.316 0 .494.098.938.294 1.33.205.392.49.7.854.924.364.224.779.336 1.246.336.485 0 .877-.075 1.176-.224.065-.038.154-.098.266-.182.093-.075.172-.131.238-.168.074-.038.163-.056.266-.056.186 0 .331.06.434.182.112.112.168.261.168.448 0 .196-.126.392-.378.588-.243.186-.574.34-.994.462-.411.121-.854.182-1.33.182-.71 0-1.335-.164-1.876-.49-.542-.336-.962-.794-1.26-1.372-.29-.588-.434-1.242-.434-1.96 0-.719.154-1.368.462-1.946.308-.588.737-1.046 1.288-1.372.55-.336 1.18-.504 1.89-.504zm5.987 1.47v4.172c0 .466.21.7.63.7.066 0 .154-.014.266-.042.112-.038.201-.056.266-.056.122 0 .224.051.308.154.084.102.126.233.126.392 0 .196-.112.364-.336.504-.224.14-.476.21-.756.21-.308 0-.592-.033-.854-.098-.252-.066-.48-.229-.686-.49-.196-.271-.294-.677-.294-1.218v-4.228H282c-.177 0-.326-.056-.448-.168-.112-.122-.168-.271-.168-.448 0-.178.056-.322.168-.434.122-.112.271-.168.448-.168h.812v-1.176c0-.187.061-.346.182-.476.131-.131.294-.196.49-.196.187 0 .341.065.462.196.131.13.196.289.196.476v1.176h1.162c.178 0 .322.06.434.182.122.112.182.256.182.434 0 .177-.06.322-.182.434-.112.112-.256.168-.434.168h-1.162zm13.163-1.4c.196 0 .355.065.476.196.131.121.196.284.196.49v6.076c0 .186-.065.345-.196.476-.121.13-.28.196-.476.196-.196 0-.354-.061-.476-.182-.121-.131-.182-.294-.182-.49v-.364c-.242.326-.574.606-.994.84-.42.224-.872.336-1.358.336-.634 0-1.213-.164-1.736-.49-.513-.327-.919-.78-1.218-1.358-.289-.588-.434-1.246-.434-1.974s.145-1.382.434-1.96c.299-.588.705-1.046 1.218-1.372.514-.327 1.078-.49 1.694-.49.495 0 .952.102 1.372.308.43.205.77.466 1.022.784v-.336c0-.196.061-.36.182-.49.122-.131.28-.196.476-.196zm-2.856 6.342c.439 0 .826-.112 1.162-.336.346-.224.612-.532.798-.924.196-.392.294-.836.294-1.33 0-.486-.098-.924-.294-1.316-.186-.392-.452-.7-.798-.924-.336-.234-.723-.35-1.162-.35-.438 0-.83.112-1.176.336-.336.224-.602.532-.798.924-.186.392-.28.835-.28 1.33 0 .494.094.938.28 1.33.196.392.462.7.798.924.346.224.738.336 1.176.336zm9.244-6.412c1.68 0 2.52 1.008 2.52 3.024v3.808c0 .186-.065.345-.196.476-.121.13-.28.196-.476.196-.187 0-.345-.066-.476-.196-.121-.131-.182-.29-.182-.476v-3.794c0-.551-.126-.99-.378-1.316-.252-.327-.663-.49-1.232-.49-.373 0-.714.084-1.022.252-.299.158-.537.378-.714.658-.168.27-.252.569-.252.896v3.794c0 .186-.065.345-.196.476-.121.13-.28.196-.476.196-.196 0-.355-.061-.476-.182-.121-.131-.182-.294-.182-.49v-5.992c0-.187.061-.346.182-.476.131-.131.289-.196.476-.196.196 0 .355.065.476.196.131.13.196.289.196.476v.49c.243-.374.579-.686 1.008-.938.439-.262.905-.392 1.4-.392zm14.829 3.556c-.009.168-.079.312-.21.434-.131.112-.285.168-.462.168h-4.928c.065.681.322 1.227.77 1.638.457.41 1.013.616 1.666.616.448 0 .812-.066 1.092-.196.28-.131.527-.299.742-.504.14-.084.275-.126.406-.126.159 0 .289.056.392.168.112.112.168.242.168.392 0 .196-.093.373-.28.532-.271.27-.63.499-1.078.686-.448.186-.905.28-1.372.28-.756 0-1.423-.159-2.002-.476-.569-.318-1.013-.761-1.33-1.33-.308-.57-.462-1.214-.462-1.932 0-.784.159-1.47.476-2.058.327-.598.751-1.055 1.274-1.372.532-.318 1.101-.476 1.708-.476.597 0 1.157.154 1.68.462.523.308.943.732 1.26 1.274.317.541.481 1.148.49 1.82zm-3.43-2.324c-.523 0-.975.149-1.358.448-.383.289-.635.742-.756 1.358h4.13v-.112c-.047-.495-.271-.901-.672-1.218-.392-.318-.84-.476-1.344-.476zm10.267 5.236c.103.112.154.242.154.392 0 .186-.07.35-.21.49-.14.13-.294.196-.462.196-.214 0-.396-.098-.546-.294l-1.876-2.366-1.848 2.366c-.065.093-.144.163-.238.21-.093.046-.191.07-.294.07-.158 0-.308-.056-.448-.168-.13-.122-.196-.262-.196-.42 0-.168.052-.308.154-.42l2.1-2.618-2.156-2.716c-.093-.122-.14-.252-.14-.392 0-.187.066-.346.196-.476.14-.131.299-.196.476-.196.224 0 .406.093.546.28l1.918 2.422 1.806-2.408c.14-.196.318-.294.532-.294.178 0 .327.06.448.182.122.112.182.247.182.406 0 .177-.051.322-.154.434l-2.072 2.618 2.128 2.702zm5.157-6.426c.635 0 1.209.163 1.722.49.513.317.915.765 1.204 1.344.299.578.448 1.232.448 1.96s-.149 1.381-.448 1.96c-.289.569-.691 1.017-1.204 1.344-.513.326-1.078.49-1.694.49-.485 0-.938-.108-1.358-.322-.42-.215-.761-.476-1.022-.784v3.108c0 .186-.065.345-.196.476-.121.13-.28.196-.476.196-.187 0-.345-.066-.476-.196-.121-.122-.182-.28-.182-.476v-8.806c0-.196.061-.36.182-.49.121-.131.28-.196.476-.196.196 0 .355.065.476.196.131.13.196.294.196.49v.406c.224-.327.551-.607.98-.84.429-.234.887-.35 1.372-.35zm-.154 6.356c.429 0 .817-.112 1.162-.336.345-.224.611-.528.798-.91.196-.392.294-.831.294-1.316 0-.486-.098-.92-.294-1.302-.187-.392-.453-.7-.798-.924-.345-.224-.733-.336-1.162-.336-.439 0-.831.112-1.176.336-.345.214-.616.518-.812.91-.187.392-.28.83-.28 1.316 0 .485.093.924.28 1.316.196.392.467.7.812.924.345.214.737.322 1.176.322zm8.726-6.398c.242 0 .452.065.63.196.177.121.266.275.266.462 0 .224-.061.396-.182.518-.112.112-.252.168-.42.168-.084 0-.21-.028-.378-.084-.196-.066-.35-.098-.462-.098-.29 0-.574.102-.854.308-.271.196-.495.471-.672.826-.168.345-.252.732-.252 1.162v3.374c0 .186-.066.345-.196.476-.122.13-.28.196-.476.196-.196 0-.355-.061-.476-.182-.122-.131-.182-.294-.182-.49v-5.992c0-.187.06-.346.182-.476.13-.131.289-.196.476-.196.196 0 .354.065.476.196.13.13.196.289.196.476v.714c.205-.458.513-.826.924-1.106.41-.29.877-.439 1.4-.448zm8.254 3.556c-.009.168-.079.312-.21.434-.13.112-.284.168-.462.168h-4.928c.066.681.322 1.227.77 1.638.458.41 1.013.616 1.666.616.448 0 .812-.066 1.092-.196.28-.131.528-.299.742-.504.14-.084.276-.126.406-.126.159 0 .29.056.392.168.112.112.168.242.168.392 0 .196-.093.373-.28.532-.27.27-.63.499-1.078.686-.448.186-.905.28-1.372.28-.756 0-1.423-.159-2.002-.476-.569-.318-1.012-.761-1.33-1.33-.308-.57-.462-1.214-.462-1.932 0-.784.159-1.47.476-2.058.327-.598.752-1.055 1.274-1.372.532-.318 1.102-.476 1.708-.476.598 0 1.158.154 1.68.462.523.308.943.732 1.26 1.274.318.541.481 1.148.49 1.82zm-3.43-2.324c-.522 0-.975.149-1.358.448-.382.289-.634.742-.756 1.358h4.13v-.112c-.046-.495-.27-.901-.672-1.218-.392-.318-.84-.476-1.344-.476zm4.555 5.124c-.084-.131-.126-.257-.126-.378 0-.187.098-.346.294-.476.093-.066.2-.098.322-.098.168 0 .322.07.462.21.28.317.578.555.896.714.326.158.714.238 1.162.238.354-.01.667-.089.938-.238.27-.159.406-.411.406-.756 0-.318-.14-.56-.42-.728-.271-.168-.672-.322-1.204-.462-.523-.14-.957-.285-1.302-.434-.346-.159-.64-.383-.882-.672-.234-.299-.35-.686-.35-1.162 0-.42.116-.789.35-1.106.242-.318.56-.565.952-.742.401-.178.835-.266 1.302-.266.448 0 .891.084 1.33.252.448.168.812.424 1.092.77.112.13.168.266.168.406 0 .149-.075.294-.224.434-.094.084-.21.126-.35.126-.168 0-.304-.056-.406-.168-.196-.224-.439-.397-.728-.518-.28-.122-.593-.182-.938-.182-.355 0-.658.074-.91.224-.243.14-.364.382-.364.728.009.326.149.569.42.728.28.158.704.312 1.274.462.494.13.905.27 1.232.42.326.149.602.373.826.672.224.289.336.672.336 1.148 0 .438-.126.821-.378 1.148-.252.317-.584.564-.994.742-.402.168-.831.252-1.288.252-.588 0-1.134-.103-1.638-.308-.495-.206-.915-.532-1.26-.98zm6.672 0c-.084-.131-.126-.257-.126-.378 0-.187.098-.346.294-.476.093-.066.2-.098.322-.098.168 0 .322.07.462.21.28.317.578.555.896.714.326.158.714.238 1.162.238.354-.01.667-.089.938-.238.27-.159.406-.411.406-.756 0-.318-.14-.56-.42-.728-.271-.168-.672-.322-1.204-.462-.523-.14-.957-.285-1.302-.434-.346-.159-.64-.383-.882-.672-.234-.299-.35-.686-.35-1.162 0-.42.116-.789.35-1.106.242-.318.56-.565.952-.742.401-.178.835-.266 1.302-.266.448 0 .891.084 1.33.252.448.168.812.424 1.092.77.112.13.168.266.168.406 0 .149-.075.294-.224.434-.094.084-.21.126-.35.126-.168 0-.304-.056-.406-.168-.196-.224-.439-.397-.728-.518-.28-.122-.593-.182-.938-.182-.355 0-.658.074-.91.224-.243.14-.364.382-.364.728.009.326.149.569.42.728.28.158.704.312 1.274.462.494.13.905.27 1.232.42.326.149.602.373.826.672.224.289.336.672.336 1.148 0 .438-.126.821-.378 1.148-.252.317-.584.564-.994.742-.402.168-.831.252-1.288.252-.588 0-1.134-.103-1.638-.308-.495-.206-.915-.532-1.26-.98zm8.351.476c0 .186-.065.345-.196.476-.121.13-.28.196-.476.196-.186 0-.345-.066-.476-.196-.121-.131-.182-.29-.182-.476v-6.062c0-.187.061-.346.182-.476.131-.131.29-.196.476-.196.196 0 .355.065.476.196.131.13.196.289.196.476v6.062zm-.672-7.658c-.27 0-.466-.047-.588-.14-.112-.103-.168-.262-.168-.476v-.224c0-.224.061-.383.182-.476.131-.094.327-.14.588-.14.262 0 .448.051.56.154.122.093.182.247.182.462v.224c0 .224-.06.382-.182.476-.121.093-.312.14-.574.14zm9.528 4.662c0 .728-.163 1.381-.49 1.96-.326.578-.774 1.031-1.344 1.358-.56.326-1.18.49-1.862.49-.681 0-1.306-.164-1.876-.49-.56-.327-1.003-.78-1.33-1.358-.326-.579-.49-1.232-.49-1.96s.164-1.386.49-1.974c.327-.588.77-1.046 1.33-1.372.57-.327 1.195-.49 1.876-.49.682 0 1.302.163 1.862.49.57.326 1.018.784 1.344 1.372.327.588.49 1.246.49 1.974zm-1.33 0c0-.504-.107-.952-.322-1.344-.205-.402-.49-.71-.854-.924-.354-.224-.751-.336-1.19-.336-.438 0-.84.112-1.204.336-.354.214-.639.522-.854.924-.205.392-.308.84-.308 1.344 0 .494.103.938.308 1.33.215.392.5.7.854.924.364.214.766.322 1.204.322.439 0 .836-.108 1.19-.322.364-.224.649-.532.854-.924.215-.392.322-.836.322-1.33zm6.614-3.836c1.68 0 2.52 1.008 2.52 3.024v3.808c0 .186-.065.345-.196.476-.121.13-.28.196-.476.196-.186 0-.345-.066-.476-.196-.121-.131-.182-.29-.182-.476v-3.794c0-.551-.126-.99-.378-1.316-.252-.327-.662-.49-1.232-.49-.373 0-.714.084-1.022.252-.298.158-.536.378-.714.658-.168.27-.252.569-.252.896v3.794c0 .186-.065.345-.196.476-.121.13-.28.196-.476.196-.196 0-.354-.061-.476-.182-.121-.131-.182-.294-.182-.49v-5.992c0-.187.061-.346.182-.476.131-.131.29-.196.476-.196.196 0 .355.065.476.196.131.13.196.289.196.476v.49c.243-.374.579-.686 1.008-.938.439-.262.906-.392 1.4-.392zM481.524 22.603c.196 0 .355.065.476.196.131.13.196.284.196.462 0 .186-.065.34-.196.462-.121.112-.28.168-.476.168h-4.872c-.187 0-.345-.066-.476-.196-.131-.131-.196-.29-.196-.476v-8.456c0-.187.065-.346.196-.476.131-.131.289-.196.476-.196h4.872c.196 0 .355.06.476.182.131.121.196.28.196.476 0 .186-.065.34-.196.462-.121.112-.28.168-.476.168h-4.158v2.856h3.528c.196 0 .355.06.476.182.131.121.196.275.196.462 0 .196-.065.35-.196.462-.121.112-.28.168-.476.168h-3.528v3.094h4.158zm6.01-6.216c1.68 0 2.52 1.008 2.52 3.024v3.808c0 .186-.065.345-.196.476-.121.13-.28.196-.476.196-.186 0-.345-.066-.476-.196-.121-.131-.182-.29-.182-.476v-3.794c0-.551-.126-.99-.378-1.316-.252-.327-.662-.49-1.232-.49-.373 0-.714.084-1.022.252-.298.158-.536.378-.714.658-.168.27-.252.569-.252.896v3.794c0 .186-.065.345-.196.476-.121.13-.28.196-.476.196-.196 0-.354-.061-.476-.182-.121-.131-.182-.294-.182-.49v-5.992c0-.187.061-.346.182-.476.131-.131.29-.196.476-.196.196 0 .355.065.476.196.131.13.196.289.196.476v.49c.243-.374.579-.686 1.008-.938.439-.262.906-.392 1.4-.392zm6.495 1.47v4.172c0 .466.21.7.63.7.065 0 .154-.014.266-.042.112-.038.2-.056.266-.056.121 0 .224.051.308.154.084.102.126.233.126.392 0 .196-.112.364-.336.504-.224.14-.476.21-.756.21-.308 0-.593-.033-.854-.098-.252-.066-.481-.229-.686-.49-.196-.271-.294-.677-.294-1.218v-4.228h-.812c-.178 0-.327-.056-.448-.168-.112-.122-.168-.271-.168-.448 0-.178.056-.322.168-.434.121-.112.27-.168.448-.168h.812v-1.176c0-.187.06-.346.182-.476.13-.131.294-.196.49-.196.186 0 .34.065.462.196.13.13.196.289.196.476v1.176h1.162c.177 0 .322.06.434.182.121.112.182.256.182.434 0 .177-.061.322-.182.434-.112.112-.257.168-.434.168h-1.162zm9.702 2.086c-.01.168-.08.312-.21.434-.131.112-.285.168-.462.168h-4.928c.065.681.322 1.227.77 1.638.457.41 1.012.616 1.666.616.448 0 .812-.066 1.092-.196.28-.131.527-.299.742-.504.14-.084.275-.126.406-.126.158 0 .289.056.392.168.112.112.168.242.168.392 0 .196-.094.373-.28.532-.271.27-.63.499-1.078.686-.448.186-.906.28-1.372.28-.756 0-1.424-.159-2.002-.476-.57-.318-1.013-.761-1.33-1.33-.308-.57-.462-1.214-.462-1.932 0-.784.158-1.47.476-2.058.326-.598.751-1.055 1.274-1.372.532-.318 1.101-.476 1.708-.476.597 0 1.157.154 1.68.462.522.308.942.732 1.26 1.274.317.541.48 1.148.49 1.82zm-3.43-2.324c-.523 0-.976.149-1.358.448-.383.289-.635.742-.756 1.358h4.13v-.112c-.047-.495-.271-.901-.672-1.218-.392-.318-.84-.476-1.344-.476zm8.628-1.232c.243 0 .453.065.63.196.177.121.266.275.266.462 0 .224-.061.396-.182.518-.112.112-.252.168-.42.168-.084 0-.21-.028-.378-.084-.196-.066-.35-.098-.462-.098-.289 0-.574.102-.854.308-.271.196-.495.471-.672.826-.168.345-.252.732-.252 1.162v3.374c0 .186-.065.345-.196.476-.121.13-.28.196-.476.196-.196 0-.355-.061-.476-.182-.121-.131-.182-.294-.182-.49v-5.992c0-.187.061-.346.182-.476.131-.131.289-.196.476-.196.196 0 .355.065.476.196.131.13.196.289.196.476v.714c.205-.458.513-.826.924-1.106.411-.29.877-.439 1.4-.448zm8 1.47v4.172c0 .466.21.7.63.7.065 0 .154-.014.266-.042.112-.038.201-.056.266-.056.121 0 .224.051.308.154.084.102.126.233.126.392 0 .196-.112.364-.336.504-.224.14-.476.21-.756.21-.308 0-.593-.033-.854-.098-.252-.066-.481-.229-.686-.49-.196-.271-.294-.677-.294-1.218v-4.228h-.812c-.177 0-.327-.056-.448-.168-.112-.122-.168-.271-.168-.448 0-.178.056-.322.168-.434.121-.112.271-.168.448-.168h.812v-1.176c0-.187.061-.346.182-.476.131-.131.294-.196.49-.196.187 0 .341.065.462.196.131.13.196.289.196.476v1.176h1.162c.177 0 .322.06.434.182.121.112.182.256.182.434 0 .177-.061.322-.182.434-.112.112-.257.168-.434.168h-1.162zm9.702 2.086c-.009.168-.079.312-.21.434-.131.112-.285.168-.462.168h-4.928c.065.681.322 1.227.77 1.638.457.41 1.013.616 1.666.616.448 0 .812-.066 1.092-.196.28-.131.527-.299.742-.504.14-.084.275-.126.406-.126.159 0 .289.056.392.168.112.112.168.242.168.392 0 .196-.093.373-.28.532-.271.27-.63.499-1.078.686-.448.186-.905.28-1.372.28-.756 0-1.423-.159-2.002-.476-.569-.318-1.013-.761-1.33-1.33-.308-.57-.462-1.214-.462-1.932 0-.784.159-1.47.476-2.058.327-.598.751-1.055 1.274-1.372.532-.318 1.101-.476 1.708-.476.597 0 1.157.154 1.68.462.523.308.943.732 1.26 1.274.317.541.481 1.148.49 1.82zm-3.43-2.324c-.523 0-.975.149-1.358.448-.383.289-.635.742-.756 1.358h4.13v-.112c-.047-.495-.271-.901-.672-1.218-.392-.318-.84-.476-1.344-.476zm10.267 5.236c.103.112.154.242.154.392 0 .186-.07.35-.21.49-.14.13-.294.196-.462.196-.214 0-.396-.098-.546-.294l-1.876-2.366-1.848 2.366c-.065.093-.144.163-.238.21-.093.046-.191.07-.294.07-.158 0-.308-.056-.448-.168-.13-.122-.196-.262-.196-.42 0-.168.052-.308.154-.42l2.1-2.618-2.156-2.716c-.093-.122-.14-.252-.14-.392 0-.187.066-.346.196-.476.14-.131.299-.196.476-.196.224 0 .406.093.546.28l1.918 2.422 1.806-2.408c.14-.196.318-.294.532-.294.178 0 .327.06.448.182.122.112.182.247.182.406 0 .177-.051.322-.154.434l-2.072 2.618 2.128 2.702zm4.16-4.998v4.172c0 .466.21.7.63.7.066 0 .154-.014.266-.042.112-.038.201-.056.266-.056.122 0 .224.051.308.154.084.102.126.233.126.392 0 .196-.112.364-.336.504-.224.14-.476.21-.756.21-.308 0-.592-.033-.854-.098-.252-.066-.48-.229-.686-.49-.196-.271-.294-.677-.294-1.218v-4.228h-.812c-.177 0-.326-.056-.448-.168-.112-.122-.168-.271-.168-.448 0-.178.056-.322.168-.434.122-.112.271-.168.448-.168h.812v-1.176c0-.187.061-.346.182-.476.131-.131.294-.196.49-.196.187 0 .341.065.462.196.131.13.196.289.196.476v1.176h1.162c.178 0 .322.06.434.182.122.112.182.256.182.434 0 .177-.06.322-.182.434-.112.112-.256.168-.434.168h-1.162zM482.924 48.448c.196 0 .35.065.462.196.121.121.182.28.182.476v5.376c0 .737-.163 1.4-.49 1.988-.327.588-.779 1.05-1.358 1.386-.569.326-1.213.49-1.932.49-.728 0-1.381-.164-1.96-.49-.579-.336-1.031-.798-1.358-1.386-.327-.588-.49-1.25-.49-1.988V49.12c0-.196.065-.355.196-.476.131-.13.299-.196.504-.196.177 0 .331.065.462.196.14.13.21.29.21.476v5.376c0 .485.112.924.336 1.316.224.382.523.681.896.896.373.214.775.322 1.204.322.448 0 .863-.108 1.246-.322.383-.215.686-.514.91-.896.233-.392.35-.83.35-1.316V49.12c0-.196.056-.355.168-.476.112-.13.266-.196.462-.196zm10.416 8.68c.103.13.154.284.154.462 0 .205-.079.373-.238.504-.149.13-.322.196-.518.196-.186 0-.35-.084-.49-.252l-3.402-4.382-1.568 1.484v2.436c0 .196-.065.36-.196.49-.13.13-.298.196-.504.196-.205 0-.373-.066-.504-.196-.121-.13-.182-.294-.182-.49v-8.442c0-.187.066-.346.196-.476.131-.13.299-.196.504-.196.206 0 .369.065.49.196.131.121.196.28.196.476v4.354l4.97-4.816c.178-.159.355-.238.532-.238.168 0 .313.07.434.21.122.14.182.29.182.448 0 .14-.065.284-.196.434l-3.318 3.136 3.458 4.466zM482.924 92.04c.196 0 .35.065.462.195.121.122.182.28.182.477v5.376c0 .737-.163 1.4-.49 1.988-.327.588-.779 1.05-1.358 1.386-.569.326-1.213.49-1.932.49-.728 0-1.381-.164-1.96-.49-.579-.336-1.031-.798-1.358-1.386-.327-.588-.49-1.251-.49-1.988v-5.376c0-.197.065-.355.196-.477.131-.13.299-.195.504-.195.177 0 .331.065.462.195.14.131.21.29.21.477v5.376c0 .485.112.924.336 1.316.224.382.523.681.896.896.373.214.775.322 1.204.322.448 0 .863-.108 1.246-.322.383-.215.686-.514.91-.897.233-.392.35-.83.35-1.316v-5.376c0-.195.056-.354.168-.475.112-.131.266-.197.462-.197zm5.8 9.954c-.682 0-1.284-.094-1.806-.28-.523-.196-1.022-.509-1.498-.938-.196-.168-.294-.36-.294-.574 0-.168.065-.318.196-.448.13-.14.284-.21.462-.21.158 0 .294.05.406.154.373.345.756.602 1.148.77.401.158.854.238 1.358.238.588 0 1.082-.136 1.484-.406.41-.271.616-.612.616-1.022-.01-.486-.215-.86-.616-1.12-.392-.271-.994-.495-1.806-.672-.962-.197-1.704-.519-2.226-.967-.514-.448-.77-1.068-.77-1.862 0-.55.144-1.03.434-1.441.289-.42.69-.742 1.204-.966.513-.225 1.092-.337 1.736-.337.578 0 1.124.094 1.638.28.513.187.928.434 1.246.743.214.186.322.387.322.601 0 .168-.066.318-.196.448-.122.131-.271.197-.448.197-.131 0-.238-.038-.322-.112-.243-.243-.579-.448-1.008-.616-.43-.168-.84-.252-1.232-.252-.626 0-1.125.13-1.498.392-.364.252-.546.588-.546 1.008 0 .457.182.807.546 1.05.373.242.924.448 1.652.615.728.16 1.32.346 1.778.56.466.215.826.514 1.078.897.252.382.378.882.378 1.498 0 .54-.154 1.022-.462 1.442-.299.42-.71.746-1.232.98-.523.233-1.097.35-1.722.35z"/>
</svg>
