<svg xmlns="http://www.w3.org/2000/svg" width="749" height="87" fill="none" viewBox="0 0 749 87">
    <path fill="#EFEFEF" d="M0 0.201H748.548V86.00999999999999H0z"/>
    <path fill="#fff" d="M9.956 47.16c0-1.104.896-2 2-2h214.976c1.104 0 2 .896 2 2v29.53c0 1.105-.896 2-2 2H11.956c-1.104 0-2-.895-2-2V47.16z"/>
    <path fill="#393E46" d="M32.662 65.872c.196 0 .355.066.476.196.13.13.196.285.196.462 0 .187-.065.34-.196.462-.121.112-.28.168-.476.168H27.79c-.187 0-.345-.065-.476-.196-.13-.13-.196-.29-.196-.476v-8.456c0-.186.065-.345.196-.476.13-.13.29-.196.476-.196h4.872c.196 0 .355.06.476.182.13.121.196.28.196.476 0 .187-.065.34-.196.462-.121.112-.28.168-.476.168h-4.158v2.856h3.528c.196 0 .355.06.476.182.13.121.196.276.196.462 0 .196-.065.35-.196.462-.121.112-.28.168-.476.168h-3.528v3.094h4.158zm6.01-6.216c1.68 0 2.52 1.008 2.52 3.024v3.808c0 .187-.065.346-.196.476-.12.13-.28.196-.476.196-.186 0-.345-.065-.476-.196-.12-.13-.182-.29-.182-.476v-3.794c0-.55-.126-.99-.378-1.316-.252-.327-.662-.49-1.232-.49-.373 0-.714.084-1.022.252-.298.159-.536.378-.714.658-.168.27-.252.57-.252.896v3.794c0 .187-.065.346-.196.476-.12.13-.28.196-.476.196-.196 0-.354-.06-.476-.182-.12-.13-.182-.294-.182-.49v-5.992c0-.187.061-.345.182-.476.131-.13.29-.196.476-.196.196 0 .355.066.476.196.131.13.196.29.196.476v.49c.243-.373.58-.686 1.008-.938.44-.261.906-.392 1.4-.392zM49.13 56.8c.196 0 .354.066.476.196.13.121.196.28.196.476v9.016c0 .187-.066.346-.196.476-.122.13-.28.196-.476.196-.196 0-.355-.06-.476-.182-.122-.13-.182-.294-.182-.49v-.392c-.234.336-.565.62-.994.854-.42.233-.873.35-1.358.35-.635 0-1.21-.163-1.722-.49-.514-.326-.92-.78-1.218-1.358-.3-.588-.448-1.246-.448-1.974s.144-1.381.434-1.96c.298-.588.704-1.045 1.218-1.372.513-.327 1.078-.49 1.694-.49.494 0 .952.103 1.372.308.42.206.76.471 1.022.798v-3.29c0-.196.06-.355.182-.476.12-.13.28-.196.476-.196zm-2.856 9.268c.438 0 .826-.112 1.162-.336.345-.224.61-.532.798-.924.196-.392.294-.835.294-1.33 0-.485-.098-.924-.294-1.316-.187-.401-.453-.714-.798-.938-.336-.224-.724-.336-1.162-.336-.44 0-.831.112-1.176.336-.336.224-.602.537-.798.938-.187.392-.28.83-.28 1.316 0 .495.093.938.28 1.33.196.392.462.7.798.924.345.224.737.336 1.176.336zm17.956-6.314c.177 0 .327.066.448.196.13.121.196.28.196.476 0 .066-.019.154-.056.266l-2.142 6.048c-.056.15-.15.261-.28.336-.13.075-.27.103-.42.084-.252-.019-.443-.159-.574-.42l-1.456-3.808-1.344 3.808c-.056.13-.135.234-.238.308-.103.066-.215.103-.336.112-.14.019-.28-.01-.42-.084-.13-.084-.22-.196-.266-.336l-2.17-6.048c-.028-.084-.042-.172-.042-.266 0-.187.06-.345.182-.476.121-.13.28-.196.476-.196.317 0 .523.14.616.42l1.666 4.718 1.33-3.486c.112-.28.317-.42.616-.42.28 0 .471.14.574.42l1.358 3.43 1.638-4.662c.103-.28.317-.42.644-.42zm3.342 6.734c0 .187-.065.346-.196.476-.121.13-.28.196-.476.196-.186 0-.345-.065-.476-.196-.121-.13-.182-.29-.182-.476v-6.062c0-.187.061-.345.182-.476.131-.13.29-.196.476-.196.196 0 .355.066.476.196.131.13.196.29.196.476v6.062zM66.9 58.83c-.27 0-.466-.047-.588-.14-.112-.102-.168-.261-.168-.476v-.224c0-.224.061-.383.182-.476.131-.093.327-.14.588-.14.262 0 .448.051.56.154.122.093.182.248.182.462v.224c0 .224-.06.383-.182.476-.121.093-.312.14-.574.14zm4.572 2.296v4.172c0 .467.21.7.63.7.066 0 .154-.014.266-.042.112-.037.2-.056.266-.056.122 0 .224.051.308.154.084.103.126.233.126.392 0 .196-.112.364-.336.504-.224.14-.476.21-.756.21-.308 0-.592-.032-.854-.098-.252-.065-.48-.228-.686-.49-.196-.27-.294-.677-.294-1.218v-4.228h-.812c-.177 0-.326-.056-.448-.168-.112-.121-.168-.27-.168-.448 0-.177.056-.322.168-.434.122-.112.27-.168.448-.168h.812v-1.176c0-.187.06-.345.182-.476.13-.13.294-.196.49-.196.187 0 .34.066.462.196.13.13.196.29.196.476v1.176h1.162c.178 0 .322.06.434.182.122.112.182.257.182.434 0 .178-.06.322-.182.434-.112.112-.256.168-.434.168h-1.162zm6.985-1.428c1.642 0 2.464 1.017 2.464 3.052v3.738c0 .187-.066.346-.196.476-.122.13-.28.196-.476.196-.187 0-.346-.065-.476-.196-.122-.13-.182-.29-.182-.476V62.75c0-1.213-.514-1.82-1.54-1.82-.551 0-1.008.178-1.372.532-.364.345-.546.775-.546 1.288v3.738c0 .187-.066.346-.196.476-.122.13-.28.196-.476.196-.196 0-.355-.06-.476-.182-.122-.13-.182-.294-.182-.49v-9.016c0-.187.06-.345.182-.476.13-.13.289-.196.476-.196.196 0 .354.066.476.196.13.13.196.29.196.476v3.542c.233-.364.56-.672.98-.924.42-.261.868-.392 1.344-.392z"/>
    <mask id="4u6ubyqtqa" width="17" height="17" x="196" y="54" maskUnits="userSpaceOnUse">
        <path fill="#000" fill-rule="evenodd" d="M203.088 64.753l-.713-.698L199.267 61c-.415-.408-.415-1.07 0-1.477l1.074-1.056c.415-.407 1.087-.407 1.503 0l3.114 3.059 3.111-3.059c.415-.408 1.088-.408 1.502 0l1.074 1.056c.415.408.415 1.07 0 1.477l-4.938 4.855c-.415.408-1.087.408-1.502 0l-1.074-1.055-.043-.046z" clip-rule="evenodd"/>
    </mask>
    <g mask="url(#4u6ubyqtqa)">
        <path fill="#888B90" d="M196.956 54.16H212.956V70.16H196.956z"/>
    </g>
    <path fill="#E4E4E4" d="M11.956 46.16h214.976v-2H11.956v2zm215.976 1v29.53h2V47.16h-2zm-1 30.53H11.956v2h214.976v-2zm-215.976-1V47.16h-2v29.53h2zm1 1c-.552 0-1-.448-1-1h-2c0 1.657 1.343 3 3 3v-2zm215.976-1c0 .552-.448 1-1 1v2c1.657 0 3-1.343 3-3h-2zm-1-30.53c.552 0 1 .448 1 1h2c0-1.657-1.343-3-3-3v2zm-214.976-2c-1.657 0-3 1.343-3 3h2c0-.552.448-1 1-1v-2z"/>
    <path fill="#fff" d="M237.604 47.16c0-1.104.896-2 2-2H454.58c1.104 0 2 .896 2 2v29.53c0 1.105-.896 2-2 2H239.604c-1.104 0-2-.895-2-2V47.16z"/>
    <path fill="#393E46" d="M260.31 66.872c.196 0 .355.066.476.196.131.13.196.285.196.462 0 .187-.065.34-.196.462-.121.112-.28.168-.476.168h-4.872c-.187 0-.345-.065-.476-.196-.131-.13-.196-.29-.196-.476v-8.456c0-.186.065-.345.196-.476.131-.13.289-.196.476-.196h4.872c.196 0 .355.06.476.182.131.121.196.28.196.476 0 .187-.065.34-.196.462-.121.112-.28.168-.476.168h-4.158v2.856h3.528c.196 0 .355.06.476.182.131.121.196.276.196.462 0 .196-.065.35-.196.462-.121.112-.28.168-.476.168h-3.528v3.094h4.158zm8.154-6.076c.196 0 .355.066.476.196.131.122.196.285.196.49v8.806c0 .187-.065.346-.196.476-.121.13-.28.196-.476.196-.196 0-.355-.065-.476-.196-.121-.121-.182-.28-.182-.476v-3.192c-.233.336-.565.62-.994.854-.42.233-.873.35-1.358.35-.635 0-1.209-.163-1.722-.49-.513-.326-.919-.78-1.218-1.358-.299-.588-.448-1.246-.448-1.974s.145-1.381.434-1.96c.299-.588.705-1.045 1.218-1.372.513-.327 1.078-.49 1.694-.49.495 0 .952.103 1.372.308.42.206.761.471 1.022.798v-.28c0-.196.061-.36.182-.49s.28-.196.476-.196zm-2.856 6.272c.439 0 .826-.112 1.162-.336.345-.224.611-.532.798-.924.196-.392.294-.835.294-1.33 0-.485-.098-.924-.294-1.316-.187-.401-.453-.714-.798-.938-.336-.224-.723-.336-1.162-.336-.439 0-.831.112-1.176.336-.336.224-.602.537-.798.938-.187.392-.28.83-.28 1.316 0 .495.093.938.28 1.33.196.392.462.7.798.924.345.224.737.336 1.176.336zm10.966-6.244c.196 0 .354.066.476.196.13.13.196.29.196.476v3.724c0 .97-.271 1.727-.812 2.268-.532.532-1.288.798-2.268.798-.971 0-1.722-.266-2.254-.798-.532-.541-.798-1.297-.798-2.268v-3.724c0-.187.06-.345.182-.476.13-.13.289-.196.476-.196.196 0 .354.066.476.196.13.13.196.29.196.476v3.724c0 1.223.574 1.834 1.722 1.834.569 0 1.003-.154 1.302-.462.298-.308.448-.765.448-1.372v-3.724c0-.187.06-.345.182-.476.13-.13.289-.196.476-.196zm8.611-.098c.196 0 .355.066.476.196.131.122.196.285.196.49v6.076c0 .187-.065.346-.196.476-.121.13-.28.196-.476.196-.196 0-.355-.06-.476-.182-.121-.13-.182-.294-.182-.49v-.364c-.243.327-.574.607-.994.84-.42.224-.873.336-1.358.336-.635 0-1.213-.163-1.736-.49-.513-.326-.919-.78-1.218-1.358-.289-.588-.434-1.246-.434-1.974s.145-1.381.434-1.96c.299-.588.705-1.045 1.218-1.372.513-.327 1.078-.49 1.694-.49.495 0 .952.103 1.372.308.429.206.77.467 1.022.784v-.336c0-.196.061-.36.182-.49s.28-.196.476-.196zm-2.856 6.342c.439 0 .826-.112 1.162-.336.345-.224.611-.532.798-.924.196-.392.294-.835.294-1.33 0-.485-.098-.924-.294-1.316-.187-.392-.453-.7-.798-.924-.336-.233-.723-.35-1.162-.35-.439 0-.831.112-1.176.336-.336.224-.602.532-.798.924-.187.392-.28.835-.28 1.33 0 .495.093.938.28 1.33.196.392.462.7.798.924.345.224.737.336 1.176.336zm6.947.42c0 .187-.065.346-.196.476-.13.13-.289.196-.476.196-.186 0-.345-.065-.476-.196-.121-.13-.182-.29-.182-.476v-9.016c0-.187.066-.345.196-.476.131-.13.29-.196.476-.196.187 0 .341.066.462.196.131.13.196.29.196.476v9.016zm7.97-5.362v4.172c0 .467.21.7.63.7.066 0 .154-.014.266-.042.112-.037.201-.056.266-.056.122 0 .224.051.308.154.084.103.126.233.126.392 0 .196-.112.364-.336.504-.224.14-.476.21-.756.21-.308 0-.592-.032-.854-.098-.252-.065-.48-.228-.686-.49-.196-.27-.294-.677-.294-1.218v-4.228h-.812c-.177 0-.326-.056-.448-.168-.112-.121-.168-.27-.168-.448 0-.177.056-.322.168-.434.122-.112.271-.168.448-.168h.812v-1.176c0-.187.061-.345.182-.476.131-.13.294-.196.49-.196.187 0 .341.066.462.196.131.13.196.29.196.476v1.176h1.162c.178 0 .322.06.434.182.122.112.182.257.182.434 0 .178-.06.322-.182.434-.112.112-.256.168-.434.168h-1.162zm10.206 2.366c0 .728-.163 1.382-.49 1.96-.326.579-.774 1.032-1.344 1.358-.56.327-1.18.49-1.862.49-.681 0-1.306-.163-1.876-.49-.56-.326-1.003-.78-1.33-1.358-.326-.578-.49-1.232-.49-1.96s.164-1.386.49-1.974c.327-.588.77-1.045 1.33-1.372.57-.327 1.195-.49 1.876-.49.682 0 1.302.163 1.862.49.57.327 1.018.784 1.344 1.372.327.588.49 1.246.49 1.974zm-1.33 0c0-.504-.107-.952-.322-1.344-.205-.401-.49-.71-.854-.924-.354-.224-.751-.336-1.19-.336-.438 0-.84.112-1.204.336-.354.215-.639.523-.854.924-.205.392-.308.84-.308 1.344 0 .495.103.938.308 1.33.215.392.5.7.854.924.364.215.766.322 1.204.322.439 0 .836-.107 1.19-.322.364-.224.649-.532.854-.924.215-.392.322-.835.322-1.33z"/>
    <mask id="7hc2ddmq6b" width="17" height="17" x="424" y="54" maskUnits="userSpaceOnUse">
        <path fill="#000" fill-rule="evenodd" d="M430.736 64.753l-.713-.698L426.915 61c-.415-.408-.415-1.07 0-1.477l1.074-1.056c.415-.407 1.087-.407 1.503 0l3.114 3.059 3.111-3.059c.415-.408 1.088-.408 1.503 0l1.073 1.056c.415.408.415 1.07 0 1.477l-4.938 4.855c-.414.408-1.087.408-1.502 0l-1.074-1.055-.043-.046z" clip-rule="evenodd"/>
    </mask>
    <g mask="url(#7hc2ddmq6b)">
        <path fill="#888B90" d="M424.604 54.16H440.604V70.16H424.604z"/>
    </g>
    <path fill="#E4E4E4" d="M239.604 46.16H454.58v-2H239.604v2zm215.976 1v29.53h2V47.16h-2zm-1 30.53H239.604v2H454.58v-2zm-215.976-1V47.16h-2v29.53h2zm1 1c-.552 0-1-.448-1-1h-2c0 1.657 1.343 3 3 3v-2zm215.976-1c0 .552-.448 1-1 1v2c1.657 0 3-1.343 3-3h-2zm-1-30.53c.552 0 1 .448 1 1h2c0-1.657-1.343-3-3-3v2zm-214.976-2c-1.657 0-3 1.343-3 3h2c0-.552.448-1 1-1v-2z"/>
    <rect width="275.791" height="32.53" x="465.752" y="45.66" fill="#fff" stroke="#E4E4E4" rx="1.5"/>
    <path fill="#000" d="M17.7 29.3c-.682 0-1.284-.093-1.806-.28-.523-.196-1.023-.508-1.498-.938-.197-.168-.295-.36-.295-.574 0-.168.066-.317.196-.448.131-.14.285-.21.462-.21.16 0 .294.051.406.154.374.345.757.602 1.149.77.4.159.854.238 1.358.238.587 0 1.082-.135 1.483-.406.411-.27.616-.611.616-1.022-.009-.485-.214-.858-.616-1.12-.392-.27-.994-.494-1.806-.672-.96-.196-1.703-.518-2.226-.966-.513-.448-.77-1.069-.77-1.862 0-.55.145-1.031.434-1.442.29-.42.691-.742 1.204-.966.514-.224 1.093-.336 1.736-.336.58 0 1.125.094 1.639.28.513.187.928.434 1.245.742.215.187.322.387.322.602 0 .168-.065.317-.195.448-.122.13-.271.196-.448.196-.131 0-.238-.037-.322-.112-.243-.242-.58-.448-1.009-.616-.429-.168-.84-.252-1.232-.252-.625 0-1.124.13-1.497.392-.364.252-.546.588-.546 1.008 0 .457.182.807.546 1.05.373.243.924.448 1.651.616.729.159 1.321.345 1.779.56.466.215.825.514 1.078.896.252.383.378.882.378 1.498 0 .542-.154 1.022-.462 1.442-.3.42-.71.747-1.232.98-.523.233-1.097.35-1.723.35zm11.452-4.088c-.01.168-.08.313-.21.434-.13.112-.285.168-.462.168h-4.928c.065.681.322 1.227.77 1.638.457.41 1.013.616 1.666.616.448 0 .812-.065 1.092-.196.28-.13.527-.299.742-.504.14-.084.275-.126.406-.126.159 0 .29.056.392.168.112.112.168.243.168.392 0 .196-.093.373-.28.532-.27.27-.63.5-1.078.686-.448.187-.905.28-1.372.28-.756 0-1.423-.159-2.002-.476-.57-.317-1.013-.76-1.33-1.33-.308-.57-.462-1.213-.462-1.932 0-.784.159-1.47.476-2.058.327-.597.751-1.055 1.274-1.372.532-.317 1.101-.476 1.708-.476.597 0 1.157.154 1.68.462.523.308.943.733 1.26 1.274.317.541.48 1.148.49 1.82zm-3.43-2.324c-.523 0-.975.15-1.358.448-.383.29-.635.742-.756 1.358h4.13v-.112c-.047-.495-.27-.9-.672-1.218-.392-.317-.84-.476-1.344-.476zm6.416 5.6c0 .187-.065.346-.196.476-.13.13-.289.196-.476.196-.186 0-.345-.065-.476-.196-.121-.13-.182-.29-.182-.476v-9.016c0-.187.066-.345.196-.476.131-.13.29-.196.476-.196.187 0 .341.066.462.196.131.13.196.29.196.476v9.016zm8.403-3.276c-.01.168-.08.313-.21.434-.131.112-.285.168-.462.168H34.94c.065.681.322 1.227.77 1.638.457.41 1.012.616 1.666.616.448 0 .812-.065 1.092-.196.28-.13.527-.299.742-.504.14-.084.275-.126.406-.126.158 0 .289.056.392.168.112.112.168.243.168.392 0 .196-.094.373-.28.532-.271.27-.63.5-1.078.686-.448.187-.906.28-1.372.28-.756 0-1.424-.159-2.002-.476-.57-.317-1.013-.76-1.33-1.33-.308-.57-.462-1.213-.462-1.932 0-.784.158-1.47.476-2.058.326-.597.751-1.055 1.274-1.372.532-.317 1.101-.476 1.708-.476.597 0 1.157.154 1.68.462.522.308.942.733 1.26 1.274.317.541.48 1.148.49 1.82zm-3.43-2.324c-.523 0-.976.15-1.358.448-.383.29-.635.742-.756 1.358h4.13v-.112c-.047-.495-.271-.9-.672-1.218-.392-.317-.84-.476-1.344-.476zm8.166-1.232c.737 0 1.349.117 1.834.35.495.233.742.532.742.896 0 .159-.051.303-.154.434-.103.122-.233.182-.392.182-.121 0-.22-.018-.294-.056-.065-.037-.159-.098-.28-.182-.056-.056-.145-.121-.266-.196-.112-.056-.27-.102-.476-.14-.205-.037-.392-.056-.56-.056-.485 0-.915.112-1.288.336-.373.224-.663.537-.868.938-.205.392-.308.83-.308 1.316 0 .495.098.938.294 1.33.205.392.49.7.854.924.364.224.78.336 1.246.336.485 0 .877-.075 1.176-.224.065-.037.154-.098.266-.182.093-.075.173-.13.238-.168.075-.037.163-.056.266-.056.187 0 .331.06.434.182.112.112.168.261.168.448 0 .196-.126.392-.378.588-.243.187-.574.34-.994.462-.41.122-.854.182-1.33.182-.71 0-1.335-.163-1.876-.49-.541-.336-.961-.793-1.26-1.372-.29-.588-.434-1.241-.434-1.96 0-.719.154-1.367.462-1.946.308-.588.737-1.045 1.288-1.372.55-.336 1.18-.504 1.89-.504zm5.987 1.47v4.172c0 .467.21.7.63.7.066 0 .154-.014.266-.042.112-.037.201-.056.266-.056.122 0 .224.052.308.154.084.103.126.234.126.392 0 .196-.112.364-.336.504-.224.14-.476.21-.756.21-.308 0-.592-.032-.854-.098-.252-.065-.48-.229-.686-.49-.196-.27-.294-.677-.294-1.218v-4.228h-.812c-.177 0-.326-.056-.448-.168-.112-.121-.168-.27-.168-.448 0-.177.056-.322.168-.434.122-.112.271-.168.448-.168h.812v-1.176c0-.186.061-.345.182-.476.131-.13.294-.196.49-.196.187 0 .341.066.462.196.131.13.196.29.196.476v1.176h1.162c.178 0 .322.06.434.182.122.112.182.257.182.434s-.06.322-.182.434c-.112.112-.256.168-.434.168h-1.162zm14.158 2.366c0 .728-.164 1.381-.49 1.96-.327.579-.775 1.031-1.344 1.358-.56.327-1.181.49-1.862.49-.682 0-1.307-.163-1.876-.49-.56-.326-1.004-.78-1.33-1.358-.327-.579-.49-1.232-.49-1.96s.163-1.386.49-1.974c.326-.588.77-1.045 1.33-1.372.569-.326 1.194-.49 1.876-.49.68 0 1.302.164 1.862.49.569.327 1.017.784 1.344 1.372.326.588.49 1.246.49 1.974zm-1.33 0c0-.504-.108-.952-.322-1.344-.206-.401-.49-.71-.854-.924-.355-.224-.752-.336-1.19-.336-.44 0-.84.112-1.204.336-.355.215-.64.523-.854.924-.206.392-.308.84-.308 1.344 0 .495.102.938.308 1.33.214.392.499.7.854.924.364.215.765.322 1.204.322.438 0 .835-.107 1.19-.322.364-.224.648-.532.854-.924.214-.392.322-.835.322-1.33zm6.558-3.794c.634 0 1.209.163 1.722.49.513.318.915.765 1.204 1.344.299.579.448 1.232.448 1.96s-.15 1.381-.448 1.96c-.29.57-.69 1.017-1.204 1.344-.513.327-1.078.49-1.694.49-.486 0-.938-.107-1.358-.322-.42-.214-.76-.476-1.022-.784v3.108c0 .187-.066.346-.196.476-.121.13-.28.196-.476.196-.187 0-.346-.065-.476-.196-.122-.121-.182-.28-.182-.476v-8.806c0-.196.06-.36.182-.49.121-.13.28-.196.476-.196.196 0 .355.066.476.196.13.13.196.294.196.49v.406c.224-.327.55-.607.98-.84.43-.233.886-.35 1.372-.35zm-.154 6.356c.43 0 .817-.112 1.162-.336.345-.224.611-.527.798-.91.196-.392.294-.83.294-1.316 0-.485-.098-.92-.294-1.302-.187-.392-.453-.7-.798-.924-.346-.224-.733-.336-1.162-.336-.439 0-.83.112-1.176.336-.345.215-.616.518-.812.91-.187.392-.28.83-.28 1.316 0 .485.093.924.28 1.316.196.392.467.7.812.924.345.215.737.322 1.176.322zm7.06-4.928v4.172c0 .467.21.7.63.7.065 0 .153-.014.265-.042.112-.037.201-.056.266-.056.122 0 .224.052.308.154.084.103.126.234.126.392 0 .196-.112.364-.336.504-.224.14-.476.21-.756.21-.308 0-.592-.032-.854-.098-.252-.065-.48-.229-.686-.49-.196-.27-.294-.677-.294-1.218v-4.228h-.812c-.177 0-.326-.056-.448-.168-.112-.121-.168-.27-.168-.448 0-.177.056-.322.168-.434.122-.112.271-.168.448-.168h.812v-1.176c0-.186.061-.345.182-.476.131-.13.294-.196.49-.196.187 0 .341.066.462.196.131.13.196.29.196.476v1.176h1.162c.178 0 .322.06.434.182.122.112.182.257.182.434s-.06.322-.182.434c-.112.112-.256.168-.434.168h-1.162zm4.59 5.362c0 .187-.066.346-.196.476-.121.13-.28.196-.476.196-.187 0-.346-.065-.476-.196-.122-.13-.182-.29-.182-.476v-6.062c0-.186.06-.345.182-.476.13-.13.29-.196.476-.196.196 0 .355.066.476.196.13.13.196.29.196.476v6.062zm-.672-7.658c-.27 0-.467-.046-.588-.14-.112-.103-.168-.261-.168-.476v-.224c0-.224.06-.382.182-.476.13-.093.326-.14.588-.14.261 0 .448.052.56.154.121.094.182.248.182.462v.224c0 .224-.06.383-.182.476-.121.093-.313.14-.574.14zm9.528 4.662c0 .728-.164 1.381-.49 1.96-.327.579-.775 1.031-1.344 1.358-.56.327-1.181.49-1.862.49-.682 0-1.307-.163-1.876-.49-.56-.326-1.004-.78-1.33-1.358-.327-.579-.49-1.232-.49-1.96s.163-1.386.49-1.974c.326-.588.77-1.045 1.33-1.372.569-.326 1.194-.49 1.876-.49.681 0 1.302.164 1.862.49.569.327 1.017.784 1.344 1.372.326.588.49 1.246.49 1.974zm-1.33 0c0-.504-.108-.952-.322-1.344-.206-.401-.49-.71-.854-.924-.355-.224-.752-.336-1.19-.336-.439 0-.84.112-1.204.336-.355.215-.64.523-.854.924-.206.392-.308.84-.308 1.344 0 .495.102.938.308 1.33.214.392.499.7.854.924.364.215.765.322 1.204.322.438 0 .835-.107 1.19-.322.364-.224.648-.532.854-.924.214-.392.322-.835.322-1.33zm6.614-3.836c1.68 0 2.52 1.008 2.52 3.024v3.808c0 .187-.065.346-.196.476-.121.13-.28.196-.476.196-.187 0-.345-.065-.476-.196-.121-.13-.182-.29-.182-.476v-3.794c0-.55-.126-.99-.378-1.316-.252-.326-.663-.49-1.232-.49-.373 0-.714.084-1.022.252-.299.159-.537.378-.714.658-.168.27-.252.57-.252.896v3.794c0 .187-.065.346-.196.476-.121.13-.28.196-.476.196-.196 0-.355-.06-.476-.182-.121-.13-.182-.294-.182-.49v-5.992c0-.186.06-.345.182-.476.13-.13.29-.196.476-.196.196 0 .355.066.476.196.13.13.196.29.196.476v.49c.243-.373.579-.686 1.008-.938.439-.261.905-.392 1.4-.392zM250.406 29.3c-.681 0-1.283-.093-1.806-.28-.522-.196-1.022-.508-1.498-.938-.196-.168-.294-.36-.294-.574 0-.168.066-.317.196-.448.131-.14.285-.21.462-.21.159 0 .294.051.406.154.374.345.756.602 1.148.77.402.159.854.238 1.358.238.588 0 1.083-.135 1.484-.406.411-.27.616-.611.616-1.022-.009-.485-.214-.858-.616-1.12-.392-.27-.994-.494-1.806-.672-.961-.196-1.703-.518-2.226-.966-.513-.448-.77-1.069-.77-1.862 0-.55.145-1.031.434-1.442.29-.42.691-.742 1.204-.966.514-.224 1.092-.336 1.736-.336.579 0 1.125.094 1.638.28.514.187.929.434 1.246.742.215.187.322.387.322.602 0 .168-.065.317-.196.448-.121.13-.27.196-.448.196-.13 0-.238-.037-.322-.112-.242-.242-.578-.448-1.008-.616-.429-.168-.84-.252-1.232-.252-.625 0-1.124.13-1.498.392-.364.252-.546.588-.546 1.008 0 .457.182.807.546 1.05.374.243.924.448 1.652.616.728.159 1.321.345 1.778.56.467.215.826.514 1.078.896.252.383.378.882.378 1.498 0 .542-.154 1.022-.462 1.442-.298.42-.709.747-1.232.98-.522.233-1.096.35-1.722.35zm11.453-4.088c-.009.168-.079.313-.21.434-.131.112-.285.168-.462.168h-4.928c.065.681.322 1.227.77 1.638.457.41 1.013.616 1.666.616.448 0 .812-.065 1.092-.196.28-.13.527-.299.742-.504.14-.084.275-.126.406-.126.159 0 .289.056.392.168.112.112.168.243.168.392 0 .196-.093.373-.28.532-.271.27-.63.5-1.078.686-.448.187-.905.28-1.372.28-.756 0-1.423-.159-2.002-.476-.569-.317-1.013-.76-1.33-1.33-.308-.57-.462-1.213-.462-1.932 0-.784.159-1.47.476-2.058.327-.597.751-1.055 1.274-1.372.532-.317 1.101-.476 1.708-.476.597 0 1.157.154 1.68.462.523.308.943.733 1.26 1.274.317.541.481 1.148.49 1.82zm-3.43-2.324c-.523 0-.975.15-1.358.448-.383.29-.635.742-.756 1.358h4.13v-.112c-.047-.495-.271-.9-.672-1.218-.392-.317-.84-.476-1.344-.476zm6.416 5.6c0 .187-.065.346-.196.476-.13.13-.289.196-.476.196-.186 0-.345-.065-.476-.196-.121-.13-.182-.29-.182-.476v-9.016c0-.187.066-.345.196-.476.131-.13.29-.196.476-.196.187 0 .341.066.462.196.131.13.196.29.196.476v9.016zm8.403-3.276c-.01.168-.08.313-.21.434-.131.112-.285.168-.462.168h-4.928c.065.681.322 1.227.77 1.638.457.41 1.012.616 1.666.616.448 0 .812-.065 1.092-.196.28-.13.527-.299.742-.504.14-.084.275-.126.406-.126.158 0 .289.056.392.168.112.112.168.243.168.392 0 .196-.094.373-.28.532-.271.27-.63.5-1.078.686-.448.187-.906.28-1.372.28-.756 0-1.424-.159-2.002-.476-.57-.317-1.013-.76-1.33-1.33-.308-.57-.462-1.213-.462-1.932 0-.784.158-1.47.476-2.058.326-.597.751-1.055 1.274-1.372.532-.317 1.101-.476 1.708-.476.597 0 1.157.154 1.68.462.522.308.942.733 1.26 1.274.317.541.48 1.148.49 1.82zm-3.43-2.324c-.523 0-.976.15-1.358.448-.383.29-.635.742-.756 1.358h4.13v-.112c-.047-.495-.271-.9-.672-1.218-.392-.317-.84-.476-1.344-.476zm8.166-1.232c.737 0 1.349.117 1.834.35.495.233.742.532.742.896 0 .159-.051.303-.154.434-.103.122-.233.182-.392.182-.121 0-.219-.018-.294-.056-.065-.037-.159-.098-.28-.182-.056-.056-.145-.121-.266-.196-.112-.056-.271-.102-.476-.14-.205-.037-.392-.056-.56-.056-.485 0-.915.112-1.288.336-.373.224-.663.537-.868.938-.205.392-.308.83-.308 1.316 0 .495.098.938.294 1.33.205.392.49.7.854.924.364.224.779.336 1.246.336.485 0 .877-.075 1.176-.224.065-.037.154-.098.266-.182.093-.075.173-.13.238-.168.075-.037.163-.056.266-.056.187 0 .331.06.434.182.112.112.168.261.168.448 0 .196-.126.392-.378.588-.243.187-.574.34-.994.462-.411.122-.854.182-1.33.182-.709 0-1.335-.163-1.876-.49-.541-.336-.961-.793-1.26-1.372-.289-.588-.434-1.241-.434-1.96 0-.719.154-1.367.462-1.946.308-.588.737-1.045 1.288-1.372.551-.336 1.181-.504 1.89-.504zm5.987 1.47v4.172c0 .467.21.7.63.7.066 0 .154-.014.266-.042.112-.037.201-.056.266-.056.122 0 .224.052.308.154.084.103.126.234.126.392 0 .196-.112.364-.336.504-.224.14-.476.21-.756.21-.308 0-.592-.032-.854-.098-.252-.065-.48-.229-.686-.49-.196-.27-.294-.677-.294-1.218v-4.228h-.812c-.177 0-.326-.056-.448-.168-.112-.121-.168-.27-.168-.448 0-.177.056-.322.168-.434.122-.112.271-.168.448-.168h.812v-1.176c0-.186.061-.345.182-.476.131-.13.294-.196.49-.196.187 0 .341.066.462.196.131.13.196.29.196.476v1.176h1.162c.178 0 .322.06.434.182.122.112.182.257.182.434s-.06.322-.182.434c-.112.112-.256.168-.434.168h-1.162zm13.163-1.4c.196 0 .355.066.476.196.131.122.196.285.196.49v6.076c0 .187-.065.346-.196.476-.121.13-.28.196-.476.196-.196 0-.354-.06-.476-.182-.121-.13-.182-.294-.182-.49v-.364c-.242.327-.574.607-.994.84-.42.224-.872.336-1.358.336-.634 0-1.213-.163-1.736-.49-.513-.326-.919-.78-1.218-1.358-.289-.588-.434-1.246-.434-1.974s.145-1.381.434-1.96c.299-.588.705-1.045 1.218-1.372.514-.326 1.078-.49 1.694-.49.495 0 .952.103 1.372.308.43.206.77.467 1.022.784v-.336c0-.196.061-.36.182-.49.122-.13.28-.196.476-.196zm-2.856 6.342c.439 0 .826-.112 1.162-.336.346-.224.612-.532.798-.924.196-.392.294-.835.294-1.33 0-.485-.098-.924-.294-1.316-.186-.392-.452-.7-.798-.924-.336-.233-.723-.35-1.162-.35-.438 0-.83.112-1.176.336-.336.224-.602.532-.798.924-.186.392-.28.835-.28 1.33 0 .495.094.938.28 1.33.196.392.462.7.798.924.346.224.738.336 1.176.336zm9.244-6.412c1.68 0 2.52 1.008 2.52 3.024v3.808c0 .187-.065.346-.196.476-.121.13-.28.196-.476.196-.187 0-.345-.065-.476-.196-.121-.13-.182-.29-.182-.476v-3.794c0-.55-.126-.99-.378-1.316-.252-.326-.663-.49-1.232-.49-.373 0-.714.084-1.022.252-.299.159-.537.378-.714.658-.168.27-.252.57-.252.896v3.794c0 .187-.065.346-.196.476-.121.13-.28.196-.476.196-.196 0-.355-.06-.476-.182-.121-.13-.182-.294-.182-.49v-5.992c0-.186.061-.345.182-.476.131-.13.289-.196.476-.196.196 0 .355.066.476.196.131.13.196.29.196.476v.49c.243-.373.579-.686 1.008-.938.439-.261.905-.392 1.4-.392zm14.829 3.556c-.009.168-.079.313-.21.434-.131.112-.285.168-.462.168h-4.928c.065.681.322 1.227.77 1.638.457.41 1.013.616 1.666.616.448 0 .812-.065 1.092-.196.28-.13.527-.299.742-.504.14-.084.275-.126.406-.126.159 0 .289.056.392.168.112.112.168.243.168.392 0 .196-.093.373-.28.532-.271.27-.63.5-1.078.686-.448.187-.905.28-1.372.28-.756 0-1.423-.159-2.002-.476-.569-.317-1.013-.76-1.33-1.33-.308-.57-.462-1.213-.462-1.932 0-.784.159-1.47.476-2.058.327-.597.751-1.055 1.274-1.372.532-.317 1.101-.476 1.708-.476.597 0 1.157.154 1.68.462.523.308.943.733 1.26 1.274.317.541.481 1.148.49 1.82zm-3.43-2.324c-.523 0-.975.15-1.358.448-.383.29-.635.742-.756 1.358h4.13v-.112c-.047-.495-.271-.9-.672-1.218-.392-.317-.84-.476-1.344-.476zm10.267 5.236c.103.112.154.243.154.392 0 .187-.07.35-.21.49-.14.13-.294.196-.462.196-.214 0-.396-.098-.546-.294l-1.876-2.366-1.848 2.366c-.065.093-.144.163-.238.21-.093.047-.191.07-.294.07-.158 0-.308-.056-.448-.168-.13-.121-.196-.261-.196-.42 0-.168.052-.308.154-.42l2.1-2.618-2.156-2.716c-.093-.121-.14-.252-.14-.392 0-.187.066-.345.196-.476.14-.13.299-.196.476-.196.224 0 .406.093.546.28l1.918 2.422 1.806-2.408c.14-.196.318-.294.532-.294.178 0 .327.06.448.182.122.112.182.248.182.406 0 .177-.051.322-.154.434l-2.072 2.618 2.128 2.702zm5.157-6.426c.635 0 1.209.163 1.722.49.513.318.915.765 1.204 1.344.299.579.448 1.232.448 1.96s-.149 1.381-.448 1.96c-.289.57-.691 1.017-1.204 1.344-.513.327-1.078.49-1.694.49-.485 0-.938-.107-1.358-.322-.42-.214-.761-.476-1.022-.784v3.108c0 .187-.065.346-.196.476-.121.13-.28.196-.476.196-.187 0-.345-.065-.476-.196-.121-.121-.182-.28-.182-.476v-8.806c0-.196.061-.36.182-.49s.28-.196.476-.196c.196 0 .355.066.476.196.131.13.196.294.196.49v.406c.224-.327.551-.607.98-.84.429-.233.887-.35 1.372-.35zm-.154 6.356c.429 0 .817-.112 1.162-.336.345-.224.611-.527.798-.91.196-.392.294-.83.294-1.316 0-.485-.098-.92-.294-1.302-.187-.392-.453-.7-.798-.924-.345-.224-.733-.336-1.162-.336-.439 0-.831.112-1.176.336-.345.215-.616.518-.812.91-.187.392-.28.83-.28 1.316 0 .485.093.924.28 1.316.196.392.467.7.812.924.345.215.737.322 1.176.322zm8.726-6.398c.242 0 .452.066.63.196.177.122.266.276.266.462 0 .224-.061.397-.182.518-.112.112-.252.168-.42.168-.084 0-.21-.028-.378-.084-.196-.065-.35-.098-.462-.098-.29 0-.574.103-.854.308-.271.196-.495.471-.672.826-.168.345-.252.733-.252 1.162v3.374c0 .187-.066.346-.196.476-.122.13-.28.196-.476.196-.196 0-.355-.06-.476-.182-.122-.13-.182-.294-.182-.49v-5.992c0-.186.06-.345.182-.476.13-.13.289-.196.476-.196.196 0 .354.066.476.196.13.13.196.29.196.476v.714c.205-.457.513-.826.924-1.106.41-.29.877-.438 1.4-.448zm8.254 3.556c-.009.168-.079.313-.21.434-.13.112-.284.168-.462.168h-4.928c.066.681.322 1.227.77 1.638.458.41 1.013.616 1.666.616.448 0 .812-.065 1.092-.196.28-.13.528-.299.742-.504.14-.084.276-.126.406-.126.159 0 .29.056.392.168.112.112.168.243.168.392 0 .196-.093.373-.28.532-.27.27-.63.5-1.078.686-.448.187-.905.28-1.372.28-.756 0-1.423-.159-2.002-.476-.569-.317-1.012-.76-1.33-1.33-.308-.57-.462-1.213-.462-1.932 0-.784.159-1.47.476-2.058.327-.597.752-1.055 1.274-1.372.532-.317 1.102-.476 1.708-.476.598 0 1.158.154 1.68.462.523.308.943.733 1.26 1.274.318.541.481 1.148.49 1.82zm-3.43-2.324c-.522 0-.975.15-1.358.448-.382.29-.634.742-.756 1.358h4.13v-.112c-.046-.495-.27-.9-.672-1.218-.392-.317-.84-.476-1.344-.476zm4.555 5.124c-.084-.13-.126-.256-.126-.378 0-.186.098-.345.294-.476.093-.065.2-.098.322-.098.168 0 .322.07.462.21.28.317.578.556.896.714.326.159.714.238 1.162.238.354-.01.667-.088.938-.238.27-.159.406-.41.406-.756 0-.317-.14-.56-.42-.728-.271-.168-.672-.322-1.204-.462-.523-.14-.957-.285-1.302-.434-.346-.159-.64-.383-.882-.672-.234-.298-.35-.686-.35-1.162 0-.42.116-.788.35-1.106.242-.317.56-.565.952-.742.401-.177.835-.266 1.302-.266.448 0 .891.084 1.33.252.448.168.812.425 1.092.77.112.13.168.266.168.406 0 .15-.075.294-.224.434-.094.084-.21.126-.35.126-.168 0-.304-.056-.406-.168-.196-.224-.439-.396-.728-.518-.28-.121-.593-.182-.938-.182-.355 0-.658.075-.91.224-.243.14-.364.383-.364.728.009.327.149.57.42.728.28.159.704.313 1.274.462.494.13.905.27 1.232.42.326.15.602.373.826.672.224.29.336.672.336 1.148 0 .439-.126.822-.378 1.148-.252.317-.584.565-.994.742-.402.168-.831.252-1.288.252-.588 0-1.134-.102-1.638-.308-.495-.205-.915-.532-1.26-.98zm6.672 0c-.084-.13-.126-.256-.126-.378 0-.186.098-.345.294-.476.093-.065.2-.098.322-.098.168 0 .322.07.462.21.28.317.578.556.896.714.326.159.714.238 1.162.238.354-.01.667-.088.938-.238.27-.159.406-.41.406-.756 0-.317-.14-.56-.42-.728-.271-.168-.672-.322-1.204-.462-.523-.14-.957-.285-1.302-.434-.346-.159-.64-.383-.882-.672-.234-.298-.35-.686-.35-1.162 0-.42.116-.788.35-1.106.242-.317.56-.565.952-.742.401-.177.835-.266 1.302-.266.448 0 .891.084 1.33.252.448.168.812.425 1.092.77.112.13.168.266.168.406 0 .15-.075.294-.224.434-.094.084-.21.126-.35.126-.168 0-.304-.056-.406-.168-.196-.224-.439-.396-.728-.518-.28-.121-.593-.182-.938-.182-.355 0-.658.075-.91.224-.243.14-.364.383-.364.728.009.327.149.57.42.728.28.159.704.313 1.274.462.494.13.905.27 1.232.42.326.15.602.373.826.672.224.29.336.672.336 1.148 0 .439-.126.822-.378 1.148-.252.317-.584.565-.994.742-.402.168-.831.252-1.288.252-.588 0-1.134-.102-1.638-.308-.495-.205-.915-.532-1.26-.98zm8.351.476c0 .187-.065.346-.196.476-.121.13-.28.196-.476.196-.186 0-.345-.065-.476-.196-.121-.13-.182-.29-.182-.476v-6.062c0-.186.061-.345.182-.476.131-.13.29-.196.476-.196.196 0 .355.066.476.196.131.13.196.29.196.476v6.062zm-.672-7.658c-.27 0-.466-.046-.588-.14-.112-.103-.168-.261-.168-.476v-.224c0-.224.061-.382.182-.476.131-.093.327-.14.588-.14.262 0 .448.052.56.154.122.094.182.248.182.462v.224c0 .224-.06.383-.182.476-.121.093-.312.14-.574.14zm9.528 4.662c0 .728-.163 1.381-.49 1.96-.326.579-.774 1.031-1.344 1.358-.56.327-1.18.49-1.862.49-.681 0-1.306-.163-1.876-.49-.56-.326-1.003-.78-1.33-1.358-.326-.579-.49-1.232-.49-1.96s.164-1.386.49-1.974c.327-.588.77-1.045 1.33-1.372.57-.326 1.195-.49 1.876-.49.682 0 1.302.164 1.862.49.57.327 1.018.784 1.344 1.372.327.588.49 1.246.49 1.974zm-1.33 0c0-.504-.107-.952-.322-1.344-.205-.401-.49-.71-.854-.924-.354-.224-.751-.336-1.19-.336-.438 0-.84.112-1.204.336-.354.215-.639.523-.854.924-.205.392-.308.84-.308 1.344 0 .495.103.938.308 1.33.215.392.5.7.854.924.364.215.766.322 1.204.322.439 0 .836-.107 1.19-.322.364-.224.649-.532.854-.924.215-.392.322-.835.322-1.33zm6.615-3.836c1.68 0 2.52 1.008 2.52 3.024v3.808c0 .187-.066.346-.196.476-.122.13-.28.196-.476.196-.187 0-.346-.065-.476-.196-.122-.13-.182-.29-.182-.476v-3.794c0-.55-.126-.99-.378-1.316-.252-.326-.663-.49-1.232-.49-.374 0-.714.084-1.022.252-.299.159-.537.378-.714.658-.168.27-.252.57-.252.896v3.794c0 .187-.066.346-.196.476-.122.13-.28.196-.476.196-.196 0-.355-.06-.476-.182-.122-.13-.182-.294-.182-.49v-5.992c0-.186.06-.345.182-.476.13-.13.289-.196.476-.196.196 0 .354.066.476.196.13.13.196.29.196.476v.49c.242-.373.578-.686 1.008-.938.438-.261.905-.392 1.4-.392zM481.353 27.872c.196 0 .355.066.476.196.131.13.196.285.196.462 0 .187-.065.34-.196.462-.121.112-.28.168-.476.168h-4.872c-.186 0-.345-.065-.476-.196-.13-.13-.196-.29-.196-.476v-8.456c0-.186.066-.345.196-.476.131-.13.29-.196.476-.196h4.872c.196 0 .355.06.476.182.131.121.196.28.196.476 0 .187-.065.34-.196.462-.121.112-.28.168-.476.168h-4.158v2.856h3.528c.196 0 .355.06.476.182.131.122.196.276.196.462 0 .196-.065.35-.196.462-.121.112-.28.168-.476.168h-3.528v3.094h4.158zm6.011-6.216c1.68 0 2.52 1.008 2.52 3.024v3.808c0 .187-.066.346-.196.476-.122.13-.28.196-.476.196-.187 0-.346-.065-.476-.196-.122-.13-.182-.29-.182-.476v-3.794c0-.55-.126-.99-.378-1.316-.252-.326-.663-.49-1.232-.49-.374 0-.714.084-1.022.252-.299.159-.537.378-.714.658-.168.27-.252.57-.252.896v3.794c0 .187-.066.346-.196.476-.122.13-.28.196-.476.196-.196 0-.355-.06-.476-.182-.122-.13-.182-.294-.182-.49v-5.992c0-.186.06-.345.182-.476.13-.13.289-.196.476-.196.196 0 .354.066.476.196.13.13.196.29.196.476v.49c.242-.373.578-.686 1.008-.938.438-.261.905-.392 1.4-.392zm6.494 1.47v4.172c0 .467.21.7.63.7.065 0 .154-.014.266-.042.112-.037.2-.056.266-.056.121 0 .224.052.308.154.084.103.126.234.126.392 0 .196-.112.364-.336.504-.224.14-.476.21-.756.21-.308 0-.593-.032-.854-.098-.252-.065-.481-.229-.686-.49-.196-.27-.294-.677-.294-1.218v-4.228h-.812c-.178 0-.327-.056-.448-.168-.112-.121-.168-.27-.168-.448 0-.177.056-.322.168-.434.121-.112.27-.168.448-.168h.812v-1.176c0-.186.06-.345.182-.476.13-.13.294-.196.49-.196.186 0 .34.066.462.196.13.13.196.29.196.476v1.176h1.162c.177 0 .322.06.434.182.121.112.182.257.182.434s-.061.322-.182.434c-.112.112-.257.168-.434.168h-1.162zm9.702 2.086c-.01.168-.08.313-.21.434-.131.112-.285.168-.462.168h-4.928c.065.681.322 1.227.77 1.638.457.41 1.012.616 1.666.616.448 0 .812-.065 1.092-.196.28-.13.527-.299.742-.504.14-.084.275-.126.406-.126.158 0 .289.056.392.168.112.112.168.243.168.392 0 .196-.094.373-.28.532-.271.27-.63.5-1.078.686-.448.187-.906.28-1.372.28-.756 0-1.424-.159-2.002-.476-.57-.317-1.013-.76-1.33-1.33-.308-.57-.462-1.213-.462-1.932 0-.784.158-1.47.476-2.058.326-.597.751-1.055 1.274-1.372.532-.317 1.101-.476 1.708-.476.597 0 1.157.154 1.68.462.522.308.942.733 1.26 1.274.317.541.48 1.148.49 1.82zm-3.43-2.324c-.523 0-.976.15-1.358.448-.383.29-.635.742-.756 1.358h4.13v-.112c-.047-.495-.271-.9-.672-1.218-.392-.317-.84-.476-1.344-.476zm8.628-1.232c.243 0 .453.066.63.196.177.122.266.276.266.462 0 .224-.061.397-.182.518-.112.112-.252.168-.42.168-.084 0-.21-.028-.378-.084-.196-.065-.35-.098-.462-.098-.289 0-.574.103-.854.308-.271.196-.495.471-.672.826-.168.345-.252.733-.252 1.162v3.374c0 .187-.065.346-.196.476-.121.13-.28.196-.476.196-.196 0-.355-.06-.476-.182-.121-.13-.182-.294-.182-.49v-5.992c0-.186.061-.345.182-.476.131-.13.289-.196.476-.196.196 0 .355.066.476.196.131.13.196.29.196.476v.714c.205-.457.513-.826.924-1.106.411-.29.877-.438 1.4-.448zm8 1.47v4.172c0 .467.21.7.63.7.065 0 .154-.014.266-.042.112-.037.201-.056.266-.056.121 0 .224.052.308.154.084.103.126.234.126.392 0 .196-.112.364-.336.504-.224.14-.476.21-.756.21-.308 0-.593-.032-.854-.098-.252-.065-.481-.229-.686-.49-.196-.27-.294-.677-.294-1.218v-4.228h-.812c-.177 0-.327-.056-.448-.168-.112-.121-.168-.27-.168-.448 0-.177.056-.322.168-.434.121-.112.271-.168.448-.168h.812v-1.176c0-.186.061-.345.182-.476.131-.13.294-.196.49-.196.187 0 .341.066.462.196.131.13.196.29.196.476v1.176h1.162c.177 0 .322.06.434.182.121.112.182.257.182.434s-.061.322-.182.434c-.112.112-.257.168-.434.168h-1.162zm9.702 2.086c-.009.168-.079.313-.21.434-.131.112-.285.168-.462.168h-4.928c.065.681.322 1.227.77 1.638.457.41 1.013.616 1.666.616.448 0 .812-.065 1.092-.196.28-.13.527-.299.742-.504.14-.084.275-.126.406-.126.159 0 .289.056.392.168.112.112.168.243.168.392 0 .196-.093.373-.28.532-.271.27-.63.5-1.078.686-.448.187-.905.28-1.372.28-.756 0-1.423-.159-2.002-.476-.569-.317-1.013-.76-1.33-1.33-.308-.57-.462-1.213-.462-1.932 0-.784.159-1.47.476-2.058.327-.597.751-1.055 1.274-1.372.532-.317 1.101-.476 1.708-.476.597 0 1.157.154 1.68.462.523.308.943.733 1.26 1.274.317.541.481 1.148.49 1.82zm-3.43-2.324c-.523 0-.975.15-1.358.448-.383.29-.635.742-.756 1.358h4.13v-.112c-.047-.495-.271-.9-.672-1.218-.392-.317-.84-.476-1.344-.476zm10.267 5.236c.103.112.154.243.154.392 0 .187-.07.35-.21.49-.14.13-.294.196-.462.196-.214 0-.396-.098-.546-.294l-1.876-2.366-1.848 2.366c-.065.093-.144.163-.238.21-.093.047-.191.07-.294.07-.158 0-.308-.056-.448-.168-.13-.121-.196-.261-.196-.42 0-.168.052-.308.154-.42l2.1-2.618-2.156-2.716c-.093-.121-.14-.252-.14-.392 0-.187.066-.345.196-.476.14-.13.299-.196.476-.196.224 0 .406.093.546.28l1.918 2.422 1.806-2.408c.14-.196.318-.294.532-.294.178 0 .327.06.448.182.122.112.182.248.182.406 0 .177-.051.322-.154.434l-2.072 2.618 2.128 2.702zm4.16-4.998v4.172c0 .467.21.7.63.7.066 0 .154-.014.266-.042.112-.037.201-.056.266-.056.122 0 .224.052.308.154.084.103.126.234.126.392 0 .196-.112.364-.336.504-.224.14-.476.21-.756.21-.308 0-.592-.032-.854-.098-.252-.065-.48-.229-.686-.49-.196-.27-.294-.677-.294-1.218v-4.228h-.812c-.177 0-.326-.056-.448-.168-.112-.121-.168-.27-.168-.448 0-.177.056-.322.168-.434.122-.112.271-.168.448-.168h.812v-1.176c0-.186.061-.345.182-.476.131-.13.294-.196.49-.196.187 0 .341.066.462.196.131.13.196.29.196.476v1.176h1.162c.178 0 .322.06.434.182.122.112.182.257.182.434s-.06.322-.182.434c-.112.112-.256.168-.434.168h-1.162zM478.497 63.958c.532 0 1.008.136 1.428.406.43.261.766.62 1.008 1.078.243.458.364.97.364 1.54 0 .663-.154 1.246-.462 1.75-.308.504-.732.892-1.274 1.162-.541.27-1.162.406-1.862.406-.373 0-.737-.051-1.092-.154-.345-.103-.644-.252-.896-.448-.252-.14-.378-.331-.378-.574 0-.177.061-.34.182-.49.131-.15.285-.224.462-.224.168 0 .336.06.504.182.383.355.864.532 1.442.532.364 0 .7-.084 1.008-.252.318-.168.57-.406.756-.714.187-.317.28-.681.28-1.092 0-.606-.186-1.073-.56-1.4-.373-.326-.821-.49-1.344-.49-.149 0-.364.033-.644.098-.205.056-.359.084-.462.084-.168 0-.303-.056-.406-.168-.102-.121-.154-.27-.154-.448 0-.103.019-.191.056-.266.038-.075.098-.163.182-.266l2.38-2.618h-3.234c-.177 0-.326-.06-.448-.182-.121-.121-.182-.27-.182-.448 0-.177.061-.322.182-.434.122-.112.271-.168.448-.168h4.466c.215 0 .383.066.504.196.122.13.182.29.182.476 0 .168-.088.34-.266.518l-2.17 2.408zm10.955 2.17c.177 0 .327.06.448.182.121.112.182.257.182.434s-.061.322-.182.434c-.121.112-.271.168-.448.168h-.742v2.142c0 .187-.065.346-.196.476s-.289.196-.476.196-.345-.065-.476-.196c-.121-.13-.182-.29-.182-.476v-2.142h-3.836c-.168 0-.322-.065-.462-.196-.131-.13-.196-.285-.196-.462 0-.168.051-.317.154-.448l4.466-5.614c.065-.084.145-.15.238-.196.103-.047.205-.07.308-.07.187 0 .341.066.462.196.131.13.196.29.196.476v5.096h.742zm-2.072 0v-3.5l-2.73 3.5h2.73zm7.315-2.52c.607 0 1.158.14 1.652.42.495.27.882.653 1.162 1.148.28.486.42 1.031.42 1.638 0 .644-.168 1.228-.504 1.75-.326.523-.779.938-1.358 1.246-.569.299-1.194.448-1.876.448-.382 0-.765-.06-1.148-.182-.382-.121-.704-.29-.966-.504-.093-.075-.168-.172-.224-.294-.056-.121-.084-.243-.084-.364 0-.14.056-.266.168-.378.122-.121.276-.182.462-.182.122 0 .285.07.49.21.42.308.85.462 1.288.462.448 0 .854-.098 1.218-.294.374-.196.668-.462.882-.798.215-.336.322-.704.322-1.106 0-.597-.196-1.078-.588-1.442-.392-.364-.886-.546-1.484-.546-.252 0-.476.033-.672.098-.186.066-.415.163-.686.294-.112.056-.224.108-.336.154-.102.038-.191.056-.266.056-.27 0-.471-.08-.602-.238-.13-.158-.196-.34-.196-.546l.014-.14.504-3.626c.028-.15.103-.275.224-.378.131-.103.285-.154.462-.154h4.116c.178 0 .322.06.434.182.122.121.182.27.182.448 0 .177-.06.327-.182.448-.112.112-.256.168-.434.168h-3.654L493.071 64c.206-.112.453-.205.742-.28.299-.075.593-.112.882-.112z"/>
</svg>
