<svg xmlns="http://www.w3.org/2000/svg" width="534" height="227" fill="none" viewBox="0 0 534 227">
    <g clip-path="url(#clip0)">
        <path fill="#FAFAFA" d="M0 0H204V41H0z" transform="translate(46.444 185.098)"/>
        <path stroke="#E4E4E4" d="M46.444 225.598L250.444 225.598"/>
        <path fill="#E4E4E4" d="M248.444 185.098H250.444V225.098H248.444z"/>
        <path fill="#393E46" d="M78.452 200.284c.243 0 .439.079.588.238.15.158.224.364.224.616v5.068c0 .774-.163 1.46-.49 2.058-.326.597-.784 1.064-1.372 1.4-.588.336-1.26.504-2.016.504s-1.432-.168-2.03-.504c-.588-.336-1.045-.803-1.372-1.4-.326-.598-.49-1.284-.49-2.058v-5.068c0-.243.084-.444.252-.602.168-.168.383-.252.644-.252.224 0 .42.084.588.252.168.158.252.359.252.602v5.068c0 .448.098.849.294 1.204.196.345.458.611.784.798.336.186.696.28 1.078.28.402 0 .775-.094 1.12-.28.355-.187.635-.453.84-.798.215-.355.322-.756.322-1.204v-5.068c0-.252.07-.458.21-.616.14-.159.332-.238.574-.238zm5.927 9.954c-.672 0-1.27-.084-1.792-.252-.523-.168-1.013-.453-1.47-.854-.252-.224-.378-.472-.378-.742 0-.215.079-.402.238-.56.158-.168.35-.252.574-.252.177 0 .336.056.476.168.373.308.737.532 1.092.672.354.14.774.21 1.26.21.522 0 .97-.117 1.344-.35.382-.234.574-.523.574-.868 0-.42-.187-.747-.56-.98-.374-.243-.966-.425-1.778-.546-2.044-.299-3.066-1.251-3.066-2.856 0-.588.154-1.097.462-1.526.308-.439.728-.77 1.26-.994.532-.234 1.124-.35 1.778-.35.588 0 1.138.088 1.652.266.522.177.956.41 1.302.7.27.214.406.462.406.742 0 .214-.08.406-.238.574-.159.158-.346.238-.56.238-.14 0-.266-.042-.378-.126-.243-.196-.584-.374-1.022-.532-.43-.168-.817-.252-1.162-.252-.588 0-1.046.112-1.372.336-.318.214-.476.499-.476.854 0 .401.163.704.49.91.336.205.858.373 1.568.504.802.14 1.442.322 1.918.546.485.214.849.513 1.092.896.242.373.364.872.364 1.498 0 .588-.168 1.106-.504 1.554-.327.438-.766.779-1.316 1.022-.551.233-1.144.35-1.778.35zm9.403-9.94c.878 0 1.629.219 2.254.658.635.429 1.116 1.017 1.442 1.764.336.737.504 1.563.504 2.478 0 .914-.168 1.745-.504 2.492-.326.737-.807 1.325-1.442 1.764-.625.429-1.376.644-2.254.644h-3.346c-.242 0-.448-.08-.616-.238-.158-.168-.238-.374-.238-.616v-8.092c0-.243.08-.444.238-.602.168-.168.374-.252.616-.252h3.346zm-.14 8.19c.84 0 1.47-.308 1.89-.924.42-.626.63-1.414.63-2.366 0-.952-.214-1.736-.644-2.352-.42-.626-1.045-.938-1.876-.938h-2.31v6.58h2.31zm11.492 0c.243 0 .443.084.602.252.168.158.252.345.252.56 0 .233-.084.424-.252.574-.159.149-.359.224-.602.224h-4.69c-.243 0-.448-.08-.616-.238-.159-.168-.238-.374-.238-.616v-8.092c0-.243.08-.444.238-.602.168-.168.373-.252.616-.252h4.69c.243 0 .443.079.602.238.168.149.252.345.252.588 0 .233-.079.424-.238.574-.159.14-.364.21-.616.21h-3.794v2.38h3.164c.243 0 .443.079.602.238.168.149.252.345.252.588 0 .233-.079.424-.238.574-.159.14-.364.21-.616.21h-3.164v2.59h3.794zm7.872-.028c.242 0 .443.079.602.238.168.149.252.345.252.588 0 .233-.084.429-.252.588-.159.149-.36.224-.602.224h-4.55c-.243 0-.448-.08-.616-.238-.159-.168-.238-.374-.238-.616v-8.092c0-.243.084-.444.252-.602.168-.168.382-.252.644-.252.233 0 .434.084.602.252.168.158.252.359.252.602v7.308h3.654zm7.861 0c.243 0 .443.079.602.238.168.149.252.345.252.588 0 .233-.084.429-.252.588-.159.149-.359.224-.602.224h-4.55c-.243 0-.448-.08-.616-.238-.159-.168-.238-.374-.238-.616v-8.092c0-.243.084-.444.252-.602.168-.168.383-.252.644-.252.233 0 .434.084.602.252.168.158.252.359.252.602v7.308h3.654zm9.415-2.562c.224 0 .411.074.56.224.15.149.224.336.224.56 0 .214-.074.396-.224.546-.149.14-.336.21-.56.21h-.588v1.806c0 .242-.084.448-.252.616-.158.158-.359.238-.602.238-.233 0-.429-.08-.588-.238-.158-.168-.238-.374-.238-.616v-1.806h-3.64c-.205 0-.396-.08-.574-.238-.177-.168-.266-.364-.266-.588 0-.206.07-.392.21-.56l4.424-5.418c.178-.224.411-.336.7-.336.234 0 .43.084.588.252.159.158.238.359.238.602v4.746h.588zm-2.268 0v-2.8l-2.268 2.8h2.268zm8.023-2.38c.616 0 1.171.144 1.666.434.504.28.896.667 1.176 1.162.289.494.434 1.045.434 1.652 0 .625-.178 1.204-.532 1.736-.355.532-.826.956-1.414 1.274-.588.308-1.223.462-1.904.462-.364 0-.742-.056-1.134-.168-.383-.112-.696-.266-.938-.462-.112-.094-.206-.224-.28-.392-.075-.168-.112-.327-.112-.476 0-.168.07-.318.21-.448.149-.14.34-.21.574-.21.168 0 .378.088.63.266.392.242.737.364 1.036.364.382 0 .742-.089 1.078-.266.336-.178.602-.416.798-.714.205-.299.308-.621.308-.966 0-.504-.173-.915-.518-1.232-.346-.318-.756-.476-1.232-.476-.215 0-.406.028-.574.084-.168.056-.369.14-.602.252-.168.084-.304.144-.406.182-.094.037-.192.056-.294.056-.364 0-.626-.098-.784-.294-.15-.196-.224-.43-.224-.7 0-.094.004-.159.014-.196l.434-3.472c.037-.196.13-.355.28-.476.158-.131.345-.196.56-.196h4.046c.224 0 .41.074.56.224.149.149.224.336.224.56 0 .214-.075.396-.224.546-.15.14-.336.21-.56.21h-3.472l-.266 2.03c.177-.103.401-.187.672-.252.27-.066.527-.098.77-.098z"/>
    </g>
    <g clip-path="url(#clip1)">
        <path fill="#FAFAFA" d="M0 0H204V41H0z" transform="translate(46.444 103.098)"/>
        <path stroke="#E4E4E4" d="M46.444 143.598L250.444 143.598"/>
        <path fill="#E4E4E4" d="M248.444 103.098H250.444V143.098H248.444z"/>
        <path fill="#393E46" d="M78.452 118.284c.243 0 .439.079.588.238.15.158.224.364.224.616v5.068c0 .774-.163 1.46-.49 2.058-.326.597-.784 1.064-1.372 1.4-.588.336-1.26.504-2.016.504s-1.432-.168-2.03-.504c-.588-.336-1.045-.803-1.372-1.4-.326-.598-.49-1.284-.49-2.058v-5.068c0-.243.084-.444.252-.602.168-.168.383-.252.644-.252.224 0 .42.084.588.252.168.158.252.359.252.602v5.068c0 .448.098.849.294 1.204.196.345.458.611.784.798.336.186.696.28 1.078.28.402 0 .775-.094 1.12-.28.355-.187.635-.453.84-.798.215-.355.322-.756.322-1.204v-5.068c0-.252.07-.458.21-.616.14-.159.332-.238.574-.238zm10.417 8.358c.056.074.103.168.14.28.038.102.056.2.056.294 0 .252-.098.462-.294.63-.186.168-.406.252-.658.252-.12 0-.238-.028-.35-.084-.112-.056-.205-.136-.28-.238l-3.038-4.004-1.33 1.274v2.198c0 .252-.084.457-.252.616-.158.158-.368.238-.63.238-.252 0-.462-.08-.63-.238-.158-.168-.238-.374-.238-.616v-8.092c0-.243.084-.444.252-.602.168-.168.383-.252.644-.252.252 0 .458.079.616.238.16.158.238.364.238.616v3.808l4.48-4.41c.215-.215.444-.322.686-.322.215 0 .397.088.546.266.15.177.224.364.224.56 0 .196-.084.378-.252.546l-3.052 2.912 3.122 4.13zm2.272 1.442c-.27 0-.48-.07-.63-.21-.14-.15-.21-.36-.21-.63v-.238c0-.271.07-.476.21-.616.15-.15.36-.224.63-.224h.182c.27 0 .476.074.616.224.15.14.224.345.224.616v.238c0 .27-.074.48-.224.63-.14.14-.345.21-.616.21h-.182zm9.325-9.786c.252 0 .457.074.616.224.158.149.238.345.238.588 0 .242-.08.438-.238.588-.159.14-.364.21-.616.21h-2.198v7.336c0 .242-.09.448-.266.616-.178.158-.397.238-.658.238-.262 0-.476-.08-.644-.238-.168-.168-.252-.374-.252-.616v-7.336H94.25c-.252 0-.458-.075-.616-.224-.16-.15-.238-.346-.238-.588 0-.234.079-.425.238-.574.168-.15.373-.224.616-.224h6.216zm9.614-.028c.233 0 .434.079.602.238.177.158.266.35.266.574 0 .121-.028.247-.084.378l-3.458 8.092c-.084.177-.201.312-.35.406-.149.093-.308.14-.476.14-.159-.01-.308-.056-.448-.14-.131-.094-.233-.224-.308-.392l-3.458-8.12c-.047-.094-.07-.21-.07-.35 0-.252.093-.453.28-.602.187-.159.378-.238.574-.238.159 0 .308.046.448.14.14.093.247.228.322.406l2.814 6.622 2.576-6.622c.075-.168.182-.299.322-.392.14-.094.289-.14.448-.14zm2.936 9.814c-.27 0-.48-.07-.63-.21-.14-.15-.21-.36-.21-.63v-.238c0-.271.07-.476.21-.616.15-.15.36-.224.63-.224h.182c.271 0 .476.074.616.224.15.14.224.345.224.616v.238c0 .27-.074.48-.224.63-.14.14-.345.21-.616.21h-.182zm5.979-6.202c.513.018.966.168 1.358.448.401.28.709.648.924 1.106.214.448.322.928.322 1.442 0 .681-.154 1.278-.462 1.792-.308.504-.742.891-1.302 1.162-.56.27-1.214.406-1.96.406-.336 0-.672-.042-1.008-.126-.336-.084-.63-.196-.882-.336-.346-.187-.518-.439-.518-.756 0-.224.079-.43.238-.616.158-.187.35-.28.574-.28.186 0 .387.07.602.21.401.308.844.462 1.33.462.289 0 .564-.07.826-.21.261-.15.471-.36.63-.63.168-.28.252-.598.252-.952 0-.504-.154-.896-.462-1.176-.299-.28-.663-.42-1.092-.42-.187 0-.35.018-.49.056-.14.037-.224.06-.252.07-.243.074-.444.112-.602.112-.206 0-.369-.07-.49-.21-.122-.15-.182-.332-.182-.546 0-.131.023-.248.07-.35.046-.103.126-.215.238-.336l2.17-2.366h-2.772c-.224 0-.411-.075-.56-.224-.15-.15-.224-.336-.224-.56 0-.215.074-.392.224-.532.149-.15.336-.224.56-.224h4.284c.28 0 .494.079.644.238.149.149.224.35.224.602 0 .224-.112.448-.336.672l-1.876 2.072zm4.822 6.202c-.271 0-.481-.07-.63-.21-.14-.15-.21-.36-.21-.63v-.238c0-.271.07-.476.21-.616.149-.15.359-.224.63-.224h.182c.271 0 .476.074.616.224.149.14.224.345.224.616v.238c0 .27-.075.48-.224.63-.14.14-.345.21-.616.21h-.182zm9.842-4.186c.224 0 .411.074.56.224.15.149.224.336.224.56 0 .214-.074.396-.224.546-.149.14-.336.21-.56.21h-.588v1.806c0 .242-.084.448-.252.616-.158.158-.359.238-.602.238-.233 0-.429-.08-.588-.238-.158-.168-.238-.374-.238-.616v-1.806h-3.64c-.205 0-.396-.08-.574-.238-.177-.168-.266-.364-.266-.588 0-.206.07-.392.21-.56l4.424-5.418c.178-.224.411-.336.7-.336.234 0 .43.084.588.252.159.158.238.359.238.602v4.746h.588zm-2.268 0v-2.8l-2.268 2.8h2.268zm8.022-2.38c.616 0 1.172.144 1.666.434.504.28.896.667 1.176 1.162.29.494.434 1.045.434 1.652 0 .625-.177 1.204-.532 1.736-.354.532-.826.956-1.414 1.274-.588.308-1.222.462-1.904.462-.364 0-.742-.056-1.134-.168-.382-.112-.695-.266-.938-.462-.112-.094-.205-.224-.28-.392-.074-.168-.112-.327-.112-.476 0-.168.07-.318.21-.448.15-.14.341-.21.574-.21.168 0 .378.088.63.266.392.242.738.364 1.036.364.383 0 .742-.089 1.078-.266.336-.178.602-.416.798-.714.206-.299.308-.621.308-.966 0-.504-.172-.915-.518-1.232-.345-.318-.756-.476-1.232-.476-.214 0-.406.028-.574.084-.168.056-.368.14-.602.252-.168.084-.303.144-.406.182-.093.037-.191.056-.294.056-.364 0-.625-.098-.784-.294-.149-.196-.224-.43-.224-.7 0-.094.005-.159.014-.196l.434-3.472c.038-.196.131-.355.28-.476.159-.131.346-.196.56-.196h4.046c.224 0 .411.074.56.224.15.149.224.336.224.56 0 .214-.074.396-.224.546-.149.14-.336.21-.56.21h-3.472l-.266 2.03c.178-.103.402-.187.672-.252.271-.066.528-.098.77-.098z"/>
    </g>
    <g clip-path="url(#clip2)">
        <path fill="#fff" d="M0 0H204V41H0z" transform="translate(46.444 144.098)"/>
        <path stroke="#E4E4E4" d="M46.444 184.598L250.444 184.598"/>
        <path fill="#E4E4E4" d="M248.444 144.098H250.444V184.098H248.444z"/>
        <path fill="#393E46" d="M78.452 159.284c.243 0 .439.079.588.238.15.158.224.364.224.616v5.068c0 .774-.163 1.46-.49 2.058-.326.597-.784 1.064-1.372 1.4-.588.336-1.26.504-2.016.504s-1.432-.168-2.03-.504c-.588-.336-1.045-.803-1.372-1.4-.326-.598-.49-1.284-.49-2.058v-5.068c0-.243.084-.444.252-.602.168-.168.383-.252.644-.252.224 0 .42.084.588.252.168.158.252.359.252.602v5.068c0 .448.098.849.294 1.204.196.345.458.611.784.798.336.186.696.28 1.078.28.402 0 .775-.094 1.12-.28.355-.187.635-.453.84-.798.215-.355.322-.756.322-1.204v-5.068c0-.252.07-.458.21-.616.14-.159.332-.238.574-.238zm10.417 8.358c.056.074.103.168.14.28.038.102.056.2.056.294 0 .252-.098.462-.294.63-.186.168-.406.252-.658.252-.12 0-.238-.028-.35-.084-.112-.056-.205-.136-.28-.238l-3.038-4.004-1.33 1.274v2.198c0 .252-.084.457-.252.616-.158.158-.368.238-.63.238-.252 0-.462-.08-.63-.238-.158-.168-.238-.374-.238-.616v-8.092c0-.243.084-.444.252-.602.168-.168.383-.252.644-.252.252 0 .458.079.616.238.16.158.238.364.238.616v3.808l4.48-4.41c.215-.215.444-.322.686-.322.215 0 .397.088.546.266.15.177.224.364.224.56 0 .196-.084.378-.252.546l-3.052 2.912 3.122 4.13zm2.272 1.442c-.27 0-.48-.07-.63-.21-.14-.15-.21-.36-.21-.63v-.238c0-.271.07-.476.21-.616.15-.15.36-.224.63-.224h.182c.27 0 .476.074.616.224.15.14.224.345.224.616v.238c0 .27-.074.48-.224.63-.14.14-.345.21-.616.21h-.182zm11.383-9.8c.233 0 .434.084.602.252.177.158.266.359.266.602v8.106c0 .242-.08.448-.238.616-.159.158-.369.238-.63.238-.262 0-.476-.08-.644-.238-.159-.159-.238-.364-.238-.616v-5.642l-2.31 3.528c-.094.112-.201.205-.322.28-.122.065-.248.093-.378.084-.122.009-.243-.019-.364-.084-.122-.075-.23-.168-.322-.28l-2.31-3.654v5.768c0 .252-.075.457-.224.616-.15.158-.346.238-.588.238-.234 0-.425-.08-.574-.238-.15-.168-.224-.374-.224-.616v-8.106c0-.234.084-.434.252-.602.177-.168.387-.252.63-.252.14 0 .28.037.42.112.14.065.247.154.322.266l3.052 4.69 3.136-4.69c.074-.112.172-.201.294-.266.13-.075.261-.112.392-.112zm10.658 8.722c.047.121.07.233.07.336 0 .242-.079.443-.238.602-.158.149-.34.224-.546.224-.168 0-.322-.052-.462-.154-.13-.103-.233-.243-.308-.42l-.728-1.694h-4.172l-.728 1.708c-.065.177-.168.317-.308.42-.13.093-.275.14-.434.14-.242 0-.429-.066-.56-.196-.121-.131-.182-.308-.182-.532 0-.084.014-.173.042-.266l3.486-8.372c.075-.187.187-.332.336-.434.15-.103.318-.145.504-.126.168 0 .322.051.462.154.15.093.257.228.322.406l3.444 8.204zm-2.898-2.716l-1.414-3.276-1.386 3.276h2.8zm10.945-5.516c.29.149.434.387.434.714 0 .196-.07.387-.21.574-.149.196-.34.294-.574.294-.158 0-.317-.042-.476-.126-.457-.215-.952-.322-1.484-.322-.653 0-1.222.14-1.708.42-.485.27-.858.658-1.12 1.162-.261.494-.392 1.064-.392 1.708 0 1.101.294 1.936.882 2.506.598.569 1.377.854 2.338.854.57 0 1.064-.108 1.484-.322.168-.075.318-.112.448-.112.243 0 .448.102.616.308.14.177.21.368.21.574 0 .149-.037.284-.112.406-.074.121-.182.214-.322.28-.728.364-1.502.546-2.324.546-.914 0-1.754-.192-2.52-.574-.765-.392-1.376-.966-1.834-1.722-.457-.756-.686-1.671-.686-2.744 0-.952.215-1.806.644-2.562.439-.756 1.041-1.344 1.806-1.764.766-.43 1.629-.644 2.59-.644.831 0 1.601.182 2.31.546zm2.52 9.31c-.271 0-.481-.07-.63-.21-.14-.15-.21-.36-.21-.63v-.238c0-.271.07-.476.21-.616.149-.15.359-.224.63-.224h.182c.27 0 .476.074.616.224.149.14.224.345.224.616v.238c0 .27-.075.48-.224.63-.14.14-.346.21-.616.21h-.182zm9.842-4.186c.224 0 .411.074.56.224.149.149.224.336.224.56 0 .214-.075.396-.224.546-.149.14-.336.21-.56.21h-.588v1.806c0 .242-.084.448-.252.616-.159.158-.359.238-.602.238-.233 0-.429-.08-.588-.238-.159-.168-.238-.374-.238-.616v-1.806h-3.64c-.205 0-.397-.08-.574-.238-.177-.168-.266-.364-.266-.588 0-.206.07-.392.21-.56l4.424-5.418c.177-.224.411-.336.7-.336.233 0 .429.084.588.252.159.158.238.359.238.602v4.746h.588zm-2.268 0v-2.8l-2.268 2.8h2.268zm8.022-2.38c.616 0 1.171.144 1.666.434.504.28.896.667 1.176 1.162.289.494.434 1.045.434 1.652 0 .625-.177 1.204-.532 1.736-.355.532-.826.956-1.414 1.274-.588.308-1.223.462-1.904.462-.364 0-.742-.056-1.134-.168-.383-.112-.695-.266-.938-.462-.112-.094-.205-.224-.28-.392-.075-.168-.112-.327-.112-.476 0-.168.07-.318.21-.448.149-.14.341-.21.574-.21.168 0 .378.088.63.266.392.242.737.364 1.036.364.383 0 .742-.089 1.078-.266.336-.178.602-.416.798-.714.205-.299.308-.621.308-.966 0-.504-.173-.915-.518-1.232-.345-.318-.756-.476-1.232-.476-.215 0-.406.028-.574.084-.168.056-.369.14-.602.252-.168.084-.303.144-.406.182-.093.037-.191.056-.294.056-.364 0-.625-.098-.784-.294-.149-.196-.224-.43-.224-.7 0-.094.005-.159.014-.196l.434-3.472c.037-.196.131-.355.28-.476.159-.131.345-.196.56-.196h4.046c.224 0 .411.074.56.224.149.149.224.336.224.56 0 .214-.075.396-.224.546-.149.14-.336.21-.56.21h-3.472l-.266 2.03c.177-.103.401-.187.672-.252.271-.066.527-.098.77-.098z"/>
    </g>
    <g clip-path="url(#clip3)">
        <path fill="#fff" d="M0 0H202V52H0z" transform="translate(48.444 51.098)"/>
        <g clip-path="url(#clip4)">
            <g clip-path="url(#clip5)">
                <path fill="#393E46" d="M80.928 71.298c.224 0 .406.074.546.224.14.149.21.336.21.56v8.162c0 .242-.084.448-.252.616-.158.158-.359.238-.602.238-.13 0-.261-.019-.392-.056-.121-.047-.21-.108-.266-.182l-5.138-6.524v5.978c0 .224-.074.41-.224.56-.14.149-.326.224-.56.224-.224 0-.406-.075-.546-.224-.14-.15-.21-.336-.21-.56v-8.162c0-.243.08-.444.238-.602.168-.168.374-.252.616-.252.14 0 .276.028.406.084.14.056.243.13.308.224l5.096 6.496v-6.02c0-.224.07-.411.21-.56.15-.15.336-.224.56-.224zm10.547 8.708c.047.121.07.233.07.336 0 .242-.08.443-.238.602-.158.149-.34.224-.546.224-.168 0-.322-.052-.462-.154-.13-.103-.233-.243-.308-.42l-.728-1.694h-4.172l-.728 1.708c-.065.177-.168.317-.308.42-.13.093-.275.14-.434.14-.242 0-.43-.066-.56-.196-.121-.131-.182-.308-.182-.532 0-.084.014-.173.042-.266l3.486-8.372c.075-.187.187-.332.336-.434.15-.103.318-.145.504-.126.168 0 .322.051.462.154.15.093.257.228.322.406l3.444 8.204zm-2.898-2.716l-1.414-3.276-1.386 3.276h2.8zm12.652-6.006c.233 0 .434.084.602.252.177.158.266.359.266.602v8.106c0 .242-.08.448-.238.616-.159.158-.369.238-.63.238-.262 0-.476-.08-.644-.238-.159-.159-.238-.364-.238-.616v-5.642l-2.31 3.528c-.094.112-.201.205-.322.28-.122.065-.248.093-.378.084-.122.009-.243-.019-.364-.084-.122-.075-.229-.168-.322-.28l-2.31-3.654v5.768c0 .252-.075.457-.224.616-.15.158-.346.238-.588.238-.234 0-.425-.08-.574-.238-.15-.168-.224-.374-.224-.616v-8.106c0-.234.084-.434.252-.602.177-.168.387-.252.63-.252.14 0 .28.037.42.112.14.065.247.154.322.266l3.052 4.69 3.136-4.69c.074-.112.172-.201.294-.266.13-.075.261-.112.392-.112zm8.516 8.204c.243 0 .444.084.602.252.168.158.252.345.252.56 0 .233-.084.424-.252.574-.158.149-.359.224-.602.224h-4.69c-.242 0-.448-.08-.616-.238-.158-.168-.238-.374-.238-.616v-8.092c0-.243.08-.444.238-.602.168-.168.374-.252.616-.252h4.69c.243 0 .444.079.602.238.168.149.252.345.252.588 0 .233-.079.424-.238.574-.158.14-.364.21-.616.21h-3.794v2.38h3.164c.243 0 .444.079.602.238.168.149.252.345.252.588 0 .233-.079.424-.238.574-.158.14-.364.21-.616.21h-3.164v2.59h3.794z"/>
                <path fill="#FF8A00" fill-rule="evenodd" d="M133.312 73.504l.713.699 3.108 3.056c.415.408.415 1.07 0 1.477l-1.073 1.056c-.415.407-1.088.407-1.503 0l-3.115-3.06-3.11 3.06c-.415.408-1.088.408-1.503 0l-1.073-1.056c-.415-.408-.415-1.07 0-1.477l4.937-4.855c.415-.408 1.088-.408 1.503 0l1.073 1.055.043.045z" clip-rule="evenodd"/>
            </g>
            <rect width="2" height="26" x="248.444" y="63.098" fill="#E4E4E4" rx="1"/>
        </g>
        <path fill="#E4E4E4" d="M48.444 101.098H250.44400000000002V103.098H48.444z"/>
    </g>
    <g clip-path="url(#clip6)">
        <path fill="#fff" d="M0 0H128V40H0z" transform="translate(.444 .098)"/>
        <path fill="#393E46" d="M32.498 24.006c.046.121.07.233.07.336 0 .242-.08.443-.238.602-.159.149-.34.224-.546.224-.168 0-.322-.052-.462-.154-.13-.103-.234-.243-.308-.42l-.728-1.694h-4.172l-.728 1.708c-.066.177-.168.317-.308.42-.13.093-.276.14-.434.14-.243 0-.43-.066-.56-.196-.122-.131-.182-.308-.182-.532 0-.084.014-.173.042-.266l3.486-8.372c.074-.187.186-.332.336-.434.15-.103.317-.145.504-.126.168 0 .322.051.462.154.15.093.256.228.322.406l3.444 8.204zM29.6 21.29l-1.414-3.276L26.8 21.29h2.8zm9.557 2.17c.243 0 .444.079.602.238.168.149.252.345.252.588 0 .233-.084.429-.252.588-.159.149-.36.224-.602.224h-4.55c-.242 0-.448-.08-.616-.238-.158-.168-.238-.374-.238-.616v-8.092c0-.243.084-.444.252-.602.168-.168.383-.252.644-.252.233 0 .434.084.602.252.168.158.252.359.252.602v7.308h3.654zm7.862 0c.242 0 .443.079.602.238.167.149.252.345.252.588 0 .233-.084.429-.252.588-.16.149-.36.224-.602.224h-4.55c-.243 0-.449-.08-.617-.238-.158-.168-.237-.374-.237-.616v-8.092c0-.243.084-.444.252-.602.168-.168.382-.252.644-.252.233 0 .433.084.601.252.169.158.252.359.252.602v7.308h3.655zm14.067.546c.046.121.07.233.07.336 0 .242-.08.443-.238.602-.16.149-.341.224-.546.224-.168 0-.322-.052-.462-.154-.131-.103-.234-.243-.308-.42l-.728-1.694h-4.172l-.728 1.708c-.066.177-.168.317-.308.42-.131.093-.276.14-.434.14-.243 0-.43-.066-.56-.196-.122-.131-.182-.308-.182-.532 0-.084.014-.173.042-.266l3.486-8.372c.074-.187.186-.332.336-.434.149-.103.317-.145.504-.126.168 0 .322.051.462.154.149.093.256.228.322.406l3.444 8.204zm-2.898-2.716l-1.414-3.276-1.386 3.276h2.8zm7.303 3.948c-.672 0-1.27-.084-1.792-.252-.523-.168-1.013-.453-1.47-.854-.252-.224-.378-.472-.378-.742 0-.215.08-.402.238-.56.159-.168.35-.252.574-.252.177 0 .336.056.476.168.373.308.737.532 1.092.672.355.14.775.21 1.26.21.523 0 .97-.117 1.344-.35.383-.234.574-.523.574-.868 0-.42-.187-.747-.56-.98-.373-.243-.966-.425-1.778-.546-2.044-.299-3.066-1.251-3.066-2.856 0-.588.154-1.097.462-1.526.308-.439.728-.77 1.26-.994.532-.234 1.125-.35 1.778-.35.588 0 1.139.088 1.652.266.523.177.957.41 1.302.7.27.214.406.462.406.742 0 .214-.08.406-.238.574-.159.158-.345.238-.56.238-.14 0-.266-.042-.378-.126-.243-.196-.583-.374-1.022-.532-.43-.168-.817-.252-1.162-.252-.588 0-1.045.112-1.372.336-.317.214-.476.499-.476.854 0 .401.163.704.49.91.336.205.859.373 1.568.504.803.14 1.442.322 1.918.546.485.214.85.513 1.092.896.243.373.364.872.364 1.498 0 .588-.168 1.106-.504 1.554-.327.438-.765.779-1.316 1.022-.55.233-1.143.35-1.778.35zm8.353 0c-.671 0-1.269-.084-1.791-.252-.523-.168-1.013-.453-1.47-.854-.252-.224-.379-.472-.379-.742 0-.215.08-.402.239-.56.158-.168.35-.252.573-.252.178 0 .337.056.477.168.373.308.737.532 1.092.672.354.14.774.21 1.26.21.522 0 .97-.117 1.344-.35.382-.234.574-.523.574-.868 0-.42-.187-.747-.56-.98-.374-.243-.966-.425-1.779-.546-2.044-.299-3.066-1.251-3.066-2.856 0-.588.154-1.097.462-1.526.309-.439.729-.77 1.26-.994.532-.234 1.125-.35 1.779-.35.588 0 1.138.088 1.651.266.523.177.957.41 1.302.7.271.214.407.462.407.742 0 .214-.08.406-.238.574-.16.158-.346.238-.56.238-.14 0-.267-.042-.379-.126-.242-.196-.583-.374-1.022-.532-.429-.168-.816-.252-1.161-.252-.588 0-1.046.112-1.372.336-.318.214-.477.499-.477.854 0 .401.164.704.49.91.337.205.86.373 1.569.504.802.14 1.441.322 1.918.546.485.214.849.513 1.092.896.242.373.364.872.364 1.498 0 .588-.168 1.106-.504 1.554-.327.438-.766.779-1.316 1.022-.551.233-1.144.35-1.779.35zm10.748-1.75c.243 0 .443.084.602.252.168.158.252.345.252.56 0 .233-.084.424-.252.574-.159.149-.36.224-.602.224h-4.69c-.243 0-.448-.08-.616-.238-.159-.168-.238-.374-.238-.616v-8.092c0-.243.08-.444.238-.602.168-.168.373-.252.616-.252h4.69c.243 0 .443.079.602.238.168.149.252.345.252.588 0 .233-.08.424-.238.574-.159.14-.364.21-.616.21h-3.794v2.38h3.164c.243 0 .443.079.602.238.168.149.252.345.252.588 0 .233-.08.424-.238.574-.159.14-.364.21-.616.21h-3.164v2.59h3.794zm8.908-8.19c.252 0 .457.074.616.224.158.149.238.345.238.588 0 .242-.08.438-.238.588-.159.14-.364.21-.616.21h-2.198v7.336c0 .242-.089.448-.266.616-.178.158-.397.238-.658.238-.262 0-.476-.08-.644-.238-.168-.168-.252-.374-.252-.616v-7.336h-2.198c-.252 0-.458-.075-.616-.224-.159-.15-.238-.346-.238-.588 0-.234.08-.425.238-.574.168-.15.373-.224.616-.224H93.5zm5.473 9.94c-.672 0-1.269-.084-1.792-.252-.522-.168-1.012-.453-1.47-.854-.252-.224-.378-.472-.378-.742 0-.215.08-.402.238-.56.16-.168.35-.252.574-.252.178 0 .336.056.476.168.374.308.738.532 1.092.672.355.14.775.21 1.26.21.523 0 .971-.117 1.344-.35.383-.234.574-.523.574-.868 0-.42-.186-.747-.56-.98-.373-.243-.966-.425-1.778-.546-2.044-.299-3.066-1.251-3.066-2.856 0-.588.154-1.097.462-1.526.308-.439.728-.77 1.26-.994.532-.234 1.125-.35 1.778-.35.588 0 1.139.088 1.652.266.523.177.957.41 1.302.7.271.214.406.462.406.742 0 .214-.079.406-.238.574-.158.158-.345.238-.56.238-.14 0-.266-.042-.378-.126-.242-.196-.583-.374-1.022-.532-.429-.168-.816-.252-1.162-.252-.588 0-1.045.112-1.372.336-.317.214-.476.499-.476.854 0 .401.164.704.49.91.336.205.86.373 1.568.504.803.14 1.442.322 1.918.546.486.214.85.513 1.092.896.243.373.364.872.364 1.498 0 .588-.168 1.106-.504 1.554-.326.438-.765.779-1.316 1.022-.55.233-1.143.35-1.778.35z"/>
        <path stroke="#FF8A00" stroke-linecap="round" stroke-width="2" d="M56.444 31.098L70.444 31.098"/>
        <path fill="#E4E4E4" d="M126.444 0.098H128.44400000000002V40.098H126.444z"/>
    </g>
    <g clip-path="url(#clip7)">
        <path fill="#fff" d="M0 0H48V52H0z" transform="translate(.444 51.098)"/>
        <path fill="#61656B" d="M37.24 71.27c-.233 0-.434.079-.602.238-.177.158-.266.35-.266.574 0 .121.028.247.084.378l3.458 8.092c.084.177.201.312.35.406.15.093.308.14.476.14.159-.01.308-.056.448-.14.131-.094.234-.224.308-.392l3.458-8.12c.047-.094.07-.21.07-.35 0-.252-.093-.453-.28-.602-.186-.159-.378-.238-.574-.238-.158 0-.308.046-.448.14-.14.093-.247.228-.322.406l-2.814 6.622-2.576-6.622c-.074-.168-.182-.299-.322-.392-.14-.094-.289-.14-.448-.14z"/>
        <path stroke="#E4E4E4" stroke-width="2" d="M0.444 102.098L48.444 102.098"/>
    </g>
    <g clip-path="url(#clip8)">
        <path fill="#F2F2F2" d="M0 0H128V40H0z" transform="translate(128.444 .098)"/>
        <path fill="#61656B" d="M168.46 15.284c.233 0 .434.084.602.252.177.158.266.359.266.602v8.106c0 .242-.079.448-.238.616-.159.158-.369.238-.63.238s-.476-.08-.644-.238c-.159-.159-.238-.364-.238-.616v-5.642l-2.31 3.528c-.093.112-.201.205-.322.28-.121.065-.247.093-.378.084-.121.009-.243-.019-.364-.084-.121-.075-.229-.168-.322-.28l-2.31-3.654v5.768c0 .252-.075.457-.224.616-.149.158-.345.238-.588.238-.233 0-.425-.08-.574-.238-.149-.168-.224-.374-.224-.616v-8.106c0-.234.084-.434.252-.602.177-.168.387-.252.63-.252.14 0 .28.037.42.112.14.065.247.154.322.266l3.052 4.69 3.136-4.69c.075-.112.173-.201.294-.266.131-.075.261-.112.392-.112zm10.659 8.722c.046.121.07.233.07.336 0 .242-.08.443-.238.602-.159.149-.341.224-.546.224-.168 0-.322-.052-.462-.154-.131-.103-.234-.243-.308-.42l-.728-1.694h-4.172l-.728 1.708c-.066.177-.168.317-.308.42-.131.093-.276.14-.434.14-.243 0-.43-.066-.56-.196-.122-.131-.182-.308-.182-.532 0-.084.014-.173.042-.266l3.486-8.372c.074-.187.186-.332.336-.434.149-.103.317-.145.504-.126.168 0 .322.051.462.154.149.093.256.228.322.406l3.444 8.204zm-2.898-2.716l-1.414-3.276-1.386 3.276h2.8zm9.896-5.992c.252 0 .457.074.616.224.159.149.238.345.238.588 0 .242-.079.438-.238.588-.159.14-.364.21-.616.21h-2.198v7.336c0 .242-.089.448-.266.616-.177.158-.397.238-.658.238s-.476-.08-.644-.238c-.168-.168-.252-.374-.252-.616v-7.336h-2.198c-.252 0-.457-.075-.616-.224-.159-.15-.238-.346-.238-.588 0-.234.079-.425.238-.574.168-.15.373-.224.616-.224h6.216zm8.91.476c.29.149.434.387.434.714 0 .196-.07.387-.21.574-.149.196-.34.294-.574.294-.158 0-.317-.042-.476-.126-.457-.215-.952-.322-1.484-.322-.653 0-1.222.14-1.708.42-.485.27-.858.658-1.12 1.162-.261.494-.392 1.064-.392 1.708 0 1.101.294 1.936.882 2.506.598.569 1.377.854 2.338.854.57 0 1.064-.108 1.484-.322.168-.075.318-.112.448-.112.243 0 .448.102.616.308.14.177.21.368.21.574 0 .149-.037.284-.112.406-.074.121-.182.214-.322.28-.728.364-1.502.546-2.324.546-.914 0-1.754-.192-2.52-.574-.765-.392-1.376-.966-1.834-1.722-.457-.756-.686-1.671-.686-2.744 0-.952.215-1.806.644-2.562.439-.756 1.041-1.344 1.806-1.764.766-.43 1.629-.644 2.59-.644.831 0 1.601.182 2.31.546zm9.016-.476c.261 0 .471.079.63.238.158.158.238.364.238.616v8.092c0 .242-.084.448-.252.616-.168.158-.383.238-.644.238-.234 0-.434-.08-.602-.238-.168-.168-.252-.374-.252-.616v-3.262h-4.466v3.262c0 .242-.089.448-.266.616-.178.158-.383.238-.616.238-.252 0-.462-.08-.63-.238-.159-.168-.238-.374-.238-.616v-8.092c0-.243.084-.444.252-.602.168-.168.382-.252.644-.252.233 0 .434.084.602.252.168.158.252.359.252.602v3.22h4.466v-3.22c0-.243.088-.444.266-.602.177-.168.382-.252.616-.252zm8.508 8.19c.243 0 .443.084.602.252.168.158.252.345.252.56 0 .233-.084.424-.252.574-.159.149-.359.224-.602.224h-4.69c-.243 0-.448-.08-.616-.238-.159-.168-.238-.374-.238-.616v-8.092c0-.243.079-.444.238-.602.168-.168.373-.252.616-.252h4.69c.243 0 .443.079.602.238.168.149.252.345.252.588 0 .233-.079.424-.238.574-.159.14-.364.21-.616.21h-3.794v2.38h3.164c.243 0 .443.079.602.238.168.149.252.345.252.588 0 .233-.079.424-.238.574-.159.14-.364.21-.616.21h-3.164v2.59h3.794zm6.668-8.19c.877 0 1.628.219 2.254.658.634.429 1.115 1.017 1.442 1.764.336.737.504 1.563.504 2.478 0 .914-.168 1.745-.504 2.492-.327.737-.808 1.325-1.442 1.764-.626.429-1.377.644-2.254.644h-3.346c-.243 0-.448-.08-.616-.238-.159-.168-.238-.374-.238-.616v-8.092c0-.243.079-.444.238-.602.168-.168.373-.252.616-.252h3.346zm-.14 8.19c.84 0 1.47-.308 1.89-.924.42-.626.63-1.414.63-2.366 0-.952-.215-1.736-.644-2.352-.42-.626-1.046-.938-1.876-.938h-2.31v6.58h2.31z"/>
        <path fill="#E4E4E4" d="M254.444.098H256.44399999999996V38.098H254.444zM128.444 38.098H256.44399999999996V40.098H128.444z"/>
    </g>
    <g clip-path="url(#clip9)">
        <path fill="#F2F2F2" d="M0 0H128V40H0z" transform="translate(256.444 .098)"/>
        <path fill="#61656B" d="M291.985 15.298c.224 0 .406.074.546.224.14.149.21.336.21.56v8.162c0 .242-.084.448-.252.616-.159.158-.359.238-.602.238-.131 0-.261-.019-.392-.056-.121-.047-.21-.108-.266-.182l-5.138-6.524v5.978c0 .224-.075.41-.224.56-.14.149-.327.224-.56.224-.224 0-.406-.075-.546-.224-.14-.15-.21-.336-.21-.56v-8.162c0-.243.079-.444.238-.602.168-.168.373-.252.616-.252.14 0 .275.028.406.084.14.056.243.13.308.224l5.096 6.496v-6.02c0-.224.07-.411.21-.56.149-.15.336-.224.56-.224zm11.877 4.9c0 .924-.205 1.773-.616 2.548-.411.765-.98 1.372-1.708 1.82-.719.448-1.531.672-2.436.672s-1.722-.224-2.45-.672c-.719-.448-1.283-1.055-1.694-1.82-.401-.775-.602-1.624-.602-2.548 0-.924.201-1.769.602-2.534.411-.775.975-1.386 1.694-1.834.728-.448 1.545-.672 2.45-.672.905 0 1.717.224 2.436.672.728.448 1.297 1.059 1.708 1.834.411.765.616 1.61.616 2.534zm-1.82 0c0-.626-.126-1.19-.378-1.694-.252-.514-.602-.92-1.05-1.218-.448-.299-.952-.448-1.512-.448-.569 0-1.078.149-1.526.448-.439.289-.784.69-1.036 1.204-.243.513-.364 1.082-.364 1.708 0 .625.121 1.194.364 1.708.252.513.597.919 1.036 1.218.448.289.957.434 1.526.434.56 0 1.064-.15 1.512-.448.448-.299.798-.7 1.05-1.204.252-.514.378-1.083.378-1.708zm15.849-4.914c.233 0 .434.084.602.252.177.158.266.359.266.602v8.106c0 .242-.08.448-.238.616-.159.158-.369.238-.63.238-.262 0-.476-.08-.644-.238-.159-.159-.238-.364-.238-.616v-5.642l-2.31 3.528c-.094.112-.201.205-.322.28-.122.065-.248.093-.378.084-.122.009-.243-.019-.364-.084-.122-.075-.229-.168-.322-.28l-2.31-3.654v5.768c0 .252-.075.457-.224.616-.15.158-.346.238-.588.238-.234 0-.425-.08-.574-.238-.15-.168-.224-.374-.224-.616v-8.106c0-.234.084-.434.252-.602.177-.168.387-.252.63-.252.14 0 .28.037.42.112.14.065.247.154.322.266l3.052 4.69 3.136-4.69c.074-.112.172-.201.294-.266.13-.075.261-.112.392-.112zm10.658 8.722c.047.121.07.233.07.336 0 .242-.079.443-.238.602-.158.149-.34.224-.546.224-.168 0-.322-.052-.462-.154-.13-.103-.233-.243-.308-.42l-.728-1.694h-4.172l-.728 1.708c-.065.177-.168.317-.308.42-.13.093-.275.14-.434.14-.242 0-.429-.066-.56-.196-.121-.131-.182-.308-.182-.532 0-.084.014-.173.042-.266l3.486-8.372c.075-.187.187-.332.336-.434.15-.103.318-.145.504-.126.168 0 .322.051.462.154.15.093.257.228.322.406l3.444 8.204zm-2.898-2.716l-1.414-3.276-1.386 3.276h2.8zm9.897-5.992c.252 0 .457.074.616.224.158.149.238.345.238.588 0 .242-.08.438-.238.588-.159.14-.364.21-.616.21h-2.198v7.336c0 .242-.089.448-.266.616-.178.158-.397.238-.658.238-.262 0-.476-.08-.644-.238-.168-.168-.252-.374-.252-.616v-7.336h-2.198c-.252 0-.458-.075-.616-.224-.159-.15-.238-.346-.238-.588 0-.234.079-.425.238-.574.168-.15.373-.224.616-.224h6.216zm8.91.476c.289.149.434.387.434.714 0 .196-.07.387-.21.574-.149.196-.341.294-.574.294-.159 0-.317-.042-.476-.126-.457-.215-.952-.322-1.484-.322-.653 0-1.223.14-1.708.42-.485.27-.859.658-1.12 1.162-.261.494-.392 1.064-.392 1.708 0 1.101.294 1.936.882 2.506.597.569 1.377.854 2.338.854.569 0 1.064-.108 1.484-.322.168-.075.317-.112.448-.112.243 0 .448.102.616.308.14.177.21.368.21.574 0 .149-.037.284-.112.406-.075.121-.182.214-.322.28-.728.364-1.503.546-2.324.546-.915 0-1.755-.192-2.52-.574-.765-.392-1.377-.966-1.834-1.722-.457-.756-.686-1.671-.686-2.744 0-.952.215-1.806.644-2.562.439-.756 1.041-1.344 1.806-1.764.765-.43 1.629-.644 2.59-.644.831 0 1.601.182 2.31.546zm9.015-.476c.262 0 .472.079.63.238.159.158.238.364.238.616v8.092c0 .242-.084.448-.252.616-.168.158-.382.238-.644.238-.233 0-.434-.08-.602-.238-.168-.168-.252-.374-.252-.616v-3.262h-4.466v3.262c0 .242-.088.448-.266.616-.177.158-.382.238-.616.238-.252 0-.462-.08-.63-.238-.158-.168-.238-.374-.238-.616v-8.092c0-.243.084-.444.252-.602.168-.168.383-.252.644-.252.234 0 .434.084.602.252.168.158.252.359.252.602v3.22h4.466v-3.22c0-.243.089-.444.266-.602.178-.168.383-.252.616-.252z"/>
        <path fill="#E4E4E4" d="M382.444.098H384.444V38.098H382.444zM256.444 38.098H384.444V40.098H256.444z"/>
    </g>
    <g clip-path="url(#clip10)">
        <path fill="#fff" d="M0 0H283V52H0z" transform="translate(250.444 51.598)"/>
        <g clip-path="url(#clip11)">
            <path fill="#61656B" d="M281.934 71.798c.252 0 .458.074.616.224.159.149.238.345.238.588 0 .242-.079.438-.238.588-.158.14-.364.21-.616.21h-2.198v7.336c0 .242-.088.448-.266.616-.177.158-.396.238-.658.238-.261 0-.476-.08-.644-.238-.168-.168-.252-.374-.252-.616v-7.336h-2.198c-.252 0-.457-.075-.616-.224-.158-.15-.238-.346-.238-.588 0-.234.08-.425.238-.574.168-.15.374-.224.616-.224h6.216zm9.545.826c0 .186-.052.359-.154.518l-2.926 4.186v3.416c0 .242-.08.448-.238.616-.159.158-.35.238-.574.238-.234 0-.434-.08-.602-.238-.159-.168-.238-.374-.238-.616v-3.612l-2.912-3.864c-.168-.224-.252-.444-.252-.658 0-.243.093-.444.28-.602.196-.168.401-.252.616-.252.261 0 .49.13.686.392l2.464 3.402 2.31-3.374c.196-.28.429-.42.7-.42.224 0 .42.084.588.252.168.168.252.373.252.616zm5.302-.826c.476 0 .928.144 1.358.434.429.28.774.662 1.036 1.148.261.476.392.998.392 1.568 0 .56-.131 1.082-.392 1.568-.262.485-.607.872-1.036 1.162-.43.28-.882.42-1.358.42h-2.436v2.646c0 .252-.075.457-.224.616-.15.158-.346.238-.588.238-.234 0-.425-.08-.574-.238-.15-.168-.224-.374-.224-.616v-8.092c0-.243.079-.444.238-.602.168-.168.373-.252.616-.252h3.192zm0 4.704c.177 0 .35-.075.518-.224.177-.15.317-.341.42-.574.112-.243.168-.495.168-.756 0-.262-.056-.509-.168-.742-.103-.243-.243-.434-.42-.574-.168-.15-.341-.224-.518-.224h-2.436v3.094h2.436zm9.933 3.486c.243 0 .443.084.602.252.168.158.252.345.252.56 0 .233-.084.424-.252.574-.159.149-.359.224-.602.224h-4.69c-.243 0-.448-.08-.616-.238-.159-.168-.238-.374-.238-.616v-8.092c0-.243.079-.444.238-.602.168-.168.373-.252.616-.252h4.69c.243 0 .443.079.602.238.168.149.252.345.252.588 0 .233-.079.424-.238.574-.159.14-.364.21-.616.21h-3.794v2.38h3.164c.243 0 .443.079.602.238.168.149.252.345.252.588 0 .233-.079.424-.238.574-.159.14-.364.21-.616.21h-3.164v2.59h3.794z"/>
        </g>
        <path fill="#E4E4E4" d="M250.444 101.598H533.444V103.598H250.444z"/>
    </g>
    <g clip-path="url(#clip12)">
        <path fill="#fff" d="M0 0H283V41H0z" transform="translate(250.444 144.098)"/>
        <path stroke="#E4E4E4" d="M250.444 184.598L533.444 184.598"/>
        <path fill="#E4E4E4" d="M531.444 144.098H533.444V184.098H531.444z"/>
        <path fill="#393E46" d="M283.992 159.284c.234 0 .434.084.602.252.178.158.266.359.266.602v8.106c0 .242-.079.448-.238.616-.158.158-.368.238-.63.238-.261 0-.476-.08-.644-.238-.158-.159-.238-.364-.238-.616v-5.642l-2.31 3.528c-.093.112-.2.205-.322.28-.121.065-.247.093-.378.084-.121.009-.242-.019-.364-.084-.121-.075-.228-.168-.322-.28l-2.31-3.654v5.768c0 .252-.074.457-.224.616-.149.158-.345.238-.588.238-.233 0-.424-.08-.574-.238-.149-.168-.224-.374-.224-.616v-8.106c0-.234.084-.434.252-.602.178-.168.388-.252.63-.252.14 0 .28.037.42.112.14.065.248.154.322.266l3.052 4.69 3.136-4.69c.075-.112.173-.201.294-.266.131-.075.262-.112.392-.112zm10.659 8.722c.047.121.07.233.07.336 0 .242-.079.443-.238.602-.159.149-.341.224-.546.224-.168 0-.322-.052-.462-.154-.131-.103-.233-.243-.308-.42l-.728-1.694h-4.172l-.728 1.708c-.065.177-.168.317-.308.42-.131.093-.275.14-.434.14-.243 0-.429-.066-.56-.196-.121-.131-.182-.308-.182-.532 0-.084.014-.173.042-.266l3.486-8.372c.075-.187.187-.332.336-.434.149-.103.317-.145.504-.126.168 0 .322.051.462.154.149.093.257.228.322.406l3.444 8.204zm-2.898-2.716l-1.414-3.276-1.386 3.276h2.8zm10.945-5.516c.289.149.434.387.434.714 0 .196-.07.387-.21.574-.149.196-.341.294-.574.294-.159 0-.317-.042-.476-.126-.457-.215-.952-.322-1.484-.322-.653 0-1.223.14-1.708.42-.485.27-.859.658-1.12 1.162-.261.494-.392 1.064-.392 1.708 0 1.101.294 1.936.882 2.506.597.569 1.377.854 2.338.854.569 0 1.064-.108 1.484-.322.168-.075.317-.112.448-.112.243 0 .448.102.616.308.14.177.21.368.21.574 0 .149-.037.284-.112.406-.075.121-.182.214-.322.28-.728.364-1.503.546-2.324.546-.915 0-1.755-.192-2.52-.574-.765-.392-1.377-.966-1.834-1.722-.457-.756-.686-1.671-.686-2.744 0-.952.215-1.806.644-2.562.439-.756 1.041-1.344 1.806-1.764.765-.43 1.629-.644 2.59-.644.831 0 1.601.182 2.31.546z"/>
    </g>
    <g clip-path="url(#clip13)">
        <path fill="#FAFAFA" d="M0 0H283V41H0z" transform="translate(250.444 103.098)"/>
        <path stroke="#E4E4E4" d="M250.444 143.598L533.444 143.598"/>
        <path fill="#E4E4E4" d="M531.444 103.098H533.444V143.098H531.444z"/>
        <path fill="#393E46" d="M286.512 118.256c.224 0 .43.088.616.266.196.168.294.382.294.644 0 .084-.014.177-.042.28l-2.758 8.12c-.056.158-.154.284-.294.378-.14.093-.294.144-.462.154-.168 0-.326-.047-.476-.14-.149-.094-.266-.229-.35-.406l-1.988-4.522-2.002 4.522c-.084.177-.2.312-.35.406-.149.093-.308.14-.476.14-.168-.01-.322-.061-.462-.154-.14-.094-.238-.22-.294-.378l-2.758-8.12c-.028-.103-.042-.196-.042-.28 0-.262.094-.476.28-.644.196-.178.411-.266.644-.266.187 0 .355.051.504.154.15.093.252.224.308.392l2.086 6.328 1.82-4.368c.075-.168.182-.299.322-.392.14-.103.299-.15.476-.14.178-.01.332.037.462.14.14.093.248.224.322.392l1.722 4.326 2.072-6.286c.056-.168.159-.299.308-.392.159-.103.332-.154.518-.154zm3.631 8.988c0 .242-.079.448-.238.616-.158.158-.359.238-.602.238-.242 0-.443-.08-.602-.238-.158-.168-.238-.374-.238-.616v-5.782c0-.243.08-.444.238-.602.159-.168.36-.252.602-.252.243 0 .444.084.602.252.159.158.238.359.238.602v5.782zm-.854-7.546c-.317 0-.541-.052-.672-.154-.13-.103-.196-.285-.196-.546v-.266c0-.262.07-.444.21-.546.14-.103.364-.154.672-.154.327 0 .556.051.686.154.131.102.196.284.196.546v.266c0 .27-.07.457-.21.56-.13.093-.359.14-.686.14zm6.585.77c.952 0 1.61.284 1.974.854.364.56.546 1.339.546 2.338v3.584c0 .242-.079.448-.238.616-.159.158-.359.238-.602.238s-.443-.08-.602-.238c-.159-.168-.238-.374-.238-.616v-3.584c0-.514-.107-.915-.322-1.204-.215-.299-.583-.448-1.106-.448-.541 0-.966.158-1.274.476-.308.308-.462.7-.462 1.176v3.584c0 .242-.079.448-.238.616-.159.158-.359.238-.602.238s-.443-.08-.602-.238c-.159-.168-.238-.374-.238-.616v-5.782c0-.243.079-.444.238-.602.159-.168.359-.252.602-.252s.443.084.602.252c.159.158.238.359.238.602v.238c.252-.336.579-.626.98-.868.411-.243.859-.364 1.344-.364zm10.398-2.73c.242 0 .443.079.602.238.158.158.238.364.238.616v8.652c0 .242-.08.448-.238.616-.159.158-.36.238-.602.238-.243 0-.444-.08-.602-.238-.15-.159-.229-.36-.238-.602-.234.27-.551.504-.952.7-.392.186-.808.28-1.246.28-.644 0-1.228-.164-1.75-.49-.523-.336-.938-.798-1.246-1.386-.299-.588-.448-1.256-.448-2.002 0-.747.149-1.414.448-2.002.298-.598.704-1.06 1.218-1.386.522-.336 1.096-.504 1.722-.504.448 0 .868.084 1.26.252.392.158.723.364.994.616v-2.744c0-.243.079-.444.238-.602.158-.168.359-.252.602-.252zm-2.828 8.96c.606 0 1.101-.22 1.484-.658.382-.448.574-1.008.574-1.68 0-.672-.192-1.232-.574-1.68-.383-.448-.878-.672-1.484-.672-.598 0-1.088.224-1.47.672-.383.448-.574 1.008-.574 1.68 0 .672.186 1.232.56 1.68.382.438.877.658 1.484.658zm12.684-2.338c0 .746-.168 1.418-.504 2.016-.336.588-.798 1.045-1.386 1.372-.578.326-1.218.49-1.918.49-.709 0-1.353-.164-1.932-.49-.578-.327-1.036-.784-1.372-1.372-.336-.598-.504-1.27-.504-2.016 0-.747.168-1.414.504-2.002.336-.598.794-1.06 1.372-1.386.579-.336 1.223-.504 1.932-.504.7 0 1.34.168 1.918.504.588.326 1.05.788 1.386 1.386.336.588.504 1.255.504 2.002zm-1.68 0c0-.458-.098-.864-.294-1.218-.186-.364-.443-.644-.77-.84-.317-.196-.672-.294-1.064-.294s-.751.098-1.078.294c-.317.196-.574.476-.77.84-.186.354-.28.76-.28 1.218 0 .457.094.863.28 1.218.196.354.453.63.77.826.327.196.686.294 1.078.294s.747-.098 1.064-.294c.327-.196.584-.472.77-.826.196-.355.294-.761.294-1.218zm11.708-3.752c.224 0 .411.084.56.252.159.158.238.364.238.616 0 .084-.019.191-.056.322l-2.142 5.768c-.056.168-.159.303-.308.406-.14.093-.294.14-.462.14l-.112-.014c-.317-.019-.555-.196-.714-.532l-1.19-3.444-1.134 3.444c-.159.336-.397.513-.714.532l-.112.014c-.168 0-.327-.047-.476-.14-.14-.103-.238-.238-.294-.406l-2.142-5.768c-.037-.103-.056-.21-.056-.322 0-.234.075-.434.224-.602.159-.178.364-.266.616-.266.187 0 .345.046.476.14.14.084.238.214.294.392l1.512 4.102 1.106-2.996c.149-.346.406-.518.77-.518.196 0 .345.042.448.126.112.084.205.214.28.392l1.078 2.926 1.498-4.032c.056-.178.154-.308.294-.392.14-.094.313-.14.518-.14zm1.62 6.328c-.084-.112-.126-.252-.126-.42 0-.243.121-.448.364-.616.13-.084.266-.126.406-.126.196 0 .382.088.56.266.28.289.569.504.868.644.308.14.676.21 1.106.21.728-.028 1.092-.304 1.092-.826 0-.271-.126-.476-.378-.616-.243-.14-.626-.28-1.148-.42-.542-.15-.985-.299-1.33-.448-.336-.15-.63-.374-.882-.672-.243-.308-.364-.719-.364-1.232 0-.448.126-.836.378-1.162.261-.336.597-.593 1.008-.77.42-.187.863-.28 1.33-.28.476 0 .952.088 1.428.266.476.177.849.438 1.12.784.121.149.182.317.182.504 0 .214-.089.392-.266.532-.131.102-.28.154-.448.154-.206 0-.374-.066-.504-.196-.168-.206-.388-.369-.658-.49-.262-.122-.56-.182-.896-.182-.71 0-1.064.256-1.064.77 0 .205.065.373.196.504.13.121.294.219.49.294.205.065.49.149.854.252.504.14.924.284 1.26.434.336.149.62.378.854.686.233.308.35.714.35 1.218 0 .457-.136.858-.406 1.204-.271.336-.621.592-1.05.77-.42.177-.854.266-1.302.266-.616 0-1.19-.103-1.722-.308-.532-.206-.966-.537-1.302-.994z"/>
    </g>
    <g clip-path="url(#clip14)">
        <path fill="#FAFAFA" d="M0 0H283V41H0z" transform="translate(250.444 185.098)"/>
        <path stroke="#E4E4E4" d="M250.444 225.598L533.444 225.598"/>
        <path fill="#E4E4E4" d="M531.444 185.098H533.444V225.098H531.444z"/>
        <path fill="#393E46" d="M279.694 200.298c.878 0 1.629.219 2.254.658.635.429 1.116 1.017 1.442 1.764.336.737.504 1.563.504 2.478 0 .914-.168 1.745-.504 2.492-.326.737-.807 1.325-1.442 1.764-.625.429-1.376.644-2.254.644h-3.346c-.242 0-.448-.08-.616-.238-.158-.168-.238-.374-.238-.616v-8.092c0-.243.08-.444.238-.602.168-.168.374-.252.616-.252h3.346zm-.14 8.19c.84 0 1.47-.308 1.89-.924.42-.626.63-1.414.63-2.366 0-.952-.214-1.736-.644-2.352-.42-.626-1.045-.938-1.876-.938h-2.31v6.58h2.31zm12.638-2.31c-.01.224-.098.406-.266.546s-.364.21-.588.21h-4.62c.112.55.368.984.77 1.302.401.308.854.462 1.358.462.382 0 .681-.033.896-.098.214-.075.382-.15.504-.224.13-.084.219-.14.266-.168.168-.084.326-.126.476-.126.196 0 .364.07.504.21.14.14.21.303.21.49 0 .252-.131.48-.392.686-.262.214-.612.396-1.05.546-.439.149-.882.224-1.33.224-.784 0-1.47-.164-2.058-.49-.579-.327-1.027-.775-1.344-1.344-.318-.579-.476-1.228-.476-1.946 0-.803.168-1.508.504-2.114.336-.607.779-1.069 1.33-1.386.55-.327 1.138-.49 1.764-.49.616 0 1.194.168 1.736.504.55.336.989.788 1.316 1.358.326.569.49 1.185.49 1.848zm-3.542-2.17c-1.083 0-1.722.508-1.918 1.526h3.668v-.098c-.038-.392-.229-.728-.574-1.008-.346-.28-.738-.42-1.176-.42zm4.509 4.928c-.084-.112-.126-.252-.126-.42 0-.243.121-.448.364-.616.13-.084.266-.126.406-.126.196 0 .382.088.56.266.28.289.569.504.868.644.308.14.676.21 1.106.21.728-.028 1.092-.304 1.092-.826 0-.271-.126-.476-.378-.616-.243-.14-.626-.28-1.148-.42-.542-.15-.985-.299-1.33-.448-.336-.15-.63-.374-.882-.672-.243-.308-.364-.719-.364-1.232 0-.448.126-.836.378-1.162.261-.336.597-.593 1.008-.77.42-.187.863-.28 1.33-.28.476 0 .952.088 1.428.266.476.177.849.438 1.12.784.121.149.182.317.182.504 0 .214-.089.392-.266.532-.131.102-.28.154-.448.154-.206 0-.374-.066-.504-.196-.168-.206-.388-.369-.658-.49-.262-.122-.56-.182-.896-.182-.71 0-1.064.256-1.064.77 0 .205.065.373.196.504.13.121.294.219.49.294.205.065.49.149.854.252.504.14.924.284 1.26.434.336.149.62.378.854.686.233.308.35.714.35 1.218 0 .457-.136.858-.406 1.204-.271.336-.621.592-1.05.77-.42.177-.854.266-1.302.266-.616 0-1.19-.103-1.722-.308-.532-.206-.966-.537-1.302-.994zm13.418-.308c.177.186.266.396.266.63 0 .233-.094.429-.28.588-.178.158-.369.238-.574.238-.243 0-.448-.094-.616-.28l-2.52-2.66-.686.63v1.47c0 .242-.08.448-.238.616-.159.158-.36.238-.602.238-.243 0-.444-.08-.602-.238-.159-.168-.238-.374-.238-.616v-8.652c0-.243.079-.444.238-.602.158-.168.359-.252.602-.252.242 0 .443.084.602.252.158.158.238.359.238.602v5.18l2.996-2.898c.177-.178.382-.266.616-.266.205 0 .387.088.546.266.168.168.252.34.252.518 0 .224-.112.434-.336.63l-2.114 1.946 2.45 2.66zm5.352-.112c.131 0 .248.065.35.196.112.121.168.284.168.49 0 .252-.14.466-.42.644-.27.168-.578.252-.924.252-.578 0-1.068-.122-1.47-.364-.392-.252-.588-.78-.588-1.582v-3.864h-.644c-.224 0-.41-.075-.56-.224-.149-.15-.224-.336-.224-.56 0-.215.075-.392.224-.532.15-.15.336-.224.56-.224h.644v-.896c0-.243.08-.444.238-.602.168-.168.374-.252.616-.252.234 0 .43.084.588.252.159.158.238.359.238.602v.896h.994c.224 0 .411.074.56.224.15.149.224.336.224.56 0 .214-.074.396-.224.546-.149.14-.336.21-.56.21h-.994v3.794c0 .196.052.34.154.434.103.084.243.126.42.126.075 0 .178-.019.308-.056.112-.047.22-.07.322-.07zm9.244-2.156c0 .746-.168 1.418-.504 2.016-.336.588-.798 1.045-1.386 1.372-.578.326-1.218.49-1.918.49-.709 0-1.353-.164-1.932-.49-.578-.327-1.036-.784-1.372-1.372-.336-.598-.504-1.27-.504-2.016 0-.747.168-1.414.504-2.002.336-.598.794-1.06 1.372-1.386.579-.336 1.223-.504 1.932-.504.7 0 1.34.168 1.918.504.588.326 1.05.788 1.386 1.386.336.588.504 1.255.504 2.002zm-1.68 0c0-.458-.098-.864-.294-1.218-.186-.364-.443-.644-.77-.84-.317-.196-.672-.294-1.064-.294s-.751.098-1.078.294c-.317.196-.574.476-.77.84-.186.354-.28.76-.28 1.218 0 .457.094.863.28 1.218.196.354.453.63.77.826.327.196.686.294 1.078.294s.747-.098 1.064-.294c.327-.196.584-.472.77-.826.196-.355.294-.761.294-1.218zm6.962-3.892c.644 0 1.227.168 1.75.504.523.326.933.784 1.232 1.372.308.588.462 1.255.462 2.002 0 .746-.149 1.418-.448 2.016-.299.588-.709 1.05-1.232 1.386-.513.326-1.083.49-1.708.49-.448 0-.873-.089-1.274-.266-.392-.187-.719-.411-.98-.672v2.744c0 .242-.079.443-.238.602-.159.168-.359.252-.602.252s-.443-.08-.602-.238c-.159-.159-.238-.364-.238-.616v-8.582c0-.243.079-.444.238-.602.159-.168.359-.252.602-.252s.443.084.602.252c.159.158.238.359.238.602v.056c.224-.28.537-.523.938-.728.401-.215.821-.322 1.26-.322zm-.21 6.23c.597 0 1.087-.224 1.47-.672.383-.448.574-1.008.574-1.68 0-.672-.191-1.228-.574-1.666-.373-.448-.863-.672-1.47-.672s-1.101.224-1.484.672c-.383.438-.574.994-.574 1.666 0 .672.191 1.232.574 1.68.383.448.877.672 1.484.672z"/>
    </g>
    <g clip-path="url(#clip15)">
        <path fill="#fff" d="M0 0H48V41H0z" transform="translate(.444 144.098)"/>
        <path stroke="#E4E4E4" d="M0.444 184.598L48.444 184.598"/>
    </g>
    <g clip-path="url(#clip16)">
        <path fill="#FAFAFA" d="M0 0H48V41H0z" transform="translate(2.444 185.098)"/>
        <path stroke="#E4E4E4" d="M2.444 225.598L50.444 225.598"/>
    </g>
    <g clip-path="url(#clip17)">
        <path fill="#FAFAFA" d="M0 0H48V41H0z" transform="translate(.444 103.098)"/>
        <path stroke="#E4E4E4" d="M0.444 143.598L48.444 143.598"/>
    </g>
    <defs>
        <clipPath id="clip0">
            <path fill="#fff" d="M0 0H204V41H0z" transform="translate(46.444 185.098)"/>
        </clipPath>
        <clipPath id="clip1">
            <path fill="#fff" d="M0 0H204V41H0z" transform="translate(46.444 103.098)"/>
        </clipPath>
        <clipPath id="clip2">
            <path fill="#fff" d="M0 0H204V41H0z" transform="translate(46.444 144.098)"/>
        </clipPath>
        <clipPath id="clip3">
            <path fill="#fff" d="M0 0H202V52H0z" transform="translate(48.444 51.098)"/>
        </clipPath>
        <clipPath id="clip4">
            <path fill="#fff" d="M0 0H202V50H0z" transform="translate(48.444 51.098)"/>
        </clipPath>
        <clipPath id="clip5">
            <path fill="#fff" d="M0 0H67V18H0z" transform="translate(72.444 67.098)"/>
        </clipPath>
        <clipPath id="clip6">
            <path fill="#fff" d="M0 0H128V40H0z" transform="translate(.444 .098)"/>
        </clipPath>
        <clipPath id="clip7">
            <path fill="#fff" d="M0 0H48V52H0z" transform="translate(.444 51.098)"/>
        </clipPath>
        <clipPath id="clip8">
            <path fill="#fff" d="M0 0H128V40H0z" transform="translate(128.444 .098)"/>
        </clipPath>
        <clipPath id="clip9">
            <path fill="#fff" d="M0 0H128V40H0z" transform="translate(256.444 .098)"/>
        </clipPath>
        <clipPath id="clip10">
            <path fill="#fff" d="M0 0H283V52H0z" transform="translate(250.444 51.598)"/>
        </clipPath>
        <clipPath id="clip11">
            <path fill="#fff" d="M0 0H62V18H0z" transform="translate(274.444 67.598)"/>
        </clipPath>
        <clipPath id="clip12">
            <path fill="#fff" d="M0 0H283V41H0z" transform="translate(250.444 144.098)"/>
        </clipPath>
        <clipPath id="clip13">
            <path fill="#fff" d="M0 0H283V41H0z" transform="translate(250.444 103.098)"/>
        </clipPath>
        <clipPath id="clip14">
            <path fill="#fff" d="M0 0H283V41H0z" transform="translate(250.444 185.098)"/>
        </clipPath>
        <clipPath id="clip15">
            <path fill="#fff" d="M0 0H48V41H0z" transform="translate(.444 144.098)"/>
        </clipPath>
        <clipPath id="clip16">
            <path fill="#fff" d="M0 0H48V41H0z" transform="translate(2.444 185.098)"/>
        </clipPath>
        <clipPath id="clip17">
            <path fill="#fff" d="M0 0H48V41H0z" transform="translate(.444 103.098)"/>
        </clipPath>
    </defs>
</svg>
